<?xml version="1.0" encoding="utf-8" standalone="no"?>
<!DOCTYPE svg PUBLIC "-//W3C//DTD SVG 1.1//EN"
  "http://www.w3.org/Graphics/SVG/1.1/DTD/svg11.dtd">
<svg xmlns:xlink="http://www.w3.org/1999/xlink" width="432pt" height="432pt" viewBox="0 0 432 432" xmlns="http://www.w3.org/2000/svg" version="1.1">
 <metadata>
  <rdf:RDF xmlns:dc="http://purl.org/dc/elements/1.1/" xmlns:cc="http://creativecommons.org/ns#" xmlns:rdf="http://www.w3.org/1999/02/22-rdf-syntax-ns#">
   <cc:Work>
    <dc:type rdf:resource="http://purl.org/dc/dcmitype/StillImage"/>
    <dc:date>2025-04-04T10:03:45.357075</dc:date>
    <dc:format>image/svg+xml</dc:format>
    <dc:creator>
     <cc:Agent>
      <dc:title>Matplotlib v3.10.1, https://matplotlib.org/</dc:title>
     </cc:Agent>
    </dc:creator>
   </cc:Work>
  </rdf:RDF>
 </metadata>
 <defs>
  <style type="text/css">*{stroke-linejoin: round; stroke-linecap: butt}</style>
 </defs>
 <g id="figure_1">
  <g id="patch_1">
   <path d="M 0 432 
L 432 432 
L 432 0 
L 0 0 
z
" style="fill: #ffffff"/>
  </g>
  <g id="axes_1">
   <g id="patch_2">
    <path d="M 54.02 390.04 
L 421.2 390.04 
L 421.2 10.8 
L 54.02 10.8 
z
" style="fill: #ffffff"/>
   </g>
   <g id="matplotlib.axis_1">
    <g id="xtick_1">
     <g id="line2d_1">
      <defs>
       <path id="m366bd7eebc" d="M 0 0 
L 0 3.5 
" style="stroke: #000000; stroke-width: 0.8"/>
      </defs>
      <g>
       <use xlink:href="#m366bd7eebc" x="70.71" y="390.04" style="stroke: #000000; stroke-width: 0.8"/>
      </g>
     </g>
     <g id="text_1">
      <!-- 0.3 -->
      <g transform="translate(62.758438 404.638438) scale(0.1 -0.1)">
       <defs>
        <path id="DejaVuSans-30" d="M 2034 4250 
Q 1547 4250 1301 3770 
Q 1056 3291 1056 2328 
Q 1056 1369 1301 889 
Q 1547 409 2034 409 
Q 2525 409 2770 889 
Q 3016 1369 3016 2328 
Q 3016 3291 2770 3770 
Q 2525 4250 2034 4250 
z
M 2034 4750 
Q 2819 4750 3233 4129 
Q 3647 3509 3647 2328 
Q 3647 1150 3233 529 
Q 2819 -91 2034 -91 
Q 1250 -91 836 529 
Q 422 1150 422 2328 
Q 422 3509 836 4129 
Q 1250 4750 2034 4750 
z
" transform="scale(0.015625)"/>
        <path id="DejaVuSans-2e" d="M 684 794 
L 1344 794 
L 1344 0 
L 684 0 
L 684 794 
z
" transform="scale(0.015625)"/>
        <path id="DejaVuSans-33" d="M 2597 2516 
Q 3050 2419 3304 2112 
Q 3559 1806 3559 1356 
Q 3559 666 3084 287 
Q 2609 -91 1734 -91 
Q 1441 -91 1130 -33 
Q 819 25 488 141 
L 488 750 
Q 750 597 1062 519 
Q 1375 441 1716 441 
Q 2309 441 2620 675 
Q 2931 909 2931 1356 
Q 2931 1769 2642 2001 
Q 2353 2234 1838 2234 
L 1294 2234 
L 1294 2753 
L 1863 2753 
Q 2328 2753 2575 2939 
Q 2822 3125 2822 3475 
Q 2822 3834 2567 4026 
Q 2313 4219 1838 4219 
Q 1578 4219 1281 4162 
Q 984 4106 628 3988 
L 628 4550 
Q 988 4650 1302 4700 
Q 1616 4750 1894 4750 
Q 2613 4750 3031 4423 
Q 3450 4097 3450 3541 
Q 3450 3153 3228 2886 
Q 3006 2619 2597 2516 
z
" transform="scale(0.015625)"/>
       </defs>
       <use xlink:href="#DejaVuSans-30"/>
       <use xlink:href="#DejaVuSans-2e" transform="translate(63.623047 0)"/>
       <use xlink:href="#DejaVuSans-33" transform="translate(95.410156 0)"/>
      </g>
     </g>
    </g>
    <g id="xtick_2">
     <g id="line2d_2">
      <g>
       <use xlink:href="#m366bd7eebc" x="107.798889" y="390.04" style="stroke: #000000; stroke-width: 0.8"/>
      </g>
     </g>
     <g id="text_2">
      <!-- 0.4 -->
      <g transform="translate(99.847326 404.638438) scale(0.1 -0.1)">
       <defs>
        <path id="DejaVuSans-34" d="M 2419 4116 
L 825 1625 
L 2419 1625 
L 2419 4116 
z
M 2253 4666 
L 3047 4666 
L 3047 1625 
L 3713 1625 
L 3713 1100 
L 3047 1100 
L 3047 0 
L 2419 0 
L 2419 1100 
L 313 1100 
L 313 1709 
L 2253 4666 
z
" transform="scale(0.015625)"/>
       </defs>
       <use xlink:href="#DejaVuSans-30"/>
       <use xlink:href="#DejaVuSans-2e" transform="translate(63.623047 0)"/>
       <use xlink:href="#DejaVuSans-34" transform="translate(95.410156 0)"/>
      </g>
     </g>
    </g>
    <g id="xtick_3">
     <g id="line2d_3">
      <g>
       <use xlink:href="#m366bd7eebc" x="144.887778" y="390.04" style="stroke: #000000; stroke-width: 0.8"/>
      </g>
     </g>
     <g id="text_3">
      <!-- 0.5 -->
      <g transform="translate(136.936215 404.638438) scale(0.1 -0.1)">
       <defs>
        <path id="DejaVuSans-35" d="M 691 4666 
L 3169 4666 
L 3169 4134 
L 1269 4134 
L 1269 2991 
Q 1406 3038 1543 3061 
Q 1681 3084 1819 3084 
Q 2600 3084 3056 2656 
Q 3513 2228 3513 1497 
Q 3513 744 3044 326 
Q 2575 -91 1722 -91 
Q 1428 -91 1123 -41 
Q 819 9 494 109 
L 494 744 
Q 775 591 1075 516 
Q 1375 441 1709 441 
Q 2250 441 2565 725 
Q 2881 1009 2881 1497 
Q 2881 1984 2565 2268 
Q 2250 2553 1709 2553 
Q 1456 2553 1204 2497 
Q 953 2441 691 2322 
L 691 4666 
z
" transform="scale(0.015625)"/>
       </defs>
       <use xlink:href="#DejaVuSans-30"/>
       <use xlink:href="#DejaVuSans-2e" transform="translate(63.623047 0)"/>
       <use xlink:href="#DejaVuSans-35" transform="translate(95.410156 0)"/>
      </g>
     </g>
    </g>
    <g id="xtick_4">
     <g id="line2d_4">
      <g>
       <use xlink:href="#m366bd7eebc" x="181.976667" y="390.04" style="stroke: #000000; stroke-width: 0.8"/>
      </g>
     </g>
     <g id="text_4">
      <!-- 0.6 -->
      <g transform="translate(174.025104 404.638438) scale(0.1 -0.1)">
       <defs>
        <path id="DejaVuSans-36" d="M 2113 2584 
Q 1688 2584 1439 2293 
Q 1191 2003 1191 1497 
Q 1191 994 1439 701 
Q 1688 409 2113 409 
Q 2538 409 2786 701 
Q 3034 994 3034 1497 
Q 3034 2003 2786 2293 
Q 2538 2584 2113 2584 
z
M 3366 4563 
L 3366 3988 
Q 3128 4100 2886 4159 
Q 2644 4219 2406 4219 
Q 1781 4219 1451 3797 
Q 1122 3375 1075 2522 
Q 1259 2794 1537 2939 
Q 1816 3084 2150 3084 
Q 2853 3084 3261 2657 
Q 3669 2231 3669 1497 
Q 3669 778 3244 343 
Q 2819 -91 2113 -91 
Q 1303 -91 875 529 
Q 447 1150 447 2328 
Q 447 3434 972 4092 
Q 1497 4750 2381 4750 
Q 2619 4750 2861 4703 
Q 3103 4656 3366 4563 
z
" transform="scale(0.015625)"/>
       </defs>
       <use xlink:href="#DejaVuSans-30"/>
       <use xlink:href="#DejaVuSans-2e" transform="translate(63.623047 0)"/>
       <use xlink:href="#DejaVuSans-36" transform="translate(95.410156 0)"/>
      </g>
     </g>
    </g>
    <g id="xtick_5">
     <g id="line2d_5">
      <g>
       <use xlink:href="#m366bd7eebc" x="219.065556" y="390.04" style="stroke: #000000; stroke-width: 0.8"/>
      </g>
     </g>
     <g id="text_5">
      <!-- 0.7 -->
      <g transform="translate(211.113993 404.638438) scale(0.1 -0.1)">
       <defs>
        <path id="DejaVuSans-37" d="M 525 4666 
L 3525 4666 
L 3525 4397 
L 1831 0 
L 1172 0 
L 2766 4134 
L 525 4134 
L 525 4666 
z
" transform="scale(0.015625)"/>
       </defs>
       <use xlink:href="#DejaVuSans-30"/>
       <use xlink:href="#DejaVuSans-2e" transform="translate(63.623047 0)"/>
       <use xlink:href="#DejaVuSans-37" transform="translate(95.410156 0)"/>
      </g>
     </g>
    </g>
    <g id="xtick_6">
     <g id="line2d_6">
      <g>
       <use xlink:href="#m366bd7eebc" x="256.154444" y="390.04" style="stroke: #000000; stroke-width: 0.8"/>
      </g>
     </g>
     <g id="text_6">
      <!-- 0.8 -->
      <g transform="translate(248.202882 404.638438) scale(0.1 -0.1)">
       <defs>
        <path id="DejaVuSans-38" d="M 2034 2216 
Q 1584 2216 1326 1975 
Q 1069 1734 1069 1313 
Q 1069 891 1326 650 
Q 1584 409 2034 409 
Q 2484 409 2743 651 
Q 3003 894 3003 1313 
Q 3003 1734 2745 1975 
Q 2488 2216 2034 2216 
z
M 1403 2484 
Q 997 2584 770 2862 
Q 544 3141 544 3541 
Q 544 4100 942 4425 
Q 1341 4750 2034 4750 
Q 2731 4750 3128 4425 
Q 3525 4100 3525 3541 
Q 3525 3141 3298 2862 
Q 3072 2584 2669 2484 
Q 3125 2378 3379 2068 
Q 3634 1759 3634 1313 
Q 3634 634 3220 271 
Q 2806 -91 2034 -91 
Q 1263 -91 848 271 
Q 434 634 434 1313 
Q 434 1759 690 2068 
Q 947 2378 1403 2484 
z
M 1172 3481 
Q 1172 3119 1398 2916 
Q 1625 2713 2034 2713 
Q 2441 2713 2670 2916 
Q 2900 3119 2900 3481 
Q 2900 3844 2670 4047 
Q 2441 4250 2034 4250 
Q 1625 4250 1398 4047 
Q 1172 3844 1172 3481 
z
" transform="scale(0.015625)"/>
       </defs>
       <use xlink:href="#DejaVuSans-30"/>
       <use xlink:href="#DejaVuSans-2e" transform="translate(63.623047 0)"/>
       <use xlink:href="#DejaVuSans-38" transform="translate(95.410156 0)"/>
      </g>
     </g>
    </g>
    <g id="xtick_7">
     <g id="line2d_7">
      <g>
       <use xlink:href="#m366bd7eebc" x="293.243333" y="390.04" style="stroke: #000000; stroke-width: 0.8"/>
      </g>
     </g>
     <g id="text_7">
      <!-- 0.9 -->
      <g transform="translate(285.291771 404.638438) scale(0.1 -0.1)">
       <defs>
        <path id="DejaVuSans-39" d="M 703 97 
L 703 672 
Q 941 559 1184 500 
Q 1428 441 1663 441 
Q 2288 441 2617 861 
Q 2947 1281 2994 2138 
Q 2813 1869 2534 1725 
Q 2256 1581 1919 1581 
Q 1219 1581 811 2004 
Q 403 2428 403 3163 
Q 403 3881 828 4315 
Q 1253 4750 1959 4750 
Q 2769 4750 3195 4129 
Q 3622 3509 3622 2328 
Q 3622 1225 3098 567 
Q 2575 -91 1691 -91 
Q 1453 -91 1209 -44 
Q 966 3 703 97 
z
M 1959 2075 
Q 2384 2075 2632 2365 
Q 2881 2656 2881 3163 
Q 2881 3666 2632 3958 
Q 2384 4250 1959 4250 
Q 1534 4250 1286 3958 
Q 1038 3666 1038 3163 
Q 1038 2656 1286 2365 
Q 1534 2075 1959 2075 
z
" transform="scale(0.015625)"/>
       </defs>
       <use xlink:href="#DejaVuSans-30"/>
       <use xlink:href="#DejaVuSans-2e" transform="translate(63.623047 0)"/>
       <use xlink:href="#DejaVuSans-39" transform="translate(95.410156 0)"/>
      </g>
     </g>
    </g>
    <g id="xtick_8">
     <g id="line2d_8">
      <g>
       <use xlink:href="#m366bd7eebc" x="330.332222" y="390.04" style="stroke: #000000; stroke-width: 0.8"/>
      </g>
     </g>
     <g id="text_8">
      <!-- 1.0 -->
      <g transform="translate(322.38066 404.638438) scale(0.1 -0.1)">
       <defs>
        <path id="DejaVuSans-31" d="M 794 531 
L 1825 531 
L 1825 4091 
L 703 3866 
L 703 4441 
L 1819 4666 
L 2450 4666 
L 2450 531 
L 3481 531 
L 3481 0 
L 794 0 
L 794 531 
z
" transform="scale(0.015625)"/>
       </defs>
       <use xlink:href="#DejaVuSans-31"/>
       <use xlink:href="#DejaVuSans-2e" transform="translate(63.623047 0)"/>
       <use xlink:href="#DejaVuSans-30" transform="translate(95.410156 0)"/>
      </g>
     </g>
    </g>
    <g id="xtick_9">
     <g id="line2d_9">
      <g>
       <use xlink:href="#m366bd7eebc" x="367.421111" y="390.04" style="stroke: #000000; stroke-width: 0.8"/>
      </g>
     </g>
     <g id="text_9">
      <!-- 1.1 -->
      <g transform="translate(359.469549 404.638438) scale(0.1 -0.1)">
       <use xlink:href="#DejaVuSans-31"/>
       <use xlink:href="#DejaVuSans-2e" transform="translate(63.623047 0)"/>
       <use xlink:href="#DejaVuSans-31" transform="translate(95.410156 0)"/>
      </g>
     </g>
    </g>
    <g id="xtick_10">
     <g id="line2d_10">
      <g>
       <use xlink:href="#m366bd7eebc" x="404.51" y="390.04" style="stroke: #000000; stroke-width: 0.8"/>
      </g>
     </g>
     <g id="text_10">
      <!-- 1.2 -->
      <g transform="translate(396.558438 404.638438) scale(0.1 -0.1)">
       <defs>
        <path id="DejaVuSans-32" d="M 1228 531 
L 3431 531 
L 3431 0 
L 469 0 
L 469 531 
Q 828 903 1448 1529 
Q 2069 2156 2228 2338 
Q 2531 2678 2651 2914 
Q 2772 3150 2772 3378 
Q 2772 3750 2511 3984 
Q 2250 4219 1831 4219 
Q 1534 4219 1204 4116 
Q 875 4013 500 3803 
L 500 4441 
Q 881 4594 1212 4672 
Q 1544 4750 1819 4750 
Q 2544 4750 2975 4387 
Q 3406 4025 3406 3419 
Q 3406 3131 3298 2873 
Q 3191 2616 2906 2266 
Q 2828 2175 2409 1742 
Q 1991 1309 1228 531 
z
" transform="scale(0.015625)"/>
       </defs>
       <use xlink:href="#DejaVuSans-31"/>
       <use xlink:href="#DejaVuSans-2e" transform="translate(63.623047 0)"/>
       <use xlink:href="#DejaVuSans-32" transform="translate(95.410156 0)"/>
      </g>
     </g>
    </g>
    <g id="text_11">
     <!-- VDD (V) -->
     <g transform="translate(217.57875 418.316562) scale(0.1 -0.1)">
      <defs>
       <path id="DejaVuSans-56" d="M 1831 0 
L 50 4666 
L 709 4666 
L 2188 738 
L 3669 4666 
L 4325 4666 
L 2547 0 
L 1831 0 
z
" transform="scale(0.015625)"/>
       <path id="DejaVuSans-44" d="M 1259 4147 
L 1259 519 
L 2022 519 
Q 2988 519 3436 956 
Q 3884 1394 3884 2338 
Q 3884 3275 3436 3711 
Q 2988 4147 2022 4147 
L 1259 4147 
z
M 628 4666 
L 1925 4666 
Q 3281 4666 3915 4102 
Q 4550 3538 4550 2338 
Q 4550 1131 3912 565 
Q 3275 0 1925 0 
L 628 0 
L 628 4666 
z
" transform="scale(0.015625)"/>
       <path id="DejaVuSans-20" transform="scale(0.015625)"/>
       <path id="DejaVuSans-28" d="M 1984 4856 
Q 1566 4138 1362 3434 
Q 1159 2731 1159 2009 
Q 1159 1288 1364 580 
Q 1569 -128 1984 -844 
L 1484 -844 
Q 1016 -109 783 600 
Q 550 1309 550 2009 
Q 550 2706 781 3412 
Q 1013 4119 1484 4856 
L 1984 4856 
z
" transform="scale(0.015625)"/>
       <path id="DejaVuSans-29" d="M 513 4856 
L 1013 4856 
Q 1481 4119 1714 3412 
Q 1947 2706 1947 2009 
Q 1947 1309 1714 600 
Q 1481 -109 1013 -844 
L 513 -844 
Q 928 -128 1133 580 
Q 1338 1288 1338 2009 
Q 1338 2731 1133 3434 
Q 928 4138 513 4856 
z
" transform="scale(0.015625)"/>
      </defs>
      <use xlink:href="#DejaVuSans-56"/>
      <use xlink:href="#DejaVuSans-44" transform="translate(68.408203 0)"/>
      <use xlink:href="#DejaVuSans-44" transform="translate(145.410156 0)"/>
      <use xlink:href="#DejaVuSans-20" transform="translate(222.412109 0)"/>
      <use xlink:href="#DejaVuSans-28" transform="translate(254.199219 0)"/>
      <use xlink:href="#DejaVuSans-56" transform="translate(293.212891 0)"/>
      <use xlink:href="#DejaVuSans-29" transform="translate(361.621094 0)"/>
     </g>
    </g>
   </g>
   <g id="matplotlib.axis_2">
    <g id="ytick_1">
     <g id="line2d_11">
      <defs>
       <path id="m90214d1860" d="M 0 0 
L -3.5 0 
" style="stroke: #000000; stroke-width: 0.8"/>
      </defs>
      <g>
       <use xlink:href="#m90214d1860" x="54.02" y="385.683984" style="stroke: #000000; stroke-width: 0.8"/>
      </g>
     </g>
     <g id="text_12">
      <!-- 0.00 -->
      <g transform="translate(24.754375 389.483202) scale(0.1 -0.1)">
       <use xlink:href="#DejaVuSans-30"/>
       <use xlink:href="#DejaVuSans-2e" transform="translate(63.623047 0)"/>
       <use xlink:href="#DejaVuSans-30" transform="translate(95.410156 0)"/>
       <use xlink:href="#DejaVuSans-30" transform="translate(159.033203 0)"/>
      </g>
     </g>
    </g>
    <g id="ytick_2">
     <g id="line2d_12">
      <g>
       <use xlink:href="#m90214d1860" x="54.02" y="313.047835" style="stroke: #000000; stroke-width: 0.8"/>
      </g>
     </g>
     <g id="text_13">
      <!-- 0.05 -->
      <g transform="translate(24.754375 316.847054) scale(0.1 -0.1)">
       <use xlink:href="#DejaVuSans-30"/>
       <use xlink:href="#DejaVuSans-2e" transform="translate(63.623047 0)"/>
       <use xlink:href="#DejaVuSans-30" transform="translate(95.410156 0)"/>
       <use xlink:href="#DejaVuSans-35" transform="translate(159.033203 0)"/>
      </g>
     </g>
    </g>
    <g id="ytick_3">
     <g id="line2d_13">
      <g>
       <use xlink:href="#m90214d1860" x="54.02" y="240.411686" style="stroke: #000000; stroke-width: 0.8"/>
      </g>
     </g>
     <g id="text_14">
      <!-- 0.10 -->
      <g transform="translate(24.754375 244.210905) scale(0.1 -0.1)">
       <use xlink:href="#DejaVuSans-30"/>
       <use xlink:href="#DejaVuSans-2e" transform="translate(63.623047 0)"/>
       <use xlink:href="#DejaVuSans-31" transform="translate(95.410156 0)"/>
       <use xlink:href="#DejaVuSans-30" transform="translate(159.033203 0)"/>
      </g>
     </g>
    </g>
    <g id="ytick_4">
     <g id="line2d_14">
      <g>
       <use xlink:href="#m90214d1860" x="54.02" y="167.775538" style="stroke: #000000; stroke-width: 0.8"/>
      </g>
     </g>
     <g id="text_15">
      <!-- 0.15 -->
      <g transform="translate(24.754375 171.574756) scale(0.1 -0.1)">
       <use xlink:href="#DejaVuSans-30"/>
       <use xlink:href="#DejaVuSans-2e" transform="translate(63.623047 0)"/>
       <use xlink:href="#DejaVuSans-31" transform="translate(95.410156 0)"/>
       <use xlink:href="#DejaVuSans-35" transform="translate(159.033203 0)"/>
      </g>
     </g>
    </g>
    <g id="ytick_5">
     <g id="line2d_15">
      <g>
       <use xlink:href="#m90214d1860" x="54.02" y="95.139389" style="stroke: #000000; stroke-width: 0.8"/>
      </g>
     </g>
     <g id="text_16">
      <!-- 0.20 -->
      <g transform="translate(24.754375 98.938608) scale(0.1 -0.1)">
       <use xlink:href="#DejaVuSans-30"/>
       <use xlink:href="#DejaVuSans-2e" transform="translate(63.623047 0)"/>
       <use xlink:href="#DejaVuSans-32" transform="translate(95.410156 0)"/>
       <use xlink:href="#DejaVuSans-30" transform="translate(159.033203 0)"/>
      </g>
     </g>
    </g>
    <g id="ytick_6">
     <g id="line2d_16">
      <g>
       <use xlink:href="#m90214d1860" x="54.02" y="22.50324" style="stroke: #000000; stroke-width: 0.8"/>
      </g>
     </g>
     <g id="text_17">
      <!-- 0.25 -->
      <g transform="translate(24.754375 26.302459) scale(0.1 -0.1)">
       <use xlink:href="#DejaVuSans-30"/>
       <use xlink:href="#DejaVuSans-2e" transform="translate(63.623047 0)"/>
       <use xlink:href="#DejaVuSans-32" transform="translate(95.410156 0)"/>
       <use xlink:href="#DejaVuSans-35" transform="translate(159.033203 0)"/>
      </g>
     </g>
    </g>
    <g id="text_18">
     <!-- SNM -->
     <g transform="translate(18.674688 211.648906) rotate(-90) scale(0.1 -0.1)">
      <defs>
       <path id="DejaVuSans-53" d="M 3425 4513 
L 3425 3897 
Q 3066 4069 2747 4153 
Q 2428 4238 2131 4238 
Q 1616 4238 1336 4038 
Q 1056 3838 1056 3469 
Q 1056 3159 1242 3001 
Q 1428 2844 1947 2747 
L 2328 2669 
Q 3034 2534 3370 2195 
Q 3706 1856 3706 1288 
Q 3706 609 3251 259 
Q 2797 -91 1919 -91 
Q 1588 -91 1214 -16 
Q 841 59 441 206 
L 441 856 
Q 825 641 1194 531 
Q 1563 422 1919 422 
Q 2459 422 2753 634 
Q 3047 847 3047 1241 
Q 3047 1584 2836 1778 
Q 2625 1972 2144 2069 
L 1759 2144 
Q 1053 2284 737 2584 
Q 422 2884 422 3419 
Q 422 4038 858 4394 
Q 1294 4750 2059 4750 
Q 2388 4750 2728 4690 
Q 3069 4631 3425 4513 
z
" transform="scale(0.015625)"/>
       <path id="DejaVuSans-4e" d="M 628 4666 
L 1478 4666 
L 3547 763 
L 3547 4666 
L 4159 4666 
L 4159 0 
L 3309 0 
L 1241 3903 
L 1241 0 
L 628 0 
L 628 4666 
z
" transform="scale(0.015625)"/>
       <path id="DejaVuSans-4d" d="M 628 4666 
L 1569 4666 
L 2759 1491 
L 3956 4666 
L 4897 4666 
L 4897 0 
L 4281 0 
L 4281 4097 
L 3078 897 
L 2444 897 
L 1241 4097 
L 1241 0 
L 628 0 
L 628 4666 
z
" transform="scale(0.015625)"/>
      </defs>
      <use xlink:href="#DejaVuSans-53"/>
      <use xlink:href="#DejaVuSans-4e" transform="translate(63.476562 0)"/>
      <use xlink:href="#DejaVuSans-4d" transform="translate(138.28125 0)"/>
     </g>
    </g>
   </g>
   <g id="line2d_17">
    <path d="M 404.51 106.388775 
L 367.421111 124.292721 
L 330.332222 141.789354 
L 293.243333 160.546213 
L 256.154444 188.489015 
L 219.065556 209.643444 
L 181.976667 241.631187 
L 144.887778 266.798081 
L 107.798889 296.35944 
L 70.71 331.905742 
" clip-path="url(#p868328a585)" style="fill: none; stroke: #000000; stroke-width: 2; stroke-linecap: square"/>
    <defs>
     <path id="maa080a08bf" d="M 0 4 
C 1.060812 4 2.078319 3.578535 2.828427 2.828427 
C 3.578535 2.078319 4 1.060812 4 0 
C 4 -1.060812 3.578535 -2.078319 2.828427 -2.828427 
C 2.078319 -3.578535 1.060812 -4 0 -4 
C -1.060812 -4 -2.078319 -3.578535 -2.828427 -2.828427 
C -3.578535 -2.078319 -4 -1.060812 -4 0 
C -4 1.060812 -3.578535 2.078319 -2.828427 2.828427 
C -2.078319 3.578535 -1.060812 4 0 4 
z
" style="stroke: #000000"/>
    </defs>
    <g clip-path="url(#p868328a585)">
     <use xlink:href="#maa080a08bf" x="404.51" y="106.388775" style="stroke: #000000"/>
     <use xlink:href="#maa080a08bf" x="367.421111" y="124.292721" style="stroke: #000000"/>
     <use xlink:href="#maa080a08bf" x="330.332222" y="141.789354" style="stroke: #000000"/>
     <use xlink:href="#maa080a08bf" x="293.243333" y="160.546213" style="stroke: #000000"/>
     <use xlink:href="#maa080a08bf" x="256.154444" y="188.489015" style="stroke: #000000"/>
     <use xlink:href="#maa080a08bf" x="219.065556" y="209.643444" style="stroke: #000000"/>
     <use xlink:href="#maa080a08bf" x="181.976667" y="241.631187" style="stroke: #000000"/>
     <use xlink:href="#maa080a08bf" x="144.887778" y="266.798081" style="stroke: #000000"/>
     <use xlink:href="#maa080a08bf" x="107.798889" y="296.35944" style="stroke: #000000"/>
     <use xlink:href="#maa080a08bf" x="70.71" y="331.905742" style="stroke: #000000"/>
    </g>
   </g>
   <g id="line2d_18">
    <path d="M 404.51 183.952634 
L 367.421111 197.342892 
L 330.332222 208.7072 
L 293.243333 220.828688 
L 256.154444 242.452996 
L 219.065556 254.195142 
L 181.976667 284.349856 
L 144.887778 297.964589 
L 107.798889 328.398534 
L 70.71 349.357103 
" clip-path="url(#p868328a585)" style="fill: none; stroke: #000000; stroke-width: 2; stroke-linecap: square"/>
    <defs>
     <path id="m3a0f260c89" d="M -4 4 
L 4 4 
L 4 -4 
L -4 -4 
z
" style="stroke: #000000; stroke-linejoin: miter"/>
    </defs>
    <g clip-path="url(#p868328a585)">
     <use xlink:href="#m3a0f260c89" x="404.51" y="183.952634" style="stroke: #000000; stroke-linejoin: miter"/>
     <use xlink:href="#m3a0f260c89" x="367.421111" y="197.342892" style="stroke: #000000; stroke-linejoin: miter"/>
     <use xlink:href="#m3a0f260c89" x="330.332222" y="208.7072" style="stroke: #000000; stroke-linejoin: miter"/>
     <use xlink:href="#m3a0f260c89" x="293.243333" y="220.828688" style="stroke: #000000; stroke-linejoin: miter"/>
     <use xlink:href="#m3a0f260c89" x="256.154444" y="242.452996" style="stroke: #000000; stroke-linejoin: miter"/>
     <use xlink:href="#m3a0f260c89" x="219.065556" y="254.195142" style="stroke: #000000; stroke-linejoin: miter"/>
     <use xlink:href="#m3a0f260c89" x="181.976667" y="284.349856" style="stroke: #000000; stroke-linejoin: miter"/>
     <use xlink:href="#m3a0f260c89" x="144.887778" y="297.964589" style="stroke: #000000; stroke-linejoin: miter"/>
     <use xlink:href="#m3a0f260c89" x="107.798889" y="328.398534" style="stroke: #000000; stroke-linejoin: miter"/>
     <use xlink:href="#m3a0f260c89" x="70.71" y="349.357103" style="stroke: #000000; stroke-linejoin: miter"/>
    </g>
   </g>
   <g id="line2d_19">
    <path d="M 404.51 48.386986 
L 367.421111 74.24463 
L 330.332222 96.286681 
L 293.243333 125.181245 
L 256.154444 153.836406 
L 219.065556 186.021018 
L 181.976667 211.640464 
L 144.887778 251.391661 
L 107.798889 272.379896 
L 70.71 318.481714 
" clip-path="url(#p868328a585)" style="fill: none; stroke: #000000; stroke-width: 2; stroke-linecap: square"/>
    <defs>
     <path id="m199df6ed2c" d="M 0 -4 
L -4 4 
L 4 4 
z
" style="stroke: #000000; stroke-linejoin: miter"/>
    </defs>
    <g clip-path="url(#p868328a585)">
     <use xlink:href="#m199df6ed2c" x="404.51" y="48.386986" style="stroke: #000000; stroke-linejoin: miter"/>
     <use xlink:href="#m199df6ed2c" x="367.421111" y="74.24463" style="stroke: #000000; stroke-linejoin: miter"/>
     <use xlink:href="#m199df6ed2c" x="330.332222" y="96.286681" style="stroke: #000000; stroke-linejoin: miter"/>
     <use xlink:href="#m199df6ed2c" x="293.243333" y="125.181245" style="stroke: #000000; stroke-linejoin: miter"/>
     <use xlink:href="#m199df6ed2c" x="256.154444" y="153.836406" style="stroke: #000000; stroke-linejoin: miter"/>
     <use xlink:href="#m199df6ed2c" x="219.065556" y="186.021018" style="stroke: #000000; stroke-linejoin: miter"/>
     <use xlink:href="#m199df6ed2c" x="181.976667" y="211.640464" style="stroke: #000000; stroke-linejoin: miter"/>
     <use xlink:href="#m199df6ed2c" x="144.887778" y="251.391661" style="stroke: #000000; stroke-linejoin: miter"/>
     <use xlink:href="#m199df6ed2c" x="107.798889" y="272.379896" style="stroke: #000000; stroke-linejoin: miter"/>
     <use xlink:href="#m199df6ed2c" x="70.71" y="318.481714" style="stroke: #000000; stroke-linejoin: miter"/>
    </g>
   </g>
   <g id="line2d_20">
    <path d="M 404.51 28.038182 
L 367.421111 42.011094 
L 330.332222 68.291087 
L 293.243333 92.316001 
L 256.154444 122.063932 
L 219.065556 150.361156 
L 181.976667 181.660373 
L 144.887778 206.221927 
L 107.798889 249.571444 
L 70.71 294.59417 
" clip-path="url(#p868328a585)" style="fill: none; stroke-dasharray: 7.4,3.2; stroke-dashoffset: 0; stroke: #000000; stroke-width: 2"/>
    <defs>
     <path id="me92e0d6c0f" d="M 0 5.656854 
L 3.394113 0 
L 0 -5.656854 
L -3.394113 0 
z
" style="stroke: #000000; stroke-linejoin: miter"/>
    </defs>
    <g clip-path="url(#p868328a585)">
     <use xlink:href="#me92e0d6c0f" x="404.51" y="28.038182" style="stroke: #000000; stroke-linejoin: miter"/>
     <use xlink:href="#me92e0d6c0f" x="367.421111" y="42.011094" style="stroke: #000000; stroke-linejoin: miter"/>
     <use xlink:href="#me92e0d6c0f" x="330.332222" y="68.291087" style="stroke: #000000; stroke-linejoin: miter"/>
     <use xlink:href="#me92e0d6c0f" x="293.243333" y="92.316001" style="stroke: #000000; stroke-linejoin: miter"/>
     <use xlink:href="#me92e0d6c0f" x="256.154444" y="122.063932" style="stroke: #000000; stroke-linejoin: miter"/>
     <use xlink:href="#me92e0d6c0f" x="219.065556" y="150.361156" style="stroke: #000000; stroke-linejoin: miter"/>
     <use xlink:href="#me92e0d6c0f" x="181.976667" y="181.660373" style="stroke: #000000; stroke-linejoin: miter"/>
     <use xlink:href="#me92e0d6c0f" x="144.887778" y="206.221927" style="stroke: #000000; stroke-linejoin: miter"/>
     <use xlink:href="#me92e0d6c0f" x="107.798889" y="249.571444" style="stroke: #000000; stroke-linejoin: miter"/>
     <use xlink:href="#me92e0d6c0f" x="70.71" y="294.59417" style="stroke: #000000; stroke-linejoin: miter"/>
    </g>
   </g>
   <g id="line2d_21">
    <path d="M 404.51 195.872153 
L 367.421111 205.578893 
L 330.332222 219.701976 
L 293.243333 239.484002 
L 256.154444 254.74178 
L 219.065556 282.075812 
L 181.976667 300.016959 
L 144.887778 333.415338 
L 107.798889 356.459026 
L 70.71 372.801818 
" clip-path="url(#p868328a585)" style="fill: none; stroke: #000000; stroke-width: 2; stroke-linecap: square"/>
    <defs>
     <path id="m901caffa9c" d="M -4 4 
L 4 -4 
M -4 -4 
L 4 4 
" style="stroke: #000000"/>
    </defs>
    <g clip-path="url(#p868328a585)">
     <use xlink:href="#m901caffa9c" x="404.51" y="195.872153" style="stroke: #000000"/>
     <use xlink:href="#m901caffa9c" x="367.421111" y="205.578893" style="stroke: #000000"/>
     <use xlink:href="#m901caffa9c" x="330.332222" y="219.701976" style="stroke: #000000"/>
     <use xlink:href="#m901caffa9c" x="293.243333" y="239.484002" style="stroke: #000000"/>
     <use xlink:href="#m901caffa9c" x="256.154444" y="254.74178" style="stroke: #000000"/>
     <use xlink:href="#m901caffa9c" x="219.065556" y="282.075812" style="stroke: #000000"/>
     <use xlink:href="#m901caffa9c" x="181.976667" y="300.016959" style="stroke: #000000"/>
     <use xlink:href="#m901caffa9c" x="144.887778" y="333.415338" style="stroke: #000000"/>
     <use xlink:href="#m901caffa9c" x="107.798889" y="356.459026" style="stroke: #000000"/>
     <use xlink:href="#m901caffa9c" x="70.71" y="372.801818" style="stroke: #000000"/>
    </g>
   </g>
   <g id="patch_3">
    <path d="M 54.02 390.04 
L 54.02 10.8 
" style="fill: none; stroke: #000000; stroke-width: 0.8; stroke-linejoin: miter; stroke-linecap: square"/>
   </g>
   <g id="patch_4">
    <path d="M 421.2 390.04 
L 421.2 10.8 
" style="fill: none; stroke: #000000; stroke-width: 0.8; stroke-linejoin: miter; stroke-linecap: square"/>
   </g>
   <g id="patch_5">
    <path d="M 54.02 390.04 
L 421.2 390.04 
" style="fill: none; stroke: #000000; stroke-width: 0.8; stroke-linejoin: miter; stroke-linecap: square"/>
   </g>
   <g id="patch_6">
    <path d="M 54.02 10.8 
L 421.2 10.8 
" style="fill: none; stroke: #000000; stroke-width: 0.8; stroke-linejoin: miter; stroke-linecap: square"/>
   </g>
   <g id="legend_1">
    <g id="patch_7">
     <path d="M 61.02 92.190625 
L 121.365313 92.190625 
Q 123.365313 92.190625 123.365313 90.190625 
L 123.365313 17.8 
Q 123.365313 15.8 121.365313 15.8 
L 61.02 15.8 
Q 59.02 15.8 59.02 17.8 
L 59.02 90.190625 
Q 59.02 92.190625 61.02 92.190625 
z
" style="fill: #ffffff; opacity: 0.8; stroke: #cccccc; stroke-linejoin: miter"/>
    </g>
    <g id="line2d_22">
     <path d="M 63.02 23.898438 
L 73.02 23.898438 
L 83.02 23.898438 
" style="fill: none; stroke: #000000; stroke-width: 2; stroke-linecap: square"/>
     <g>
      <use xlink:href="#maa080a08bf" x="73.02" y="23.898438" style="stroke: #000000"/>
     </g>
    </g>
    <g id="text_19">
     <!-- 6T TT -->
     <g transform="translate(91.02 27.398438) scale(0.1 -0.1)">
      <defs>
       <path id="DejaVuSans-54" d="M -19 4666 
L 3928 4666 
L 3928 4134 
L 2272 4134 
L 2272 0 
L 1638 0 
L 1638 4134 
L -19 4134 
L -19 4666 
z
" transform="scale(0.015625)"/>
      </defs>
      <use xlink:href="#DejaVuSans-36"/>
      <use xlink:href="#DejaVuSans-54" transform="translate(63.623047 0)"/>
      <use xlink:href="#DejaVuSans-20" transform="translate(124.707031 0)"/>
      <use xlink:href="#DejaVuSans-54" transform="translate(156.494141 0)"/>
      <use xlink:href="#DejaVuSans-54" transform="translate(215.828125 0)"/>
     </g>
    </g>
    <g id="line2d_23">
     <path d="M 63.02 38.576563 
L 73.02 38.576563 
L 83.02 38.576563 
" style="fill: none; stroke: #000000; stroke-width: 2; stroke-linecap: square"/>
     <g>
      <use xlink:href="#m3a0f260c89" x="73.02" y="38.576563" style="stroke: #000000; stroke-linejoin: miter"/>
     </g>
    </g>
    <g id="text_20">
     <!-- 6T FF -->
     <g transform="translate(91.02 42.076563) scale(0.1 -0.1)">
      <defs>
       <path id="DejaVuSans-46" d="M 628 4666 
L 3309 4666 
L 3309 4134 
L 1259 4134 
L 1259 2759 
L 3109 2759 
L 3109 2228 
L 1259 2228 
L 1259 0 
L 628 0 
L 628 4666 
z
" transform="scale(0.015625)"/>
      </defs>
      <use xlink:href="#DejaVuSans-36"/>
      <use xlink:href="#DejaVuSans-54" transform="translate(63.623047 0)"/>
      <use xlink:href="#DejaVuSans-20" transform="translate(124.707031 0)"/>
      <use xlink:href="#DejaVuSans-46" transform="translate(156.494141 0)"/>
      <use xlink:href="#DejaVuSans-46" transform="translate(214.013672 0)"/>
     </g>
    </g>
    <g id="line2d_24">
     <path d="M 63.02 53.254687 
L 73.02 53.254687 
L 83.02 53.254687 
" style="fill: none; stroke: #000000; stroke-width: 2; stroke-linecap: square"/>
     <g>
      <use xlink:href="#m199df6ed2c" x="73.02" y="53.254687" style="stroke: #000000; stroke-linejoin: miter"/>
     </g>
    </g>
    <g id="text_21">
     <!-- 6T SS -->
     <g transform="translate(91.02 56.754687) scale(0.1 -0.1)">
      <use xlink:href="#DejaVuSans-36"/>
      <use xlink:href="#DejaVuSans-54" transform="translate(63.623047 0)"/>
      <use xlink:href="#DejaVuSans-20" transform="translate(124.707031 0)"/>
      <use xlink:href="#DejaVuSans-53" transform="translate(156.494141 0)"/>
      <use xlink:href="#DejaVuSans-53" transform="translate(219.970703 0)"/>
     </g>
    </g>
    <g id="line2d_25">
     <path d="M 63.02 67.932813 
L 73.02 67.932813 
L 83.02 67.932813 
" style="fill: none; stroke-dasharray: 7.4,3.2; stroke-dashoffset: 0; stroke: #000000; stroke-width: 2"/>
     <g>
      <use xlink:href="#me92e0d6c0f" x="73.02" y="67.932813" style="stroke: #000000; stroke-linejoin: miter"/>
     </g>
    </g>
    <g id="text_22">
     <!-- 6T SF -->
     <g transform="translate(91.02 71.432813) scale(0.1 -0.1)">
      <use xlink:href="#DejaVuSans-36"/>
      <use xlink:href="#DejaVuSans-54" transform="translate(63.623047 0)"/>
      <use xlink:href="#DejaVuSans-20" transform="translate(124.707031 0)"/>
      <use xlink:href="#DejaVuSans-53" transform="translate(156.494141 0)"/>
      <use xlink:href="#DejaVuSans-46" transform="translate(219.970703 0)"/>
     </g>
    </g>
    <g id="line2d_26">
     <path d="M 63.02 82.610937 
L 73.02 82.610937 
L 83.02 82.610937 
" style="fill: none; stroke: #000000; stroke-width: 2; stroke-linecap: square"/>
     <g>
      <use xlink:href="#m901caffa9c" x="73.02" y="82.610937" style="stroke: #000000"/>
     </g>
    </g>
    <g id="text_23">
     <!-- 6T FS -->
     <g transform="translate(91.02 86.110937) scale(0.1 -0.1)">
      <use xlink:href="#DejaVuSans-36"/>
      <use xlink:href="#DejaVuSans-54" transform="translate(63.623047 0)"/>
      <use xlink:href="#DejaVuSans-20" transform="translate(124.707031 0)"/>
      <use xlink:href="#DejaVuSans-46" transform="translate(156.494141 0)"/>
      <use xlink:href="#DejaVuSans-53" transform="translate(212.263672 0)"/>
     </g>
    </g>
   </g>
  </g>
 </g>
 <defs>
  <clipPath id="p868328a585">
   <rect x="54.02" y="10.8" width="367.18" height="379.24"/>
  </clipPath>
 </defs>
</svg>
