<?xml version="1.0" encoding="utf-8" standalone="no"?>
<!DOCTYPE svg PUBLIC "-//W3C//DTD SVG 1.1//EN"
  "http://www.w3.org/Graphics/SVG/1.1/DTD/svg11.dtd">
<svg xmlns:xlink="http://www.w3.org/1999/xlink" width="576pt" height="432pt" viewBox="0 0 576 432" xmlns="http://www.w3.org/2000/svg" version="1.1">
 <metadata>
  <rdf:RDF xmlns:dc="http://purl.org/dc/elements/1.1/" xmlns:cc="http://creativecommons.org/ns#" xmlns:rdf="http://www.w3.org/1999/02/22-rdf-syntax-ns#">
   <cc:Work>
    <dc:type rdf:resource="http://purl.org/dc/dcmitype/StillImage"/>
    <dc:date>2025-05-08T14:53:41.505363</dc:date>
    <dc:format>image/svg+xml</dc:format>
    <dc:creator>
     <cc:Agent>
      <dc:title>Matplotlib v3.10.1, https://matplotlib.org/</dc:title>
     </cc:Agent>
    </dc:creator>
   </cc:Work>
  </rdf:RDF>
 </metadata>
 <defs>
  <style type="text/css">*{stroke-linejoin: round; stroke-linecap: butt}</style>
 </defs>
 <g id="figure_1">
  <g id="patch_1">
   <path d="M 0 432 
L 576 432 
L 576 0 
L 0 0 
z
" style="fill: #ffffff"/>
  </g>
  <g id="axes_1">
   <g id="patch_2">
    <path d="M 40.12 179.44 
L 565.2 179.44 
L 565.2 26.88 
L 40.12 26.88 
z
" style="fill: #ffffff"/>
   </g>
   <g id="matplotlib.axis_1">
    <g id="xtick_1">
     <g id="line2d_1">
      <defs>
       <path id="m767402f4bd" d="M 0 0 
L 0 3.5 
" style="stroke: #000000; stroke-width: 0.8"/>
      </defs>
      <g>
       <use xlink:href="#m767402f4bd" x="40.12" y="179.44" style="stroke: #000000; stroke-width: 0.8"/>
      </g>
     </g>
     <g id="text_1">
      <!-- 0.0 -->
      <g transform="translate(32.168438 194.038437) scale(0.1 -0.1)">
       <defs>
        <path id="DejaVuSans-30" d="M 2034 4250 
Q 1547 4250 1301 3770 
Q 1056 3291 1056 2328 
Q 1056 1369 1301 889 
Q 1547 409 2034 409 
Q 2525 409 2770 889 
Q 3016 1369 3016 2328 
Q 3016 3291 2770 3770 
Q 2525 4250 2034 4250 
z
M 2034 4750 
Q 2819 4750 3233 4129 
Q 3647 3509 3647 2328 
Q 3647 1150 3233 529 
Q 2819 -91 2034 -91 
Q 1250 -91 836 529 
Q 422 1150 422 2328 
Q 422 3509 836 4129 
Q 1250 4750 2034 4750 
z
" transform="scale(0.015625)"/>
        <path id="DejaVuSans-2e" d="M 684 794 
L 1344 794 
L 1344 0 
L 684 0 
L 684 794 
z
" transform="scale(0.015625)"/>
       </defs>
       <use xlink:href="#DejaVuSans-30"/>
       <use xlink:href="#DejaVuSans-2e" transform="translate(63.623047 0)"/>
       <use xlink:href="#DejaVuSans-30" transform="translate(95.410156 0)"/>
      </g>
     </g>
    </g>
    <g id="xtick_2">
     <g id="line2d_2">
      <g>
       <use xlink:href="#m767402f4bd" x="124.1328" y="179.44" style="stroke: #000000; stroke-width: 0.8"/>
      </g>
     </g>
     <g id="text_2">
      <!-- 0.2 -->
      <g transform="translate(116.181238 194.038437) scale(0.1 -0.1)">
       <defs>
        <path id="DejaVuSans-32" d="M 1228 531 
L 3431 531 
L 3431 0 
L 469 0 
L 469 531 
Q 828 903 1448 1529 
Q 2069 2156 2228 2338 
Q 2531 2678 2651 2914 
Q 2772 3150 2772 3378 
Q 2772 3750 2511 3984 
Q 2250 4219 1831 4219 
Q 1534 4219 1204 4116 
Q 875 4013 500 3803 
L 500 4441 
Q 881 4594 1212 4672 
Q 1544 4750 1819 4750 
Q 2544 4750 2975 4387 
Q 3406 4025 3406 3419 
Q 3406 3131 3298 2873 
Q 3191 2616 2906 2266 
Q 2828 2175 2409 1742 
Q 1991 1309 1228 531 
z
" transform="scale(0.015625)"/>
       </defs>
       <use xlink:href="#DejaVuSans-30"/>
       <use xlink:href="#DejaVuSans-2e" transform="translate(63.623047 0)"/>
       <use xlink:href="#DejaVuSans-32" transform="translate(95.410156 0)"/>
      </g>
     </g>
    </g>
    <g id="xtick_3">
     <g id="line2d_3">
      <g>
       <use xlink:href="#m767402f4bd" x="208.1456" y="179.44" style="stroke: #000000; stroke-width: 0.8"/>
      </g>
     </g>
     <g id="text_3">
      <!-- 0.4 -->
      <g transform="translate(200.194038 194.038437) scale(0.1 -0.1)">
       <defs>
        <path id="DejaVuSans-34" d="M 2419 4116 
L 825 1625 
L 2419 1625 
L 2419 4116 
z
M 2253 4666 
L 3047 4666 
L 3047 1625 
L 3713 1625 
L 3713 1100 
L 3047 1100 
L 3047 0 
L 2419 0 
L 2419 1100 
L 313 1100 
L 313 1709 
L 2253 4666 
z
" transform="scale(0.015625)"/>
       </defs>
       <use xlink:href="#DejaVuSans-30"/>
       <use xlink:href="#DejaVuSans-2e" transform="translate(63.623047 0)"/>
       <use xlink:href="#DejaVuSans-34" transform="translate(95.410156 0)"/>
      </g>
     </g>
    </g>
    <g id="xtick_4">
     <g id="line2d_4">
      <g>
       <use xlink:href="#m767402f4bd" x="292.1584" y="179.44" style="stroke: #000000; stroke-width: 0.8"/>
      </g>
     </g>
     <g id="text_4">
      <!-- 0.6 -->
      <g transform="translate(284.206838 194.038437) scale(0.1 -0.1)">
       <defs>
        <path id="DejaVuSans-36" d="M 2113 2584 
Q 1688 2584 1439 2293 
Q 1191 2003 1191 1497 
Q 1191 994 1439 701 
Q 1688 409 2113 409 
Q 2538 409 2786 701 
Q 3034 994 3034 1497 
Q 3034 2003 2786 2293 
Q 2538 2584 2113 2584 
z
M 3366 4563 
L 3366 3988 
Q 3128 4100 2886 4159 
Q 2644 4219 2406 4219 
Q 1781 4219 1451 3797 
Q 1122 3375 1075 2522 
Q 1259 2794 1537 2939 
Q 1816 3084 2150 3084 
Q 2853 3084 3261 2657 
Q 3669 2231 3669 1497 
Q 3669 778 3244 343 
Q 2819 -91 2113 -91 
Q 1303 -91 875 529 
Q 447 1150 447 2328 
Q 447 3434 972 4092 
Q 1497 4750 2381 4750 
Q 2619 4750 2861 4703 
Q 3103 4656 3366 4563 
z
" transform="scale(0.015625)"/>
       </defs>
       <use xlink:href="#DejaVuSans-30"/>
       <use xlink:href="#DejaVuSans-2e" transform="translate(63.623047 0)"/>
       <use xlink:href="#DejaVuSans-36" transform="translate(95.410156 0)"/>
      </g>
     </g>
    </g>
    <g id="xtick_5">
     <g id="line2d_5">
      <g>
       <use xlink:href="#m767402f4bd" x="376.1712" y="179.44" style="stroke: #000000; stroke-width: 0.8"/>
      </g>
     </g>
     <g id="text_5">
      <!-- 0.8 -->
      <g transform="translate(368.219637 194.038437) scale(0.1 -0.1)">
       <defs>
        <path id="DejaVuSans-38" d="M 2034 2216 
Q 1584 2216 1326 1975 
Q 1069 1734 1069 1313 
Q 1069 891 1326 650 
Q 1584 409 2034 409 
Q 2484 409 2743 651 
Q 3003 894 3003 1313 
Q 3003 1734 2745 1975 
Q 2488 2216 2034 2216 
z
M 1403 2484 
Q 997 2584 770 2862 
Q 544 3141 544 3541 
Q 544 4100 942 4425 
Q 1341 4750 2034 4750 
Q 2731 4750 3128 4425 
Q 3525 4100 3525 3541 
Q 3525 3141 3298 2862 
Q 3072 2584 2669 2484 
Q 3125 2378 3379 2068 
Q 3634 1759 3634 1313 
Q 3634 634 3220 271 
Q 2806 -91 2034 -91 
Q 1263 -91 848 271 
Q 434 634 434 1313 
Q 434 1759 690 2068 
Q 947 2378 1403 2484 
z
M 1172 3481 
Q 1172 3119 1398 2916 
Q 1625 2713 2034 2713 
Q 2441 2713 2670 2916 
Q 2900 3119 2900 3481 
Q 2900 3844 2670 4047 
Q 2441 4250 2034 4250 
Q 1625 4250 1398 4047 
Q 1172 3844 1172 3481 
z
" transform="scale(0.015625)"/>
       </defs>
       <use xlink:href="#DejaVuSans-30"/>
       <use xlink:href="#DejaVuSans-2e" transform="translate(63.623047 0)"/>
       <use xlink:href="#DejaVuSans-38" transform="translate(95.410156 0)"/>
      </g>
     </g>
    </g>
    <g id="xtick_6">
     <g id="line2d_6">
      <g>
       <use xlink:href="#m767402f4bd" x="460.184" y="179.44" style="stroke: #000000; stroke-width: 0.8"/>
      </g>
     </g>
     <g id="text_6">
      <!-- 1.0 -->
      <g transform="translate(452.232437 194.038437) scale(0.1 -0.1)">
       <defs>
        <path id="DejaVuSans-31" d="M 794 531 
L 1825 531 
L 1825 4091 
L 703 3866 
L 703 4441 
L 1819 4666 
L 2450 4666 
L 2450 531 
L 3481 531 
L 3481 0 
L 794 0 
L 794 531 
z
" transform="scale(0.015625)"/>
       </defs>
       <use xlink:href="#DejaVuSans-31"/>
       <use xlink:href="#DejaVuSans-2e" transform="translate(63.623047 0)"/>
       <use xlink:href="#DejaVuSans-30" transform="translate(95.410156 0)"/>
      </g>
     </g>
    </g>
    <g id="xtick_7">
     <g id="line2d_7">
      <g>
       <use xlink:href="#m767402f4bd" x="544.1968" y="179.44" style="stroke: #000000; stroke-width: 0.8"/>
      </g>
     </g>
     <g id="text_7">
      <!-- 1.2 -->
      <g transform="translate(536.245238 194.038437) scale(0.1 -0.1)">
       <use xlink:href="#DejaVuSans-31"/>
       <use xlink:href="#DejaVuSans-2e" transform="translate(63.623047 0)"/>
       <use xlink:href="#DejaVuSans-32" transform="translate(95.410156 0)"/>
      </g>
     </g>
    </g>
    <g id="text_8">
     <!-- WL [V] -->
     <g transform="translate(286.019375 207.716562) scale(0.1 -0.1)">
      <defs>
       <path id="DejaVuSans-57" d="M 213 4666 
L 850 4666 
L 1831 722 
L 2809 4666 
L 3519 4666 
L 4500 722 
L 5478 4666 
L 6119 4666 
L 4947 0 
L 4153 0 
L 3169 4050 
L 2175 0 
L 1381 0 
L 213 4666 
z
" transform="scale(0.015625)"/>
       <path id="DejaVuSans-4c" d="M 628 4666 
L 1259 4666 
L 1259 531 
L 3531 531 
L 3531 0 
L 628 0 
L 628 4666 
z
" transform="scale(0.015625)"/>
       <path id="DejaVuSans-20" transform="scale(0.015625)"/>
       <path id="DejaVuSans-5b" d="M 550 4863 
L 1875 4863 
L 1875 4416 
L 1125 4416 
L 1125 -397 
L 1875 -397 
L 1875 -844 
L 550 -844 
L 550 4863 
z
" transform="scale(0.015625)"/>
       <path id="DejaVuSans-56" d="M 1831 0 
L 50 4666 
L 709 4666 
L 2188 738 
L 3669 4666 
L 4325 4666 
L 2547 0 
L 1831 0 
z
" transform="scale(0.015625)"/>
       <path id="DejaVuSans-5d" d="M 1947 4863 
L 1947 -844 
L 622 -844 
L 622 -397 
L 1369 -397 
L 1369 4416 
L 622 4416 
L 622 4863 
L 1947 4863 
z
" transform="scale(0.015625)"/>
      </defs>
      <use xlink:href="#DejaVuSans-57"/>
      <use xlink:href="#DejaVuSans-4c" transform="translate(98.876953 0)"/>
      <use xlink:href="#DejaVuSans-20" transform="translate(154.589844 0)"/>
      <use xlink:href="#DejaVuSans-5b" transform="translate(186.376953 0)"/>
      <use xlink:href="#DejaVuSans-56" transform="translate(225.390625 0)"/>
      <use xlink:href="#DejaVuSans-5d" transform="translate(293.798828 0)"/>
     </g>
    </g>
   </g>
   <g id="matplotlib.axis_2">
    <g id="ytick_1">
     <g id="line2d_8">
      <defs>
       <path id="m50df167e38" d="M 0 0 
L -3.5 0 
" style="stroke: #000000; stroke-width: 0.8"/>
      </defs>
      <g>
       <use xlink:href="#m50df167e38" x="40.12" y="173.572308" style="stroke: #000000; stroke-width: 0.8"/>
      </g>
     </g>
     <g id="text_9">
      <!-- 0V -->
      <g transform="translate(19.916875 177.371526) scale(0.1 -0.1)">
       <use xlink:href="#DejaVuSans-30"/>
       <use xlink:href="#DejaVuSans-56" transform="translate(63.623047 0)"/>
      </g>
     </g>
    </g>
    <g id="ytick_2">
     <g id="line2d_9">
      <g>
       <use xlink:href="#m50df167e38" x="40.12" y="32.747692" style="stroke: #000000; stroke-width: 0.8"/>
      </g>
     </g>
     <g id="text_10">
      <!-- VDD -->
      <g transform="translate(10.879375 36.546911) scale(0.1 -0.1)">
       <defs>
        <path id="DejaVuSans-44" d="M 1259 4147 
L 1259 519 
L 2022 519 
Q 2988 519 3436 956 
Q 3884 1394 3884 2338 
Q 3884 3275 3436 3711 
Q 2988 4147 2022 4147 
L 1259 4147 
z
M 628 4666 
L 1925 4666 
Q 3281 4666 3915 4102 
Q 4550 3538 4550 2338 
Q 4550 1131 3912 565 
Q 3275 0 1925 0 
L 628 0 
L 628 4666 
z
" transform="scale(0.015625)"/>
       </defs>
       <use xlink:href="#DejaVuSans-56"/>
       <use xlink:href="#DejaVuSans-44" transform="translate(68.408203 0)"/>
       <use xlink:href="#DejaVuSans-44" transform="translate(145.410156 0)"/>
      </g>
     </g>
    </g>
   </g>
   <g id="line2d_10">
    <path d="M 40.12 32.747642 
L 44.324141 32.747615 
L 48.394388 32.747624 
L 52.854082 32.747637 
L 61.773471 32.747678 
L 79.61225 32.747894 
L 104.81609 32.749278 
L 130.01993 32.756565 
L 155.22377 32.791436 
L 180.42761 32.930326 
L 193.738423 33.102487 
L 206.118422 33.367143 
L 216.898247 33.708491 
L 225.543313 34.075828 
L 233.131026 34.479294 
L 240.077407 34.924273 
L 246.48609 35.40606 
L 252.516511 35.927619 
L 258.287298 36.493421 
L 263.865364 37.106359 
L 269.306021 37.770201 
L 274.656798 38.489691 
L 279.956193 39.270116 
L 285.238143 40.117695 
L 290.534484 41.039944 
L 295.875998 42.045992 
L 301.29384 43.147122 
L 306.821216 44.35761 
L 312.495315 45.695996 
L 318.360151 47.187162 
L 324.471292 48.866004 
L 330.904592 50.784444 
L 337.774689 53.026534 
L 345.281968 55.747212 
L 352.446803 58.674856 
L 358.523833 61.495174 
L 363.610567 64.186945 
L 367.842291 66.75618 
L 371.315884 69.195357 
L 374.147175 71.517077 
L 376.438533 73.737798 
L 377.742839 75.206094 
L 380.249174 78.847577 
L 380.773743 79.795068 
L 381.822879 82.395812 
L 382.059906 83.087023 
L 382.178419 83.511369 
L 382.415445 84.523955 
L 382.533958 85.161992 
L 382.592779 85.522365 
L 382.71042 86.435932 
L 382.749284 86.828379 
L 382.827013 87.856141 
L 382.854147 88.336189 
L 382.908415 89.789258 
L 382.921693 90.293481 
L 382.948249 91.704062 
L 382.962552 92.830382 
L 382.982101 95.321172 
L 382.991519 97.171821 
L 383.002558 100.522844 
L 383.008311 103.073343 
L 383.014561 107.043946 
L 383.019611 111.854237 
L 383.023329 116.922196 
L 383.026456 122.809848 
L 383.02898 129.172288 
L 383.02991 131.951244 
L 383.031016 135.627321 
L 383.031885 138.830901 
L 383.032558 141.506769 
L 383.033181 144.13823 
L 383.033781 146.79541 
L 383.034438 149.819199 
L 383.034982 152.368996 
L 383.035584 155.184337 
L 383.036127 157.630759 
L 383.036642 159.791248 
L 383.037192 161.845152 
L 383.03777 163.686116 
L 383.038364 165.260167 
L 383.038982 166.595172 
L 383.039662 167.761041 
L 383.04053 168.887448 
L 383.0415 169.802304 
L 383.042377 170.421282 
L 383.043221 170.899451 
L 383.044086 171.309221 
L 383.044947 171.65734 
L 383.045858 171.971793 
L 383.046877 172.26719 
L 383.04807 172.54911 
L 383.049508 172.813667 
L 383.05125 173.048725 
L 383.053156 173.226871 
L 383.055232 173.355189 
L 383.057528 173.444497 
L 383.06011 173.503625 
L 383.063083 173.540406 
L 383.066598 173.561071 
L 383.07087 173.570879 
L 383.076278 173.574152 
L 383.083449 173.57402 
L 383.09367 173.573046 
L 383.110207 173.572386 
L 383.143281 173.572271 
L 383.20943 173.572364 
L 383.326809 173.572418 
L 383.561566 173.572276 
L 384.031081 173.572274 
L 384.97011 173.572274 
L 386.848169 173.572275 
L 390.604286 173.572275 
L 398.11652 173.572275 
L 413.140988 173.572276 
L 438.344828 173.572278 
L 463.548668 173.572279 
L 488.752508 173.57228 
L 513.956348 173.572281 
L 539.160188 173.572282 
L 544.1968 173.572282 
" clip-path="url(#p32e62382fc)" style="fill: none; stroke: #000000; stroke-width: 3; stroke-linecap: square"/>
   </g>
   <g id="line2d_11">
    <path d="M 40.12 173.572289 
L 44.324141 173.57227 
L 48.394388 173.572266 
L 52.854082 173.57226 
L 61.773471 173.572241 
L 79.61225 173.572143 
L 104.81609 173.571513 
L 130.01993 173.568202 
L 155.22377 173.552424 
L 180.42761 173.490353 
L 193.738423 173.414948 
L 206.118422 173.301452 
L 216.898247 173.158472 
L 225.543313 173.008274 
L 233.131026 172.846914 
L 240.077407 172.672679 
L 246.48609 172.4878 
L 252.516511 172.291437 
L 258.287298 172.082205 
L 263.865364 171.859321 
L 269.306021 171.621672 
L 274.656798 171.36779 
L 279.956193 171.096012 
L 285.238143 170.804342 
L 290.534484 170.490328 
L 295.875998 170.150948 
L 301.29384 169.782428 
L 306.821216 169.379946 
L 312.495315 168.937194 
L 318.360151 168.445647 
L 324.471292 167.893281 
L 330.904592 167.262115 
L 337.774689 166.522914 
L 345.281968 165.621557 
L 352.446803 164.644086 
L 358.523833 163.693153 
L 363.610567 162.77516 
L 367.842291 161.887427 
L 371.315884 161.0318 
L 374.147175 160.202791 
L 376.438533 159.392892 
L 377.742839 158.846867 
L 380.249174 157.435193 
L 380.773743 157.059007 
L 381.822879 155.967653 
L 382.059906 155.673858 
L 382.178419 155.486157 
L 382.415445 155.032129 
L 382.533958 154.738826 
L 382.592779 154.571406 
L 382.71042 154.137534 
L 382.749284 153.950572 
L 382.827013 153.446089 
L 382.854147 153.203304 
L 382.908415 152.454194 
L 382.921693 152.19019 
L 382.948249 151.430014 
L 382.962552 150.810102 
L 382.982101 149.394069 
L 382.991519 148.311851 
L 383.002558 146.28728 
L 383.008311 144.694663 
L 383.014561 142.108762 
L 383.019611 138.781321 
L 383.023329 135.021111 
L 383.026456 130.295296 
L 383.02898 124.762663 
L 383.02991 122.235648 
L 383.031016 118.776326 
L 383.031885 115.651942 
L 383.032558 112.962256 
L 383.033181 110.238847 
L 383.033781 107.395943 
L 383.034438 104.01563 
L 383.034982 101.006946 
L 383.035584 97.442205 
L 383.036127 94.028556 
L 383.036642 90.620565 
L 383.037192 86.834297 
L 383.03777 82.753909 
L 383.038364 78.520808 
L 383.038982 74.172843 
L 383.039662 69.580046 
L 383.04053 64.179155 
L 383.0415 58.894811 
L 383.042377 54.812693 
L 383.043221 51.448609 
L 383.044086 48.508496 
L 383.044947 46.01634 
L 383.045858 43.788282 
L 383.046877 41.71841 
L 383.04807 39.760877 
L 383.049508 37.935786 
L 383.05125 36.321278 
L 383.053156 35.101395 
L 383.055232 34.224958 
L 383.057528 33.617012 
L 383.06011 33.214568 
L 383.063083 32.964573 
L 383.066598 32.823748 
L 383.07087 32.757193 
L 383.076278 32.735695 
L 383.083449 32.736222 
L 383.09367 32.742882 
L 383.110207 32.747396 
L 383.143281 32.748242 
L 383.20943 32.747724 
L 383.326809 32.747567 
L 383.561566 32.747574 
L 384.031081 32.747581 
L 384.97011 32.74758 
L 386.848169 32.74758 
L 390.604286 32.74758 
L 398.11652 32.74758 
L 413.140988 32.74758 
L 438.344828 32.747581 
L 463.548668 32.747581 
L 488.752508 32.747581 
L 513.956348 32.747581 
L 539.160188 32.747581 
L 544.1968 32.747581 
" clip-path="url(#p32e62382fc)" style="fill: none; stroke-dasharray: 11.1,4.8; stroke-dashoffset: 0; stroke: #000000; stroke-opacity: 0.5; stroke-width: 3"/>
   </g>
   <g id="patch_3">
    <path d="M 40.12 179.44 
L 40.12 26.88 
" style="fill: none; stroke: #000000; stroke-width: 0.8; stroke-linejoin: miter; stroke-linecap: square"/>
   </g>
   <g id="patch_4">
    <path d="M 565.2 179.44 
L 565.2 26.88 
" style="fill: none; stroke: #000000; stroke-width: 0.8; stroke-linejoin: miter; stroke-linecap: square"/>
   </g>
   <g id="patch_5">
    <path d="M 40.12 179.44 
L 565.2 179.44 
" style="fill: none; stroke: #000000; stroke-width: 0.8; stroke-linejoin: miter; stroke-linecap: square"/>
   </g>
   <g id="patch_6">
    <path d="M 40.12 26.88 
L 565.2 26.88 
" style="fill: none; stroke: #000000; stroke-width: 0.8; stroke-linejoin: miter; stroke-linecap: square"/>
   </g>
   <g id="text_11">
    <g id="patch_7">
     <path d="M 393.126483 106.16 
L 458.662421 106.16 
Q 461.662421 106.16 461.662421 103.16 
L 461.662421 93.481875 
Q 461.662421 90.481875 458.662421 90.481875 
L 393.126483 90.481875 
Q 390.126483 90.481875 390.126483 93.481875 
L 390.126483 103.16 
Q 390.126483 106.16 393.126483 106.16 
z
" style="fill: #ffffff; stroke: #000000; stroke-linejoin: miter"/>
    </g>
    <!-- WM = 0.38 V -->
    <g transform="translate(393.126483 101.080312) scale(0.1 -0.1)">
     <defs>
      <path id="DejaVuSans-4d" d="M 628 4666 
L 1569 4666 
L 2759 1491 
L 3956 4666 
L 4897 4666 
L 4897 0 
L 4281 0 
L 4281 4097 
L 3078 897 
L 2444 897 
L 1241 4097 
L 1241 0 
L 628 0 
L 628 4666 
z
" transform="scale(0.015625)"/>
      <path id="DejaVuSans-3d" d="M 678 2906 
L 4684 2906 
L 4684 2381 
L 678 2381 
L 678 2906 
z
M 678 1631 
L 4684 1631 
L 4684 1100 
L 678 1100 
L 678 1631 
z
" transform="scale(0.015625)"/>
      <path id="DejaVuSans-33" d="M 2597 2516 
Q 3050 2419 3304 2112 
Q 3559 1806 3559 1356 
Q 3559 666 3084 287 
Q 2609 -91 1734 -91 
Q 1441 -91 1130 -33 
Q 819 25 488 141 
L 488 750 
Q 750 597 1062 519 
Q 1375 441 1716 441 
Q 2309 441 2620 675 
Q 2931 909 2931 1356 
Q 2931 1769 2642 2001 
Q 2353 2234 1838 2234 
L 1294 2234 
L 1294 2753 
L 1863 2753 
Q 2328 2753 2575 2939 
Q 2822 3125 2822 3475 
Q 2822 3834 2567 4026 
Q 2313 4219 1838 4219 
Q 1578 4219 1281 4162 
Q 984 4106 628 3988 
L 628 4550 
Q 988 4650 1302 4700 
Q 1616 4750 1894 4750 
Q 2613 4750 3031 4423 
Q 3450 4097 3450 3541 
Q 3450 3153 3228 2886 
Q 3006 2619 2597 2516 
z
" transform="scale(0.015625)"/>
     </defs>
     <use xlink:href="#DejaVuSans-57"/>
     <use xlink:href="#DejaVuSans-4d" transform="translate(98.876953 0)"/>
     <use xlink:href="#DejaVuSans-20" transform="translate(185.15625 0)"/>
     <use xlink:href="#DejaVuSans-3d" transform="translate(216.943359 0)"/>
     <use xlink:href="#DejaVuSans-20" transform="translate(300.732422 0)"/>
     <use xlink:href="#DejaVuSans-30" transform="translate(332.519531 0)"/>
     <use xlink:href="#DejaVuSans-2e" transform="translate(396.142578 0)"/>
     <use xlink:href="#DejaVuSans-33" transform="translate(427.929688 0)"/>
     <use xlink:href="#DejaVuSans-38" transform="translate(491.552734 0)"/>
     <use xlink:href="#DejaVuSans-20" transform="translate(555.175781 0)"/>
     <use xlink:href="#DejaVuSans-56" transform="translate(586.962891 0)"/>
    </g>
   </g>
   <g id="text_12">
    <!-- Standard Write (No Floating Supply) -->
    <g transform="translate(194.509062 20.88) scale(0.12 -0.12)">
     <defs>
      <path id="DejaVuSans-53" d="M 3425 4513 
L 3425 3897 
Q 3066 4069 2747 4153 
Q 2428 4238 2131 4238 
Q 1616 4238 1336 4038 
Q 1056 3838 1056 3469 
Q 1056 3159 1242 3001 
Q 1428 2844 1947 2747 
L 2328 2669 
Q 3034 2534 3370 2195 
Q 3706 1856 3706 1288 
Q 3706 609 3251 259 
Q 2797 -91 1919 -91 
Q 1588 -91 1214 -16 
Q 841 59 441 206 
L 441 856 
Q 825 641 1194 531 
Q 1563 422 1919 422 
Q 2459 422 2753 634 
Q 3047 847 3047 1241 
Q 3047 1584 2836 1778 
Q 2625 1972 2144 2069 
L 1759 2144 
Q 1053 2284 737 2584 
Q 422 2884 422 3419 
Q 422 4038 858 4394 
Q 1294 4750 2059 4750 
Q 2388 4750 2728 4690 
Q 3069 4631 3425 4513 
z
" transform="scale(0.015625)"/>
      <path id="DejaVuSans-74" d="M 1172 4494 
L 1172 3500 
L 2356 3500 
L 2356 3053 
L 1172 3053 
L 1172 1153 
Q 1172 725 1289 603 
Q 1406 481 1766 481 
L 2356 481 
L 2356 0 
L 1766 0 
Q 1100 0 847 248 
Q 594 497 594 1153 
L 594 3053 
L 172 3053 
L 172 3500 
L 594 3500 
L 594 4494 
L 1172 4494 
z
" transform="scale(0.015625)"/>
      <path id="DejaVuSans-61" d="M 2194 1759 
Q 1497 1759 1228 1600 
Q 959 1441 959 1056 
Q 959 750 1161 570 
Q 1363 391 1709 391 
Q 2188 391 2477 730 
Q 2766 1069 2766 1631 
L 2766 1759 
L 2194 1759 
z
M 3341 1997 
L 3341 0 
L 2766 0 
L 2766 531 
Q 2569 213 2275 61 
Q 1981 -91 1556 -91 
Q 1019 -91 701 211 
Q 384 513 384 1019 
Q 384 1609 779 1909 
Q 1175 2209 1959 2209 
L 2766 2209 
L 2766 2266 
Q 2766 2663 2505 2880 
Q 2244 3097 1772 3097 
Q 1472 3097 1187 3025 
Q 903 2953 641 2809 
L 641 3341 
Q 956 3463 1253 3523 
Q 1550 3584 1831 3584 
Q 2591 3584 2966 3190 
Q 3341 2797 3341 1997 
z
" transform="scale(0.015625)"/>
      <path id="DejaVuSans-6e" d="M 3513 2113 
L 3513 0 
L 2938 0 
L 2938 2094 
Q 2938 2591 2744 2837 
Q 2550 3084 2163 3084 
Q 1697 3084 1428 2787 
Q 1159 2491 1159 1978 
L 1159 0 
L 581 0 
L 581 3500 
L 1159 3500 
L 1159 2956 
Q 1366 3272 1645 3428 
Q 1925 3584 2291 3584 
Q 2894 3584 3203 3211 
Q 3513 2838 3513 2113 
z
" transform="scale(0.015625)"/>
      <path id="DejaVuSans-64" d="M 2906 2969 
L 2906 4863 
L 3481 4863 
L 3481 0 
L 2906 0 
L 2906 525 
Q 2725 213 2448 61 
Q 2172 -91 1784 -91 
Q 1150 -91 751 415 
Q 353 922 353 1747 
Q 353 2572 751 3078 
Q 1150 3584 1784 3584 
Q 2172 3584 2448 3432 
Q 2725 3281 2906 2969 
z
M 947 1747 
Q 947 1113 1208 752 
Q 1469 391 1925 391 
Q 2381 391 2643 752 
Q 2906 1113 2906 1747 
Q 2906 2381 2643 2742 
Q 2381 3103 1925 3103 
Q 1469 3103 1208 2742 
Q 947 2381 947 1747 
z
" transform="scale(0.015625)"/>
      <path id="DejaVuSans-72" d="M 2631 2963 
Q 2534 3019 2420 3045 
Q 2306 3072 2169 3072 
Q 1681 3072 1420 2755 
Q 1159 2438 1159 1844 
L 1159 0 
L 581 0 
L 581 3500 
L 1159 3500 
L 1159 2956 
Q 1341 3275 1631 3429 
Q 1922 3584 2338 3584 
Q 2397 3584 2469 3576 
Q 2541 3569 2628 3553 
L 2631 2963 
z
" transform="scale(0.015625)"/>
      <path id="DejaVuSans-69" d="M 603 3500 
L 1178 3500 
L 1178 0 
L 603 0 
L 603 3500 
z
M 603 4863 
L 1178 4863 
L 1178 4134 
L 603 4134 
L 603 4863 
z
" transform="scale(0.015625)"/>
      <path id="DejaVuSans-65" d="M 3597 1894 
L 3597 1613 
L 953 1613 
Q 991 1019 1311 708 
Q 1631 397 2203 397 
Q 2534 397 2845 478 
Q 3156 559 3463 722 
L 3463 178 
Q 3153 47 2828 -22 
Q 2503 -91 2169 -91 
Q 1331 -91 842 396 
Q 353 884 353 1716 
Q 353 2575 817 3079 
Q 1281 3584 2069 3584 
Q 2775 3584 3186 3129 
Q 3597 2675 3597 1894 
z
M 3022 2063 
Q 3016 2534 2758 2815 
Q 2500 3097 2075 3097 
Q 1594 3097 1305 2825 
Q 1016 2553 972 2059 
L 3022 2063 
z
" transform="scale(0.015625)"/>
      <path id="DejaVuSans-28" d="M 1984 4856 
Q 1566 4138 1362 3434 
Q 1159 2731 1159 2009 
Q 1159 1288 1364 580 
Q 1569 -128 1984 -844 
L 1484 -844 
Q 1016 -109 783 600 
Q 550 1309 550 2009 
Q 550 2706 781 3412 
Q 1013 4119 1484 4856 
L 1984 4856 
z
" transform="scale(0.015625)"/>
      <path id="DejaVuSans-4e" d="M 628 4666 
L 1478 4666 
L 3547 763 
L 3547 4666 
L 4159 4666 
L 4159 0 
L 3309 0 
L 1241 3903 
L 1241 0 
L 628 0 
L 628 4666 
z
" transform="scale(0.015625)"/>
      <path id="DejaVuSans-6f" d="M 1959 3097 
Q 1497 3097 1228 2736 
Q 959 2375 959 1747 
Q 959 1119 1226 758 
Q 1494 397 1959 397 
Q 2419 397 2687 759 
Q 2956 1122 2956 1747 
Q 2956 2369 2687 2733 
Q 2419 3097 1959 3097 
z
M 1959 3584 
Q 2709 3584 3137 3096 
Q 3566 2609 3566 1747 
Q 3566 888 3137 398 
Q 2709 -91 1959 -91 
Q 1206 -91 779 398 
Q 353 888 353 1747 
Q 353 2609 779 3096 
Q 1206 3584 1959 3584 
z
" transform="scale(0.015625)"/>
      <path id="DejaVuSans-46" d="M 628 4666 
L 3309 4666 
L 3309 4134 
L 1259 4134 
L 1259 2759 
L 3109 2759 
L 3109 2228 
L 1259 2228 
L 1259 0 
L 628 0 
L 628 4666 
z
" transform="scale(0.015625)"/>
      <path id="DejaVuSans-6c" d="M 603 4863 
L 1178 4863 
L 1178 0 
L 603 0 
L 603 4863 
z
" transform="scale(0.015625)"/>
      <path id="DejaVuSans-67" d="M 2906 1791 
Q 2906 2416 2648 2759 
Q 2391 3103 1925 3103 
Q 1463 3103 1205 2759 
Q 947 2416 947 1791 
Q 947 1169 1205 825 
Q 1463 481 1925 481 
Q 2391 481 2648 825 
Q 2906 1169 2906 1791 
z
M 3481 434 
Q 3481 -459 3084 -895 
Q 2688 -1331 1869 -1331 
Q 1566 -1331 1297 -1286 
Q 1028 -1241 775 -1147 
L 775 -588 
Q 1028 -725 1275 -790 
Q 1522 -856 1778 -856 
Q 2344 -856 2625 -561 
Q 2906 -266 2906 331 
L 2906 616 
Q 2728 306 2450 153 
Q 2172 0 1784 0 
Q 1141 0 747 490 
Q 353 981 353 1791 
Q 353 2603 747 3093 
Q 1141 3584 1784 3584 
Q 2172 3584 2450 3431 
Q 2728 3278 2906 2969 
L 2906 3500 
L 3481 3500 
L 3481 434 
z
" transform="scale(0.015625)"/>
      <path id="DejaVuSans-75" d="M 544 1381 
L 544 3500 
L 1119 3500 
L 1119 1403 
Q 1119 906 1312 657 
Q 1506 409 1894 409 
Q 2359 409 2629 706 
Q 2900 1003 2900 1516 
L 2900 3500 
L 3475 3500 
L 3475 0 
L 2900 0 
L 2900 538 
Q 2691 219 2414 64 
Q 2138 -91 1772 -91 
Q 1169 -91 856 284 
Q 544 659 544 1381 
z
M 1991 3584 
L 1991 3584 
z
" transform="scale(0.015625)"/>
      <path id="DejaVuSans-70" d="M 1159 525 
L 1159 -1331 
L 581 -1331 
L 581 3500 
L 1159 3500 
L 1159 2969 
Q 1341 3281 1617 3432 
Q 1894 3584 2278 3584 
Q 2916 3584 3314 3078 
Q 3713 2572 3713 1747 
Q 3713 922 3314 415 
Q 2916 -91 2278 -91 
Q 1894 -91 1617 61 
Q 1341 213 1159 525 
z
M 3116 1747 
Q 3116 2381 2855 2742 
Q 2594 3103 2138 3103 
Q 1681 3103 1420 2742 
Q 1159 2381 1159 1747 
Q 1159 1113 1420 752 
Q 1681 391 2138 391 
Q 2594 391 2855 752 
Q 3116 1113 3116 1747 
z
" transform="scale(0.015625)"/>
      <path id="DejaVuSans-79" d="M 2059 -325 
Q 1816 -950 1584 -1140 
Q 1353 -1331 966 -1331 
L 506 -1331 
L 506 -850 
L 844 -850 
Q 1081 -850 1212 -737 
Q 1344 -625 1503 -206 
L 1606 56 
L 191 3500 
L 800 3500 
L 1894 763 
L 2988 3500 
L 3597 3500 
L 2059 -325 
z
" transform="scale(0.015625)"/>
      <path id="DejaVuSans-29" d="M 513 4856 
L 1013 4856 
Q 1481 4119 1714 3412 
Q 1947 2706 1947 2009 
Q 1947 1309 1714 600 
Q 1481 -109 1013 -844 
L 513 -844 
Q 928 -128 1133 580 
Q 1338 1288 1338 2009 
Q 1338 2731 1133 3434 
Q 928 4138 513 4856 
z
" transform="scale(0.015625)"/>
     </defs>
     <use xlink:href="#DejaVuSans-53"/>
     <use xlink:href="#DejaVuSans-74" transform="translate(63.476562 0)"/>
     <use xlink:href="#DejaVuSans-61" transform="translate(102.685547 0)"/>
     <use xlink:href="#DejaVuSans-6e" transform="translate(163.964844 0)"/>
     <use xlink:href="#DejaVuSans-64" transform="translate(227.34375 0)"/>
     <use xlink:href="#DejaVuSans-61" transform="translate(290.820312 0)"/>
     <use xlink:href="#DejaVuSans-72" transform="translate(352.099609 0)"/>
     <use xlink:href="#DejaVuSans-64" transform="translate(391.462891 0)"/>
     <use xlink:href="#DejaVuSans-20" transform="translate(454.939453 0)"/>
     <use xlink:href="#DejaVuSans-57" transform="translate(486.726562 0)"/>
     <use xlink:href="#DejaVuSans-72" transform="translate(581.103516 0)"/>
     <use xlink:href="#DejaVuSans-69" transform="translate(622.216797 0)"/>
     <use xlink:href="#DejaVuSans-74" transform="translate(650 0)"/>
     <use xlink:href="#DejaVuSans-65" transform="translate(689.208984 0)"/>
     <use xlink:href="#DejaVuSans-20" transform="translate(750.732422 0)"/>
     <use xlink:href="#DejaVuSans-28" transform="translate(782.519531 0)"/>
     <use xlink:href="#DejaVuSans-4e" transform="translate(821.533203 0)"/>
     <use xlink:href="#DejaVuSans-6f" transform="translate(896.337891 0)"/>
     <use xlink:href="#DejaVuSans-20" transform="translate(957.519531 0)"/>
     <use xlink:href="#DejaVuSans-46" transform="translate(989.306641 0)"/>
     <use xlink:href="#DejaVuSans-6c" transform="translate(1046.826172 0)"/>
     <use xlink:href="#DejaVuSans-6f" transform="translate(1074.609375 0)"/>
     <use xlink:href="#DejaVuSans-61" transform="translate(1135.791016 0)"/>
     <use xlink:href="#DejaVuSans-74" transform="translate(1197.070312 0)"/>
     <use xlink:href="#DejaVuSans-69" transform="translate(1236.279297 0)"/>
     <use xlink:href="#DejaVuSans-6e" transform="translate(1264.0625 0)"/>
     <use xlink:href="#DejaVuSans-67" transform="translate(1327.441406 0)"/>
     <use xlink:href="#DejaVuSans-20" transform="translate(1390.917969 0)"/>
     <use xlink:href="#DejaVuSans-53" transform="translate(1422.705078 0)"/>
     <use xlink:href="#DejaVuSans-75" transform="translate(1486.181641 0)"/>
     <use xlink:href="#DejaVuSans-70" transform="translate(1549.560547 0)"/>
     <use xlink:href="#DejaVuSans-70" transform="translate(1613.037109 0)"/>
     <use xlink:href="#DejaVuSans-6c" transform="translate(1676.513672 0)"/>
     <use xlink:href="#DejaVuSans-79" transform="translate(1704.296875 0)"/>
     <use xlink:href="#DejaVuSans-29" transform="translate(1763.476562 0)"/>
    </g>
   </g>
   <g id="legend_1">
    <g id="patch_8">
     <path d="M 511.467187 64.23625 
L 558.2 64.23625 
Q 560.2 64.23625 560.2 62.23625 
L 560.2 33.88 
Q 560.2 31.88 558.2 31.88 
L 511.467187 31.88 
Q 509.467187 31.88 509.467187 33.88 
L 509.467187 62.23625 
Q 509.467187 64.23625 511.467187 64.23625 
z
" style="fill: #ffffff; opacity: 0.8; stroke: #cccccc; stroke-linejoin: miter"/>
    </g>
    <g id="line2d_12">
     <path d="M 513.467187 39.978437 
L 523.467187 39.978437 
L 533.467187 39.978437 
" style="fill: none; stroke: #000000; stroke-width: 3; stroke-linecap: square"/>
    </g>
    <g id="text_13">
     <!-- Q -->
     <g transform="translate(541.467187 43.478437) scale(0.1 -0.1)">
      <defs>
       <path id="DejaVuSans-51" d="M 2522 4238 
Q 1834 4238 1429 3725 
Q 1025 3213 1025 2328 
Q 1025 1447 1429 934 
Q 1834 422 2522 422 
Q 3209 422 3611 934 
Q 4013 1447 4013 2328 
Q 4013 3213 3611 3725 
Q 3209 4238 2522 4238 
z
M 3406 84 
L 4238 -825 
L 3475 -825 
L 2784 -78 
Q 2681 -84 2626 -87 
Q 2572 -91 2522 -91 
Q 1538 -91 948 567 
Q 359 1225 359 2328 
Q 359 3434 948 4092 
Q 1538 4750 2522 4750 
Q 3503 4750 4090 4092 
Q 4678 3434 4678 2328 
Q 4678 1516 4351 937 
Q 4025 359 3406 84 
z
" transform="scale(0.015625)"/>
      </defs>
      <use xlink:href="#DejaVuSans-51"/>
     </g>
    </g>
    <g id="line2d_13">
     <path d="M 513.467187 54.656563 
L 523.467187 54.656563 
L 533.467187 54.656563 
" style="fill: none; stroke-dasharray: 11.1,4.8; stroke-dashoffset: 0; stroke: #000000; stroke-opacity: 0.5; stroke-width: 3"/>
    </g>
    <g id="text_14">
     <!-- QB -->
     <g transform="translate(541.467187 58.156563) scale(0.1 -0.1)">
      <defs>
       <path id="DejaVuSans-42" d="M 1259 2228 
L 1259 519 
L 2272 519 
Q 2781 519 3026 730 
Q 3272 941 3272 1375 
Q 3272 1813 3026 2020 
Q 2781 2228 2272 2228 
L 1259 2228 
z
M 1259 4147 
L 1259 2741 
L 2194 2741 
Q 2656 2741 2882 2914 
Q 3109 3088 3109 3444 
Q 3109 3797 2882 3972 
Q 2656 4147 2194 4147 
L 1259 4147 
z
M 628 4666 
L 2241 4666 
Q 2963 4666 3353 4366 
Q 3744 4066 3744 3513 
Q 3744 3084 3544 2831 
Q 3344 2578 2956 2516 
Q 3422 2416 3680 2098 
Q 3938 1781 3938 1306 
Q 3938 681 3513 340 
Q 3088 0 2303 0 
L 628 0 
L 628 4666 
z
" transform="scale(0.015625)"/>
      </defs>
      <use xlink:href="#DejaVuSans-51"/>
      <use xlink:href="#DejaVuSans-42" transform="translate(78.710938 0)"/>
     </g>
    </g>
   </g>
  </g>
  <g id="axes_2">
   <g id="patch_9">
    <path d="M 40.12 390.04 
L 565.2 390.04 
L 565.2 237.48 
L 40.12 237.48 
z
" style="fill: #ffffff"/>
   </g>
   <g id="matplotlib.axis_3">
    <g id="xtick_8">
     <g id="line2d_14">
      <g>
       <use xlink:href="#m767402f4bd" x="40.12" y="390.04" style="stroke: #000000; stroke-width: 0.8"/>
      </g>
     </g>
     <g id="text_15">
      <!-- 0.0 -->
      <g transform="translate(32.168438 404.638437) scale(0.1 -0.1)">
       <use xlink:href="#DejaVuSans-30"/>
       <use xlink:href="#DejaVuSans-2e" transform="translate(63.623047 0)"/>
       <use xlink:href="#DejaVuSans-30" transform="translate(95.410156 0)"/>
      </g>
     </g>
    </g>
    <g id="xtick_9">
     <g id="line2d_15">
      <g>
       <use xlink:href="#m767402f4bd" x="124.1328" y="390.04" style="stroke: #000000; stroke-width: 0.8"/>
      </g>
     </g>
     <g id="text_16">
      <!-- 0.2 -->
      <g transform="translate(116.181238 404.638437) scale(0.1 -0.1)">
       <use xlink:href="#DejaVuSans-30"/>
       <use xlink:href="#DejaVuSans-2e" transform="translate(63.623047 0)"/>
       <use xlink:href="#DejaVuSans-32" transform="translate(95.410156 0)"/>
      </g>
     </g>
    </g>
    <g id="xtick_10">
     <g id="line2d_16">
      <g>
       <use xlink:href="#m767402f4bd" x="208.1456" y="390.04" style="stroke: #000000; stroke-width: 0.8"/>
      </g>
     </g>
     <g id="text_17">
      <!-- 0.4 -->
      <g transform="translate(200.194038 404.638437) scale(0.1 -0.1)">
       <use xlink:href="#DejaVuSans-30"/>
       <use xlink:href="#DejaVuSans-2e" transform="translate(63.623047 0)"/>
       <use xlink:href="#DejaVuSans-34" transform="translate(95.410156 0)"/>
      </g>
     </g>
    </g>
    <g id="xtick_11">
     <g id="line2d_17">
      <g>
       <use xlink:href="#m767402f4bd" x="292.1584" y="390.04" style="stroke: #000000; stroke-width: 0.8"/>
      </g>
     </g>
     <g id="text_18">
      <!-- 0.6 -->
      <g transform="translate(284.206838 404.638437) scale(0.1 -0.1)">
       <use xlink:href="#DejaVuSans-30"/>
       <use xlink:href="#DejaVuSans-2e" transform="translate(63.623047 0)"/>
       <use xlink:href="#DejaVuSans-36" transform="translate(95.410156 0)"/>
      </g>
     </g>
    </g>
    <g id="xtick_12">
     <g id="line2d_18">
      <g>
       <use xlink:href="#m767402f4bd" x="376.1712" y="390.04" style="stroke: #000000; stroke-width: 0.8"/>
      </g>
     </g>
     <g id="text_19">
      <!-- 0.8 -->
      <g transform="translate(368.219637 404.638437) scale(0.1 -0.1)">
       <use xlink:href="#DejaVuSans-30"/>
       <use xlink:href="#DejaVuSans-2e" transform="translate(63.623047 0)"/>
       <use xlink:href="#DejaVuSans-38" transform="translate(95.410156 0)"/>
      </g>
     </g>
    </g>
    <g id="xtick_13">
     <g id="line2d_19">
      <g>
       <use xlink:href="#m767402f4bd" x="460.184" y="390.04" style="stroke: #000000; stroke-width: 0.8"/>
      </g>
     </g>
     <g id="text_20">
      <!-- 1.0 -->
      <g transform="translate(452.232437 404.638437) scale(0.1 -0.1)">
       <use xlink:href="#DejaVuSans-31"/>
       <use xlink:href="#DejaVuSans-2e" transform="translate(63.623047 0)"/>
       <use xlink:href="#DejaVuSans-30" transform="translate(95.410156 0)"/>
      </g>
     </g>
    </g>
    <g id="xtick_14">
     <g id="line2d_20">
      <g>
       <use xlink:href="#m767402f4bd" x="544.1968" y="390.04" style="stroke: #000000; stroke-width: 0.8"/>
      </g>
     </g>
     <g id="text_21">
      <!-- 1.2 -->
      <g transform="translate(536.245238 404.638437) scale(0.1 -0.1)">
       <use xlink:href="#DejaVuSans-31"/>
       <use xlink:href="#DejaVuSans-2e" transform="translate(63.623047 0)"/>
       <use xlink:href="#DejaVuSans-32" transform="translate(95.410156 0)"/>
      </g>
     </g>
    </g>
    <g id="text_22">
     <!-- WL [V] -->
     <g transform="translate(286.019375 418.316562) scale(0.1 -0.1)">
      <use xlink:href="#DejaVuSans-57"/>
      <use xlink:href="#DejaVuSans-4c" transform="translate(98.876953 0)"/>
      <use xlink:href="#DejaVuSans-20" transform="translate(154.589844 0)"/>
      <use xlink:href="#DejaVuSans-5b" transform="translate(186.376953 0)"/>
      <use xlink:href="#DejaVuSans-56" transform="translate(225.390625 0)"/>
      <use xlink:href="#DejaVuSans-5d" transform="translate(293.798828 0)"/>
     </g>
    </g>
   </g>
   <g id="matplotlib.axis_4">
    <g id="ytick_3">
     <g id="line2d_21">
      <g>
       <use xlink:href="#m50df167e38" x="40.12" y="384.172308" style="stroke: #000000; stroke-width: 0.8"/>
      </g>
     </g>
     <g id="text_23">
      <!-- 0V -->
      <g transform="translate(19.916875 387.971526) scale(0.1 -0.1)">
       <use xlink:href="#DejaVuSans-30"/>
       <use xlink:href="#DejaVuSans-56" transform="translate(63.623047 0)"/>
      </g>
     </g>
    </g>
    <g id="ytick_4">
     <g id="line2d_22">
      <g>
       <use xlink:href="#m50df167e38" x="40.12" y="243.347692" style="stroke: #000000; stroke-width: 0.8"/>
      </g>
     </g>
     <g id="text_24">
      <!-- VDD -->
      <g transform="translate(10.879375 247.146911) scale(0.1 -0.1)">
       <use xlink:href="#DejaVuSans-56"/>
       <use xlink:href="#DejaVuSans-44" transform="translate(68.408203 0)"/>
       <use xlink:href="#DejaVuSans-44" transform="translate(145.410156 0)"/>
      </g>
     </g>
    </g>
   </g>
   <g id="line2d_23">
    <path d="M 40.12 243.347642 
L 44.324141 243.347308 
L 45.160768 243.347306 
L 45.227674 243.346907 
L 45.327359 243.346678 
L 45.444548 243.346628 
L 45.678924 243.346634 
L 46.147677 243.34665 
L 47.085182 243.346653 
L 48.960194 243.346653 
L 52.710216 243.346655 
L 60.210261 243.346671 
L 75.210352 243.346784 
L 105.210532 243.348349 
L 165.210894 243.447168 
L 180.946885 243.600655 
L 195.631877 243.908456 
L 205.042089 244.247821 
L 223.074395 245.435763 
L 241.109886 247.963138 
L 250.182059 250.27481 
L 258.965604 254.002102 
L 263.11064 256.782341 
L 267.267972 260.93563 
L 270.707392 266.130137 
L 273.359583 271.603345 
L 276.002654 278.341669 
L 278.323901 285.134768 
L 280.649039 292.645 
L 282.785559 300.346012 
L 284.66401 308.498934 
L 285.384804 312.379344 
L 286.127231 317.185055 
L 286.756985 322.105355 
L 287.281125 326.848663 
L 287.513223 329.144645 
L 287.960331 334.081204 
L 288.088161 335.662306 
L 288.343821 339.465121 
L 288.447549 341.390837 
L 288.582614 344.645149 
L 288.658657 347.058451 
L 288.737627 350.321737 
L 288.807089 354.114846 
L 288.866374 358.191613 
L 288.889648 360.011179 
L 288.920012 362.563735 
L 288.943156 364.636121 
L 288.960574 366.263955 
L 288.976197 367.771058 
L 288.990446 369.181665 
L 289.004185 370.570243 
L 289.018452 372.032141 
L 289.035562 373.783753 
L 289.046278 374.859262 
L 289.057887 375.979207 
L 289.068312 376.923887 
L 289.077771 377.716338 
L 289.0875 378.456965 
L 289.098212 379.179345 
L 289.110795 379.903953 
L 289.127083 380.657116 
L 289.146234 381.313866 
L 289.166051 381.786165 
L 289.182423 382.055469 
L 289.197716 382.236763 
L 289.2133 382.374556 
L 289.229773 382.487314 
L 289.248024 382.588531 
L 289.268945 382.686304 
L 289.293625 382.786823 
L 289.323494 382.893729 
L 289.360708 383.009538 
L 289.408176 383.134117 
L 289.470117 383.265787 
L 289.552202 383.401818 
L 289.662125 383.541361 
L 289.808654 383.691234 
L 289.963918 383.841863 
L 290.095418 383.963913 
L 290.247142 384.070913 
L 290.407618 384.13309 
L 290.52636 384.15323 
L 290.644928 384.163092 
L 290.779658 384.168647 
L 290.942901 384.171394 
L 291.153193 384.172391 
L 291.438266 384.17253 
L 291.852262 384.172244 
L 292.496688 384.172037 
L 293.785541 384.171987 
L 296.363245 384.172008 
L 300.994028 384.172017 
L 310.255593 384.172019 
L 328.778723 384.172024 
L 365.824982 384.172037 
L 439.917502 384.172004 
L 494.083456 384.172002 
L 544.1968 384.17202 
" clip-path="url(#pb69dc3dbb8)" style="fill: none; stroke: #000000; stroke-width: 3; stroke-linecap: square"/>
   </g>
   <g id="line2d_24">
    <path d="M 40.12 384.172289 
L 44.324141 384.172124 
L 45.160768 384.172123 
L 45.227674 384.172053 
L 45.327359 384.172098 
L 45.444548 384.172129 
L 45.678924 384.17213 
L 46.147677 384.172123 
L 47.085182 384.172121 
L 48.960194 384.172119 
L 52.710216 384.172114 
L 60.210261 384.172099 
L 75.210352 384.172032 
L 105.210532 384.171345 
L 165.210894 384.136486 
L 180.946885 384.088117 
L 195.631877 384.000525 
L 205.042089 383.913051 
L 223.074395 383.651437 
L 241.109886 383.225819 
L 250.182059 382.929682 
L 258.965604 382.563073 
L 263.11064 382.350118 
L 267.267972 382.082217 
L 270.707392 381.786215 
L 273.359583 381.473731 
L 276.002654 381.033402 
L 278.323901 380.476222 
L 280.649039 379.646818 
L 282.785559 378.422553 
L 284.66401 376.448925 
L 285.384804 375.136749 
L 286.127231 373.054651 
L 286.756985 370.383243 
L 287.281125 367.54721 
L 287.513223 366.154083 
L 287.960331 363.190256 
L 288.088161 362.241044 
L 288.343821 359.883222 
L 288.447549 358.621131 
L 288.582614 356.303256 
L 288.658657 354.408232 
L 288.737627 351.561423 
L 288.807089 347.810828 
L 288.866374 343.264121 
L 288.889648 341.089869 
L 288.920012 337.896564 
L 288.943156 335.207927 
L 288.960574 333.05797 
L 288.976197 331.054533 
L 288.990446 329.179476 
L 289.004185 327.339295 
L 289.018452 325.404759 
L 289.035562 323.062034 
L 289.046278 321.583921 
L 289.057887 319.973918 
L 289.068312 318.520764 
L 289.077771 317.197531 
L 289.0875 315.834145 
L 289.098212 314.334481 
L 289.110795 312.583116 
L 289.127083 310.352484 
L 289.146234 307.814378 
L 289.166051 305.317614 
L 289.182423 303.36836 
L 289.197716 301.642828 
L 289.2133 299.973757 
L 289.229773 298.29686 
L 289.248024 296.528231 
L 289.268945 294.595662 
L 289.293625 292.420209 
L 289.323494 289.905778 
L 289.360708 286.914572 
L 289.408176 283.280417 
L 289.470117 278.790993 
L 289.552202 273.228002 
L 289.662125 266.425605 
L 289.808654 258.578349 
L 289.963918 252.11872 
L 290.095418 248.337116 
L 290.247142 245.702852 
L 290.407618 244.289209 
L 290.52636 243.796393 
L 290.644928 243.551015 
L 290.779658 243.420181 
L 290.942901 243.356313 
L 291.153193 243.332375 
L 291.438266 243.331314 
L 291.852262 243.33737 
L 292.496688 243.341908 
L 293.785541 243.342942 
L 296.363245 243.342242 
L 300.994028 243.341501 
L 310.255593 243.340132 
L 328.778723 243.335432 
L 365.824982 243.302002 
L 439.917502 242.700851 
L 494.083456 241.857496 
L 544.1968 240.951062 
" clip-path="url(#pb69dc3dbb8)" style="fill: none; stroke-dasharray: 11.1,4.8; stroke-dashoffset: 0; stroke: #000000; stroke-opacity: 0.5; stroke-width: 3"/>
   </g>
   <g id="patch_10">
    <path d="M 40.12 390.04 
L 40.12 237.48 
" style="fill: none; stroke: #000000; stroke-width: 0.8; stroke-linejoin: miter; stroke-linecap: square"/>
   </g>
   <g id="patch_11">
    <path d="M 565.2 390.04 
L 565.2 237.48 
" style="fill: none; stroke: #000000; stroke-width: 0.8; stroke-linejoin: miter; stroke-linecap: square"/>
   </g>
   <g id="patch_12">
    <path d="M 40.12 390.04 
L 565.2 390.04 
" style="fill: none; stroke: #000000; stroke-width: 0.8; stroke-linejoin: miter; stroke-linecap: square"/>
   </g>
   <g id="patch_13">
    <path d="M 40.12 237.48 
L 565.2 237.48 
" style="fill: none; stroke: #000000; stroke-width: 0.8; stroke-linejoin: miter; stroke-linecap: square"/>
   </g>
   <g id="text_25">
    <g id="patch_14">
     <path d="M 300.045454 316.76 
L 365.581392 316.76 
Q 368.581392 316.76 368.581392 313.76 
L 368.581392 304.081875 
Q 368.581392 301.081875 365.581392 301.081875 
L 300.045454 301.081875 
Q 297.045454 301.081875 297.045454 304.081875 
L 297.045454 313.76 
Q 297.045454 316.76 300.045454 316.76 
z
" style="fill: #ffffff; stroke: #000000; stroke-linejoin: miter"/>
    </g>
    <!-- WM = 0.61 V -->
    <g transform="translate(300.045454 311.680312) scale(0.1 -0.1)">
     <use xlink:href="#DejaVuSans-57"/>
     <use xlink:href="#DejaVuSans-4d" transform="translate(98.876953 0)"/>
     <use xlink:href="#DejaVuSans-20" transform="translate(185.15625 0)"/>
     <use xlink:href="#DejaVuSans-3d" transform="translate(216.943359 0)"/>
     <use xlink:href="#DejaVuSans-20" transform="translate(300.732422 0)"/>
     <use xlink:href="#DejaVuSans-30" transform="translate(332.519531 0)"/>
     <use xlink:href="#DejaVuSans-2e" transform="translate(396.142578 0)"/>
     <use xlink:href="#DejaVuSans-36" transform="translate(427.929688 0)"/>
     <use xlink:href="#DejaVuSans-31" transform="translate(491.552734 0)"/>
     <use xlink:href="#DejaVuSans-20" transform="translate(555.175781 0)"/>
     <use xlink:href="#DejaVuSans-56" transform="translate(586.962891 0)"/>
    </g>
   </g>
   <g id="text_26">
    <!-- Improved Write (Floating Supply) -->
    <g transform="translate(203.394687 231.48) scale(0.12 -0.12)">
     <defs>
      <path id="DejaVuSans-49" d="M 628 4666 
L 1259 4666 
L 1259 0 
L 628 0 
L 628 4666 
z
" transform="scale(0.015625)"/>
      <path id="DejaVuSans-6d" d="M 3328 2828 
Q 3544 3216 3844 3400 
Q 4144 3584 4550 3584 
Q 5097 3584 5394 3201 
Q 5691 2819 5691 2113 
L 5691 0 
L 5113 0 
L 5113 2094 
Q 5113 2597 4934 2840 
Q 4756 3084 4391 3084 
Q 3944 3084 3684 2787 
Q 3425 2491 3425 1978 
L 3425 0 
L 2847 0 
L 2847 2094 
Q 2847 2600 2669 2842 
Q 2491 3084 2119 3084 
Q 1678 3084 1418 2786 
Q 1159 2488 1159 1978 
L 1159 0 
L 581 0 
L 581 3500 
L 1159 3500 
L 1159 2956 
Q 1356 3278 1631 3431 
Q 1906 3584 2284 3584 
Q 2666 3584 2933 3390 
Q 3200 3197 3328 2828 
z
" transform="scale(0.015625)"/>
      <path id="DejaVuSans-76" d="M 191 3500 
L 800 3500 
L 1894 563 
L 2988 3500 
L 3597 3500 
L 2284 0 
L 1503 0 
L 191 3500 
z
" transform="scale(0.015625)"/>
     </defs>
     <use xlink:href="#DejaVuSans-49"/>
     <use xlink:href="#DejaVuSans-6d" transform="translate(29.492188 0)"/>
     <use xlink:href="#DejaVuSans-70" transform="translate(126.904297 0)"/>
     <use xlink:href="#DejaVuSans-72" transform="translate(190.380859 0)"/>
     <use xlink:href="#DejaVuSans-6f" transform="translate(229.244141 0)"/>
     <use xlink:href="#DejaVuSans-76" transform="translate(290.425781 0)"/>
     <use xlink:href="#DejaVuSans-65" transform="translate(349.605469 0)"/>
     <use xlink:href="#DejaVuSans-64" transform="translate(411.128906 0)"/>
     <use xlink:href="#DejaVuSans-20" transform="translate(474.605469 0)"/>
     <use xlink:href="#DejaVuSans-57" transform="translate(506.392578 0)"/>
     <use xlink:href="#DejaVuSans-72" transform="translate(600.769531 0)"/>
     <use xlink:href="#DejaVuSans-69" transform="translate(641.882812 0)"/>
     <use xlink:href="#DejaVuSans-74" transform="translate(669.666016 0)"/>
     <use xlink:href="#DejaVuSans-65" transform="translate(708.875 0)"/>
     <use xlink:href="#DejaVuSans-20" transform="translate(770.398438 0)"/>
     <use xlink:href="#DejaVuSans-28" transform="translate(802.185547 0)"/>
     <use xlink:href="#DejaVuSans-46" transform="translate(841.199219 0)"/>
     <use xlink:href="#DejaVuSans-6c" transform="translate(898.71875 0)"/>
     <use xlink:href="#DejaVuSans-6f" transform="translate(926.501953 0)"/>
     <use xlink:href="#DejaVuSans-61" transform="translate(987.683594 0)"/>
     <use xlink:href="#DejaVuSans-74" transform="translate(1048.962891 0)"/>
     <use xlink:href="#DejaVuSans-69" transform="translate(1088.171875 0)"/>
     <use xlink:href="#DejaVuSans-6e" transform="translate(1115.955078 0)"/>
     <use xlink:href="#DejaVuSans-67" transform="translate(1179.333984 0)"/>
     <use xlink:href="#DejaVuSans-20" transform="translate(1242.810547 0)"/>
     <use xlink:href="#DejaVuSans-53" transform="translate(1274.597656 0)"/>
     <use xlink:href="#DejaVuSans-75" transform="translate(1338.074219 0)"/>
     <use xlink:href="#DejaVuSans-70" transform="translate(1401.453125 0)"/>
     <use xlink:href="#DejaVuSans-70" transform="translate(1464.929688 0)"/>
     <use xlink:href="#DejaVuSans-6c" transform="translate(1528.40625 0)"/>
     <use xlink:href="#DejaVuSans-79" transform="translate(1556.189453 0)"/>
     <use xlink:href="#DejaVuSans-29" transform="translate(1615.369141 0)"/>
    </g>
   </g>
   <g id="legend_2">
    <g id="patch_15">
     <path d="M 511.467187 274.83625 
L 558.2 274.83625 
Q 560.2 274.83625 560.2 272.83625 
L 560.2 244.48 
Q 560.2 242.48 558.2 242.48 
L 511.467187 242.48 
Q 509.467187 242.48 509.467187 244.48 
L 509.467187 272.83625 
Q 509.467187 274.83625 511.467187 274.83625 
z
" style="fill: #ffffff; opacity: 0.8; stroke: #cccccc; stroke-linejoin: miter"/>
    </g>
    <g id="line2d_25">
     <path d="M 513.467187 250.578437 
L 523.467187 250.578437 
L 533.467187 250.578437 
" style="fill: none; stroke: #000000; stroke-width: 3; stroke-linecap: square"/>
    </g>
    <g id="text_27">
     <!-- Q -->
     <g transform="translate(541.467187 254.078437) scale(0.1 -0.1)">
      <use xlink:href="#DejaVuSans-51"/>
     </g>
    </g>
    <g id="line2d_26">
     <path d="M 513.467187 265.256562 
L 523.467187 265.256562 
L 533.467187 265.256562 
" style="fill: none; stroke-dasharray: 11.1,4.8; stroke-dashoffset: 0; stroke: #000000; stroke-opacity: 0.5; stroke-width: 3"/>
    </g>
    <g id="text_28">
     <!-- QB -->
     <g transform="translate(541.467187 268.756562) scale(0.1 -0.1)">
      <use xlink:href="#DejaVuSans-51"/>
      <use xlink:href="#DejaVuSans-42" transform="translate(78.710938 0)"/>
     </g>
    </g>
   </g>
  </g>
 </g>
 <defs>
  <clipPath id="p32e62382fc">
   <rect x="40.12" y="26.88" width="525.08" height="152.56"/>
  </clipPath>
  <clipPath id="pb69dc3dbb8">
   <rect x="40.12" y="237.48" width="525.08" height="152.56"/>
  </clipPath>
 </defs>
</svg>
