<?xml version="1.0" encoding="utf-8" standalone="no"?>
<!DOCTYPE svg PUBLIC "-//W3C//DTD SVG 1.1//EN"
  "http://www.w3.org/Graphics/SVG/1.1/DTD/svg11.dtd">
<svg xmlns:xlink="http://www.w3.org/1999/xlink" width="576pt" height="432pt" viewBox="0 0 576 432" xmlns="http://www.w3.org/2000/svg" version="1.1">
 <metadata>
  <rdf:RDF xmlns:dc="http://purl.org/dc/elements/1.1/" xmlns:cc="http://creativecommons.org/ns#" xmlns:rdf="http://www.w3.org/1999/02/22-rdf-syntax-ns#">
   <cc:Work>
    <dc:type rdf:resource="http://purl.org/dc/dcmitype/StillImage"/>
    <dc:date>2025-04-01T15:36:58.349818</dc:date>
    <dc:format>image/svg+xml</dc:format>
    <dc:creator>
     <cc:Agent>
      <dc:title>Matplotlib v3.10.1, https://matplotlib.org/</dc:title>
     </cc:Agent>
    </dc:creator>
   </cc:Work>
  </rdf:RDF>
 </metadata>
 <defs>
  <style type="text/css">*{stroke-linejoin: round; stroke-linecap: butt}</style>
 </defs>
 <g id="figure_1">
  <g id="patch_1">
   <path d="M 0 432 
L 576 432 
L 576 0 
L 0 0 
z
" style="fill: #ffffff"/>
  </g>
  <g id="axes_1">
   <g id="patch_2">
    <path d="M 40.12 76.808 
L 557.325 76.808 
L 557.325 26.88 
L 40.12 26.88 
z
" style="fill: #ffffff"/>
   </g>
   <g id="matplotlib.axis_1">
    <g id="xtick_1">
     <g id="line2d_1">
      <defs>
       <path id="m1e4e76ea52" d="M 0 0 
L 0 3.5 
" style="stroke: #000000; stroke-width: 0.8"/>
      </defs>
      <g>
       <use xlink:href="#m1e4e76ea52" x="40.12" y="76.808" style="stroke: #000000; stroke-width: 0.8"/>
      </g>
     </g>
    </g>
    <g id="xtick_2">
     <g id="line2d_2">
      <g>
       <use xlink:href="#m1e4e76ea52" x="91.8405" y="76.808" style="stroke: #000000; stroke-width: 0.8"/>
      </g>
     </g>
    </g>
    <g id="xtick_3">
     <g id="line2d_3">
      <g>
       <use xlink:href="#m1e4e76ea52" x="143.561" y="76.808" style="stroke: #000000; stroke-width: 0.8"/>
      </g>
     </g>
    </g>
    <g id="xtick_4">
     <g id="line2d_4">
      <g>
       <use xlink:href="#m1e4e76ea52" x="195.2815" y="76.808" style="stroke: #000000; stroke-width: 0.8"/>
      </g>
     </g>
    </g>
    <g id="xtick_5">
     <g id="line2d_5">
      <g>
       <use xlink:href="#m1e4e76ea52" x="247.002" y="76.808" style="stroke: #000000; stroke-width: 0.8"/>
      </g>
     </g>
    </g>
    <g id="xtick_6">
     <g id="line2d_6">
      <g>
       <use xlink:href="#m1e4e76ea52" x="298.7225" y="76.808" style="stroke: #000000; stroke-width: 0.8"/>
      </g>
     </g>
    </g>
    <g id="xtick_7">
     <g id="line2d_7">
      <g>
       <use xlink:href="#m1e4e76ea52" x="350.443" y="76.808" style="stroke: #000000; stroke-width: 0.8"/>
      </g>
     </g>
    </g>
    <g id="xtick_8">
     <g id="line2d_8">
      <g>
       <use xlink:href="#m1e4e76ea52" x="402.1635" y="76.808" style="stroke: #000000; stroke-width: 0.8"/>
      </g>
     </g>
    </g>
    <g id="xtick_9">
     <g id="line2d_9">
      <g>
       <use xlink:href="#m1e4e76ea52" x="453.884" y="76.808" style="stroke: #000000; stroke-width: 0.8"/>
      </g>
     </g>
    </g>
    <g id="xtick_10">
     <g id="line2d_10">
      <g>
       <use xlink:href="#m1e4e76ea52" x="505.6045" y="76.808" style="stroke: #000000; stroke-width: 0.8"/>
      </g>
     </g>
    </g>
    <g id="xtick_11">
     <g id="line2d_11">
      <g>
       <use xlink:href="#m1e4e76ea52" x="557.325" y="76.808" style="stroke: #000000; stroke-width: 0.8"/>
      </g>
     </g>
    </g>
    <g id="text_1">
     <!-- Time (s) -->
     <g transform="translate(278.393594 91.906437) scale(0.1 -0.1)">
      <defs>
       <path id="DejaVuSans-54" d="M -19 4666 
L 3928 4666 
L 3928 4134 
L 2272 4134 
L 2272 0 
L 1638 0 
L 1638 4134 
L -19 4134 
L -19 4666 
z
" transform="scale(0.015625)"/>
       <path id="DejaVuSans-69" d="M 603 3500 
L 1178 3500 
L 1178 0 
L 603 0 
L 603 3500 
z
M 603 4863 
L 1178 4863 
L 1178 4134 
L 603 4134 
L 603 4863 
z
" transform="scale(0.015625)"/>
       <path id="DejaVuSans-6d" d="M 3328 2828 
Q 3544 3216 3844 3400 
Q 4144 3584 4550 3584 
Q 5097 3584 5394 3201 
Q 5691 2819 5691 2113 
L 5691 0 
L 5113 0 
L 5113 2094 
Q 5113 2597 4934 2840 
Q 4756 3084 4391 3084 
Q 3944 3084 3684 2787 
Q 3425 2491 3425 1978 
L 3425 0 
L 2847 0 
L 2847 2094 
Q 2847 2600 2669 2842 
Q 2491 3084 2119 3084 
Q 1678 3084 1418 2786 
Q 1159 2488 1159 1978 
L 1159 0 
L 581 0 
L 581 3500 
L 1159 3500 
L 1159 2956 
Q 1356 3278 1631 3431 
Q 1906 3584 2284 3584 
Q 2666 3584 2933 3390 
Q 3200 3197 3328 2828 
z
" transform="scale(0.015625)"/>
       <path id="DejaVuSans-65" d="M 3597 1894 
L 3597 1613 
L 953 1613 
Q 991 1019 1311 708 
Q 1631 397 2203 397 
Q 2534 397 2845 478 
Q 3156 559 3463 722 
L 3463 178 
Q 3153 47 2828 -22 
Q 2503 -91 2169 -91 
Q 1331 -91 842 396 
Q 353 884 353 1716 
Q 353 2575 817 3079 
Q 1281 3584 2069 3584 
Q 2775 3584 3186 3129 
Q 3597 2675 3597 1894 
z
M 3022 2063 
Q 3016 2534 2758 2815 
Q 2500 3097 2075 3097 
Q 1594 3097 1305 2825 
Q 1016 2553 972 2059 
L 3022 2063 
z
" transform="scale(0.015625)"/>
       <path id="DejaVuSans-20" transform="scale(0.015625)"/>
       <path id="DejaVuSans-28" d="M 1984 4856 
Q 1566 4138 1362 3434 
Q 1159 2731 1159 2009 
Q 1159 1288 1364 580 
Q 1569 -128 1984 -844 
L 1484 -844 
Q 1016 -109 783 600 
Q 550 1309 550 2009 
Q 550 2706 781 3412 
Q 1013 4119 1484 4856 
L 1984 4856 
z
" transform="scale(0.015625)"/>
       <path id="DejaVuSans-73" d="M 2834 3397 
L 2834 2853 
Q 2591 2978 2328 3040 
Q 2066 3103 1784 3103 
Q 1356 3103 1142 2972 
Q 928 2841 928 2578 
Q 928 2378 1081 2264 
Q 1234 2150 1697 2047 
L 1894 2003 
Q 2506 1872 2764 1633 
Q 3022 1394 3022 966 
Q 3022 478 2636 193 
Q 2250 -91 1575 -91 
Q 1294 -91 989 -36 
Q 684 19 347 128 
L 347 722 
Q 666 556 975 473 
Q 1284 391 1588 391 
Q 1994 391 2212 530 
Q 2431 669 2431 922 
Q 2431 1156 2273 1281 
Q 2116 1406 1581 1522 
L 1381 1569 
Q 847 1681 609 1914 
Q 372 2147 372 2553 
Q 372 3047 722 3315 
Q 1072 3584 1716 3584 
Q 2034 3584 2315 3537 
Q 2597 3491 2834 3397 
z
" transform="scale(0.015625)"/>
       <path id="DejaVuSans-29" d="M 513 4856 
L 1013 4856 
Q 1481 4119 1714 3412 
Q 1947 2706 1947 2009 
Q 1947 1309 1714 600 
Q 1481 -109 1013 -844 
L 513 -844 
Q 928 -128 1133 580 
Q 1338 1288 1338 2009 
Q 1338 2731 1133 3434 
Q 928 4138 513 4856 
z
" transform="scale(0.015625)"/>
      </defs>
      <use xlink:href="#DejaVuSans-54"/>
      <use xlink:href="#DejaVuSans-69" transform="translate(57.958984 0)"/>
      <use xlink:href="#DejaVuSans-6d" transform="translate(85.742188 0)"/>
      <use xlink:href="#DejaVuSans-65" transform="translate(183.154297 0)"/>
      <use xlink:href="#DejaVuSans-20" transform="translate(244.677734 0)"/>
      <use xlink:href="#DejaVuSans-28" transform="translate(276.464844 0)"/>
      <use xlink:href="#DejaVuSans-73" transform="translate(315.478516 0)"/>
      <use xlink:href="#DejaVuSans-29" transform="translate(367.578125 0)"/>
     </g>
    </g>
   </g>
   <g id="matplotlib.axis_2">
    <g id="ytick_1">
     <g id="line2d_12">
      <defs>
       <path id="maa2b135b56" d="M 0 0 
L -3.5 0 
" style="stroke: #000000; stroke-width: 0.8"/>
      </defs>
      <g>
       <use xlink:href="#maa2b135b56" x="40.12" y="71.8152" style="stroke: #000000; stroke-width: 0.8"/>
      </g>
     </g>
     <g id="text_2">
      <!-- 0V -->
      <g transform="translate(19.916875 75.614419) scale(0.1 -0.1)">
       <defs>
        <path id="DejaVuSans-30" d="M 2034 4250 
Q 1547 4250 1301 3770 
Q 1056 3291 1056 2328 
Q 1056 1369 1301 889 
Q 1547 409 2034 409 
Q 2525 409 2770 889 
Q 3016 1369 3016 2328 
Q 3016 3291 2770 3770 
Q 2525 4250 2034 4250 
z
M 2034 4750 
Q 2819 4750 3233 4129 
Q 3647 3509 3647 2328 
Q 3647 1150 3233 529 
Q 2819 -91 2034 -91 
Q 1250 -91 836 529 
Q 422 1150 422 2328 
Q 422 3509 836 4129 
Q 1250 4750 2034 4750 
z
" transform="scale(0.015625)"/>
        <path id="DejaVuSans-56" d="M 1831 0 
L 50 4666 
L 709 4666 
L 2188 738 
L 3669 4666 
L 4325 4666 
L 2547 0 
L 1831 0 
z
" transform="scale(0.015625)"/>
       </defs>
       <use xlink:href="#DejaVuSans-30"/>
       <use xlink:href="#DejaVuSans-56" transform="translate(63.623047 0)"/>
      </g>
     </g>
    </g>
    <g id="ytick_2">
     <g id="line2d_13">
      <g>
       <use xlink:href="#maa2b135b56" x="40.12" y="31.8728" style="stroke: #000000; stroke-width: 0.8"/>
      </g>
     </g>
     <g id="text_3">
      <!-- VDD -->
      <g transform="translate(10.879375 35.672019) scale(0.1 -0.1)">
       <defs>
        <path id="DejaVuSans-44" d="M 1259 4147 
L 1259 519 
L 2022 519 
Q 2988 519 3436 956 
Q 3884 1394 3884 2338 
Q 3884 3275 3436 3711 
Q 2988 4147 2022 4147 
L 1259 4147 
z
M 628 4666 
L 1925 4666 
Q 3281 4666 3915 4102 
Q 4550 3538 4550 2338 
Q 4550 1131 3912 565 
Q 3275 0 1925 0 
L 628 0 
L 628 4666 
z
" transform="scale(0.015625)"/>
       </defs>
       <use xlink:href="#DejaVuSans-56"/>
       <use xlink:href="#DejaVuSans-44" transform="translate(68.408203 0)"/>
       <use xlink:href="#DejaVuSans-44" transform="translate(145.410156 0)"/>
      </g>
     </g>
    </g>
   </g>
   <g id="line2d_14">
    <path d="M 40.12 71.8152 
L 91.8405 71.8152 
L 94.525342 31.8728 
L 143.561 31.8728 
L 146.244896 71.8152 
L 350.443 71.8152 
L 353.10612 31.8728 
L 402.1635 31.8728 
L 404.832407 71.8152 
L 557.325 71.8152 
L 557.325 71.8152 
" clip-path="url(#pab9aaaacaf)" style="fill: none; stroke: #000000; stroke-width: 3; stroke-linecap: square"/>
   </g>
   <g id="patch_3">
    <path d="M 40.12 76.808 
L 40.12 26.88 
" style="fill: none; stroke: #000000; stroke-width: 0.8; stroke-linejoin: miter; stroke-linecap: square"/>
   </g>
   <g id="patch_4">
    <path d="M 557.325 76.808 
L 557.325 26.88 
" style="fill: none; stroke: #000000; stroke-width: 0.8; stroke-linejoin: miter; stroke-linecap: square"/>
   </g>
   <g id="patch_5">
    <path d="M 40.12 76.808 
L 557.325 76.808 
" style="fill: none; stroke: #000000; stroke-width: 0.8; stroke-linejoin: miter; stroke-linecap: square"/>
   </g>
   <g id="patch_6">
    <path d="M 40.12 26.88 
L 557.325 26.88 
" style="fill: none; stroke: #000000; stroke-width: 0.8; stroke-linejoin: miter; stroke-linecap: square"/>
   </g>
   <g id="text_4">
    <!-- Write and Read (VDD=0.4V) -->
    <g transform="translate(214.09625 20.88) scale(0.12 -0.12)">
     <defs>
      <path id="DejaVuSans-57" d="M 213 4666 
L 850 4666 
L 1831 722 
L 2809 4666 
L 3519 4666 
L 4500 722 
L 5478 4666 
L 6119 4666 
L 4947 0 
L 4153 0 
L 3169 4050 
L 2175 0 
L 1381 0 
L 213 4666 
z
" transform="scale(0.015625)"/>
      <path id="DejaVuSans-72" d="M 2631 2963 
Q 2534 3019 2420 3045 
Q 2306 3072 2169 3072 
Q 1681 3072 1420 2755 
Q 1159 2438 1159 1844 
L 1159 0 
L 581 0 
L 581 3500 
L 1159 3500 
L 1159 2956 
Q 1341 3275 1631 3429 
Q 1922 3584 2338 3584 
Q 2397 3584 2469 3576 
Q 2541 3569 2628 3553 
L 2631 2963 
z
" transform="scale(0.015625)"/>
      <path id="DejaVuSans-74" d="M 1172 4494 
L 1172 3500 
L 2356 3500 
L 2356 3053 
L 1172 3053 
L 1172 1153 
Q 1172 725 1289 603 
Q 1406 481 1766 481 
L 2356 481 
L 2356 0 
L 1766 0 
Q 1100 0 847 248 
Q 594 497 594 1153 
L 594 3053 
L 172 3053 
L 172 3500 
L 594 3500 
L 594 4494 
L 1172 4494 
z
" transform="scale(0.015625)"/>
      <path id="DejaVuSans-61" d="M 2194 1759 
Q 1497 1759 1228 1600 
Q 959 1441 959 1056 
Q 959 750 1161 570 
Q 1363 391 1709 391 
Q 2188 391 2477 730 
Q 2766 1069 2766 1631 
L 2766 1759 
L 2194 1759 
z
M 3341 1997 
L 3341 0 
L 2766 0 
L 2766 531 
Q 2569 213 2275 61 
Q 1981 -91 1556 -91 
Q 1019 -91 701 211 
Q 384 513 384 1019 
Q 384 1609 779 1909 
Q 1175 2209 1959 2209 
L 2766 2209 
L 2766 2266 
Q 2766 2663 2505 2880 
Q 2244 3097 1772 3097 
Q 1472 3097 1187 3025 
Q 903 2953 641 2809 
L 641 3341 
Q 956 3463 1253 3523 
Q 1550 3584 1831 3584 
Q 2591 3584 2966 3190 
Q 3341 2797 3341 1997 
z
" transform="scale(0.015625)"/>
      <path id="DejaVuSans-6e" d="M 3513 2113 
L 3513 0 
L 2938 0 
L 2938 2094 
Q 2938 2591 2744 2837 
Q 2550 3084 2163 3084 
Q 1697 3084 1428 2787 
Q 1159 2491 1159 1978 
L 1159 0 
L 581 0 
L 581 3500 
L 1159 3500 
L 1159 2956 
Q 1366 3272 1645 3428 
Q 1925 3584 2291 3584 
Q 2894 3584 3203 3211 
Q 3513 2838 3513 2113 
z
" transform="scale(0.015625)"/>
      <path id="DejaVuSans-64" d="M 2906 2969 
L 2906 4863 
L 3481 4863 
L 3481 0 
L 2906 0 
L 2906 525 
Q 2725 213 2448 61 
Q 2172 -91 1784 -91 
Q 1150 -91 751 415 
Q 353 922 353 1747 
Q 353 2572 751 3078 
Q 1150 3584 1784 3584 
Q 2172 3584 2448 3432 
Q 2725 3281 2906 2969 
z
M 947 1747 
Q 947 1113 1208 752 
Q 1469 391 1925 391 
Q 2381 391 2643 752 
Q 2906 1113 2906 1747 
Q 2906 2381 2643 2742 
Q 2381 3103 1925 3103 
Q 1469 3103 1208 2742 
Q 947 2381 947 1747 
z
" transform="scale(0.015625)"/>
      <path id="DejaVuSans-52" d="M 2841 2188 
Q 3044 2119 3236 1894 
Q 3428 1669 3622 1275 
L 4263 0 
L 3584 0 
L 2988 1197 
Q 2756 1666 2539 1819 
Q 2322 1972 1947 1972 
L 1259 1972 
L 1259 0 
L 628 0 
L 628 4666 
L 2053 4666 
Q 2853 4666 3247 4331 
Q 3641 3997 3641 3322 
Q 3641 2881 3436 2590 
Q 3231 2300 2841 2188 
z
M 1259 4147 
L 1259 2491 
L 2053 2491 
Q 2509 2491 2742 2702 
Q 2975 2913 2975 3322 
Q 2975 3731 2742 3939 
Q 2509 4147 2053 4147 
L 1259 4147 
z
" transform="scale(0.015625)"/>
      <path id="DejaVuSans-3d" d="M 678 2906 
L 4684 2906 
L 4684 2381 
L 678 2381 
L 678 2906 
z
M 678 1631 
L 4684 1631 
L 4684 1100 
L 678 1100 
L 678 1631 
z
" transform="scale(0.015625)"/>
      <path id="DejaVuSans-2e" d="M 684 794 
L 1344 794 
L 1344 0 
L 684 0 
L 684 794 
z
" transform="scale(0.015625)"/>
      <path id="DejaVuSans-34" d="M 2419 4116 
L 825 1625 
L 2419 1625 
L 2419 4116 
z
M 2253 4666 
L 3047 4666 
L 3047 1625 
L 3713 1625 
L 3713 1100 
L 3047 1100 
L 3047 0 
L 2419 0 
L 2419 1100 
L 313 1100 
L 313 1709 
L 2253 4666 
z
" transform="scale(0.015625)"/>
     </defs>
     <use xlink:href="#DejaVuSans-57"/>
     <use xlink:href="#DejaVuSans-72" transform="translate(94.376953 0)"/>
     <use xlink:href="#DejaVuSans-69" transform="translate(135.490234 0)"/>
     <use xlink:href="#DejaVuSans-74" transform="translate(163.273438 0)"/>
     <use xlink:href="#DejaVuSans-65" transform="translate(202.482422 0)"/>
     <use xlink:href="#DejaVuSans-20" transform="translate(264.005859 0)"/>
     <use xlink:href="#DejaVuSans-61" transform="translate(295.792969 0)"/>
     <use xlink:href="#DejaVuSans-6e" transform="translate(357.072266 0)"/>
     <use xlink:href="#DejaVuSans-64" transform="translate(420.451172 0)"/>
     <use xlink:href="#DejaVuSans-20" transform="translate(483.927734 0)"/>
     <use xlink:href="#DejaVuSans-52" transform="translate(515.714844 0)"/>
     <use xlink:href="#DejaVuSans-65" transform="translate(580.697266 0)"/>
     <use xlink:href="#DejaVuSans-61" transform="translate(642.220703 0)"/>
     <use xlink:href="#DejaVuSans-64" transform="translate(703.5 0)"/>
     <use xlink:href="#DejaVuSans-20" transform="translate(766.976562 0)"/>
     <use xlink:href="#DejaVuSans-28" transform="translate(798.763672 0)"/>
     <use xlink:href="#DejaVuSans-56" transform="translate(837.777344 0)"/>
     <use xlink:href="#DejaVuSans-44" transform="translate(906.185547 0)"/>
     <use xlink:href="#DejaVuSans-44" transform="translate(983.1875 0)"/>
     <use xlink:href="#DejaVuSans-3d" transform="translate(1060.189453 0)"/>
     <use xlink:href="#DejaVuSans-30" transform="translate(1143.978516 0)"/>
     <use xlink:href="#DejaVuSans-2e" transform="translate(1207.601562 0)"/>
     <use xlink:href="#DejaVuSans-34" transform="translate(1239.388672 0)"/>
     <use xlink:href="#DejaVuSans-56" transform="translate(1303.011719 0)"/>
     <use xlink:href="#DejaVuSans-29" transform="translate(1371.419922 0)"/>
    </g>
   </g>
   <g id="legend_1">
    <g id="patch_7">
     <path d="M 502.865625 49.558125 
L 550.325 49.558125 
Q 552.325 49.558125 552.325 47.558125 
L 552.325 33.88 
Q 552.325 31.88 550.325 31.88 
L 502.865625 31.88 
Q 500.865625 31.88 500.865625 33.88 
L 500.865625 47.558125 
Q 500.865625 49.558125 502.865625 49.558125 
z
" style="fill: #ffffff; opacity: 0.8; stroke: #cccccc; stroke-linejoin: miter"/>
    </g>
    <g id="line2d_15">
     <path d="M 504.865625 39.978438 
L 514.865625 39.978438 
L 524.865625 39.978438 
" style="fill: none; stroke: #000000; stroke-width: 3; stroke-linecap: square"/>
    </g>
    <g id="text_5">
     <!-- WL -->
     <g transform="translate(532.865625 43.478438) scale(0.1 -0.1)">
      <defs>
       <path id="DejaVuSans-4c" d="M 628 4666 
L 1259 4666 
L 1259 531 
L 3531 531 
L 3531 0 
L 628 0 
L 628 4666 
z
" transform="scale(0.015625)"/>
      </defs>
      <use xlink:href="#DejaVuSans-57"/>
      <use xlink:href="#DejaVuSans-4c" transform="translate(98.876953 0)"/>
     </g>
    </g>
   </g>
  </g>
  <g id="axes_2">
   <g id="patch_8">
    <path d="M 40.12 155.116 
L 557.325 155.116 
L 557.325 105.188 
L 40.12 105.188 
z
" style="fill: #ffffff"/>
   </g>
   <g id="matplotlib.axis_3">
    <g id="xtick_12">
     <g id="line2d_16">
      <g>
       <use xlink:href="#m1e4e76ea52" x="40.12" y="155.116" style="stroke: #000000; stroke-width: 0.8"/>
      </g>
     </g>
    </g>
    <g id="xtick_13">
     <g id="line2d_17">
      <g>
       <use xlink:href="#m1e4e76ea52" x="91.8405" y="155.116" style="stroke: #000000; stroke-width: 0.8"/>
      </g>
     </g>
    </g>
    <g id="xtick_14">
     <g id="line2d_18">
      <g>
       <use xlink:href="#m1e4e76ea52" x="143.561" y="155.116" style="stroke: #000000; stroke-width: 0.8"/>
      </g>
     </g>
    </g>
    <g id="xtick_15">
     <g id="line2d_19">
      <g>
       <use xlink:href="#m1e4e76ea52" x="195.2815" y="155.116" style="stroke: #000000; stroke-width: 0.8"/>
      </g>
     </g>
    </g>
    <g id="xtick_16">
     <g id="line2d_20">
      <g>
       <use xlink:href="#m1e4e76ea52" x="247.002" y="155.116" style="stroke: #000000; stroke-width: 0.8"/>
      </g>
     </g>
    </g>
    <g id="xtick_17">
     <g id="line2d_21">
      <g>
       <use xlink:href="#m1e4e76ea52" x="298.7225" y="155.116" style="stroke: #000000; stroke-width: 0.8"/>
      </g>
     </g>
    </g>
    <g id="xtick_18">
     <g id="line2d_22">
      <g>
       <use xlink:href="#m1e4e76ea52" x="350.443" y="155.116" style="stroke: #000000; stroke-width: 0.8"/>
      </g>
     </g>
    </g>
    <g id="xtick_19">
     <g id="line2d_23">
      <g>
       <use xlink:href="#m1e4e76ea52" x="402.1635" y="155.116" style="stroke: #000000; stroke-width: 0.8"/>
      </g>
     </g>
    </g>
    <g id="xtick_20">
     <g id="line2d_24">
      <g>
       <use xlink:href="#m1e4e76ea52" x="453.884" y="155.116" style="stroke: #000000; stroke-width: 0.8"/>
      </g>
     </g>
    </g>
    <g id="xtick_21">
     <g id="line2d_25">
      <g>
       <use xlink:href="#m1e4e76ea52" x="505.6045" y="155.116" style="stroke: #000000; stroke-width: 0.8"/>
      </g>
     </g>
    </g>
    <g id="xtick_22">
     <g id="line2d_26">
      <g>
       <use xlink:href="#m1e4e76ea52" x="557.325" y="155.116" style="stroke: #000000; stroke-width: 0.8"/>
      </g>
     </g>
    </g>
    <g id="text_6">
     <!-- Time (s) -->
     <g transform="translate(278.393594 170.214437) scale(0.1 -0.1)">
      <use xlink:href="#DejaVuSans-54"/>
      <use xlink:href="#DejaVuSans-69" transform="translate(57.958984 0)"/>
      <use xlink:href="#DejaVuSans-6d" transform="translate(85.742188 0)"/>
      <use xlink:href="#DejaVuSans-65" transform="translate(183.154297 0)"/>
      <use xlink:href="#DejaVuSans-20" transform="translate(244.677734 0)"/>
      <use xlink:href="#DejaVuSans-28" transform="translate(276.464844 0)"/>
      <use xlink:href="#DejaVuSans-73" transform="translate(315.478516 0)"/>
      <use xlink:href="#DejaVuSans-29" transform="translate(367.578125 0)"/>
     </g>
    </g>
   </g>
   <g id="matplotlib.axis_4">
    <g id="ytick_3">
     <g id="line2d_27">
      <g>
       <use xlink:href="#maa2b135b56" x="40.12" y="150.1232" style="stroke: #000000; stroke-width: 0.8"/>
      </g>
     </g>
     <g id="text_7">
      <!-- 0V -->
      <g transform="translate(19.916875 153.922419) scale(0.1 -0.1)">
       <use xlink:href="#DejaVuSans-30"/>
       <use xlink:href="#DejaVuSans-56" transform="translate(63.623047 0)"/>
      </g>
     </g>
    </g>
    <g id="ytick_4">
     <g id="line2d_28">
      <g>
       <use xlink:href="#maa2b135b56" x="40.12" y="110.1808" style="stroke: #000000; stroke-width: 0.8"/>
      </g>
     </g>
     <g id="text_8">
      <!-- VDD -->
      <g transform="translate(10.879375 113.980019) scale(0.1 -0.1)">
       <use xlink:href="#DejaVuSans-56"/>
       <use xlink:href="#DejaVuSans-44" transform="translate(68.408203 0)"/>
       <use xlink:href="#DejaVuSans-44" transform="translate(145.410156 0)"/>
      </g>
     </g>
    </g>
   </g>
   <g id="line2d_29">
    <path d="M 40.12 150.1232 
L 298.7225 150.1232 
L 301.308525 110.1808 
L 557.325 110.1808 
L 557.325 110.1808 
" clip-path="url(#p63f63c3381)" style="fill: none; stroke: #000000; stroke-opacity: 0.5; stroke-width: 3; stroke-linecap: square"/>
   </g>
   <g id="line2d_30">
    <path d="M 40.12 110.1808 
L 298.7225 110.1808 
L 301.308525 150.1232 
L 557.325 150.1232 
L 557.325 150.1232 
" clip-path="url(#p63f63c3381)" style="fill: none; stroke-dasharray: 11.1,4.8; stroke-dashoffset: 0; stroke: #000000; stroke-width: 3"/>
   </g>
   <g id="patch_9">
    <path d="M 40.12 155.116 
L 40.12 105.188 
" style="fill: none; stroke: #000000; stroke-width: 0.8; stroke-linejoin: miter; stroke-linecap: square"/>
   </g>
   <g id="patch_10">
    <path d="M 557.325 155.116 
L 557.325 105.188 
" style="fill: none; stroke: #000000; stroke-width: 0.8; stroke-linejoin: miter; stroke-linecap: square"/>
   </g>
   <g id="patch_11">
    <path d="M 40.12 155.116 
L 557.325 155.116 
" style="fill: none; stroke: #000000; stroke-width: 0.8; stroke-linejoin: miter; stroke-linecap: square"/>
   </g>
   <g id="patch_12">
    <path d="M 40.12 105.188 
L 557.325 105.188 
" style="fill: none; stroke: #000000; stroke-width: 0.8; stroke-linejoin: miter; stroke-linecap: square"/>
   </g>
   <g id="legend_2">
    <g id="patch_13">
     <path d="M 499.03125 142.54425 
L 550.325 142.54425 
Q 552.325 142.54425 552.325 140.54425 
L 552.325 112.188 
Q 552.325 110.188 550.325 110.188 
L 499.03125 110.188 
Q 497.03125 110.188 497.03125 112.188 
L 497.03125 140.54425 
Q 497.03125 142.54425 499.03125 142.54425 
z
" style="fill: #ffffff; opacity: 0.8; stroke: #cccccc; stroke-linejoin: miter"/>
    </g>
    <g id="line2d_31">
     <path d="M 501.03125 118.286437 
L 511.03125 118.286437 
L 521.03125 118.286437 
" style="fill: none; stroke: #000000; stroke-opacity: 0.5; stroke-width: 3; stroke-linecap: square"/>
    </g>
    <g id="text_9">
     <!-- BL -->
     <g transform="translate(529.03125 121.786437) scale(0.1 -0.1)">
      <defs>
       <path id="DejaVuSans-42" d="M 1259 2228 
L 1259 519 
L 2272 519 
Q 2781 519 3026 730 
Q 3272 941 3272 1375 
Q 3272 1813 3026 2020 
Q 2781 2228 2272 2228 
L 1259 2228 
z
M 1259 4147 
L 1259 2741 
L 2194 2741 
Q 2656 2741 2882 2914 
Q 3109 3088 3109 3444 
Q 3109 3797 2882 3972 
Q 2656 4147 2194 4147 
L 1259 4147 
z
M 628 4666 
L 2241 4666 
Q 2963 4666 3353 4366 
Q 3744 4066 3744 3513 
Q 3744 3084 3544 2831 
Q 3344 2578 2956 2516 
Q 3422 2416 3680 2098 
Q 3938 1781 3938 1306 
Q 3938 681 3513 340 
Q 3088 0 2303 0 
L 628 0 
L 628 4666 
z
" transform="scale(0.015625)"/>
      </defs>
      <use xlink:href="#DejaVuSans-42"/>
      <use xlink:href="#DejaVuSans-4c" transform="translate(68.603516 0)"/>
     </g>
    </g>
    <g id="line2d_32">
     <path d="M 501.03125 132.964562 
L 511.03125 132.964562 
L 521.03125 132.964562 
" style="fill: none; stroke-dasharray: 11.1,4.8; stroke-dashoffset: 0; stroke: #000000; stroke-width: 3"/>
    </g>
    <g id="text_10">
     <!-- BLB -->
     <g transform="translate(529.03125 136.464562) scale(0.1 -0.1)">
      <use xlink:href="#DejaVuSans-42"/>
      <use xlink:href="#DejaVuSans-4c" transform="translate(68.603516 0)"/>
      <use xlink:href="#DejaVuSans-42" transform="translate(124.316406 0)"/>
     </g>
    </g>
   </g>
  </g>
  <g id="axes_3">
   <g id="patch_14">
    <path d="M 40.12 233.424 
L 557.325 233.424 
L 557.325 183.496 
L 40.12 183.496 
z
" style="fill: #ffffff"/>
   </g>
   <g id="matplotlib.axis_5">
    <g id="xtick_23">
     <g id="line2d_33">
      <g>
       <use xlink:href="#m1e4e76ea52" x="40.12" y="233.424" style="stroke: #000000; stroke-width: 0.8"/>
      </g>
     </g>
    </g>
    <g id="xtick_24">
     <g id="line2d_34">
      <g>
       <use xlink:href="#m1e4e76ea52" x="91.8405" y="233.424" style="stroke: #000000; stroke-width: 0.8"/>
      </g>
     </g>
    </g>
    <g id="xtick_25">
     <g id="line2d_35">
      <g>
       <use xlink:href="#m1e4e76ea52" x="143.561" y="233.424" style="stroke: #000000; stroke-width: 0.8"/>
      </g>
     </g>
    </g>
    <g id="xtick_26">
     <g id="line2d_36">
      <g>
       <use xlink:href="#m1e4e76ea52" x="195.2815" y="233.424" style="stroke: #000000; stroke-width: 0.8"/>
      </g>
     </g>
    </g>
    <g id="xtick_27">
     <g id="line2d_37">
      <g>
       <use xlink:href="#m1e4e76ea52" x="247.002" y="233.424" style="stroke: #000000; stroke-width: 0.8"/>
      </g>
     </g>
    </g>
    <g id="xtick_28">
     <g id="line2d_38">
      <g>
       <use xlink:href="#m1e4e76ea52" x="298.7225" y="233.424" style="stroke: #000000; stroke-width: 0.8"/>
      </g>
     </g>
    </g>
    <g id="xtick_29">
     <g id="line2d_39">
      <g>
       <use xlink:href="#m1e4e76ea52" x="350.443" y="233.424" style="stroke: #000000; stroke-width: 0.8"/>
      </g>
     </g>
    </g>
    <g id="xtick_30">
     <g id="line2d_40">
      <g>
       <use xlink:href="#m1e4e76ea52" x="402.1635" y="233.424" style="stroke: #000000; stroke-width: 0.8"/>
      </g>
     </g>
    </g>
    <g id="xtick_31">
     <g id="line2d_41">
      <g>
       <use xlink:href="#m1e4e76ea52" x="453.884" y="233.424" style="stroke: #000000; stroke-width: 0.8"/>
      </g>
     </g>
    </g>
    <g id="xtick_32">
     <g id="line2d_42">
      <g>
       <use xlink:href="#m1e4e76ea52" x="505.6045" y="233.424" style="stroke: #000000; stroke-width: 0.8"/>
      </g>
     </g>
    </g>
    <g id="xtick_33">
     <g id="line2d_43">
      <g>
       <use xlink:href="#m1e4e76ea52" x="557.325" y="233.424" style="stroke: #000000; stroke-width: 0.8"/>
      </g>
     </g>
    </g>
    <g id="text_11">
     <!-- Time (s) -->
     <g transform="translate(278.393594 248.522437) scale(0.1 -0.1)">
      <use xlink:href="#DejaVuSans-54"/>
      <use xlink:href="#DejaVuSans-69" transform="translate(57.958984 0)"/>
      <use xlink:href="#DejaVuSans-6d" transform="translate(85.742188 0)"/>
      <use xlink:href="#DejaVuSans-65" transform="translate(183.154297 0)"/>
      <use xlink:href="#DejaVuSans-20" transform="translate(244.677734 0)"/>
      <use xlink:href="#DejaVuSans-28" transform="translate(276.464844 0)"/>
      <use xlink:href="#DejaVuSans-73" transform="translate(315.478516 0)"/>
      <use xlink:href="#DejaVuSans-29" transform="translate(367.578125 0)"/>
     </g>
    </g>
   </g>
   <g id="matplotlib.axis_6">
    <g id="ytick_5">
     <g id="line2d_44">
      <g>
       <use xlink:href="#maa2b135b56" x="40.12" y="228.4312" style="stroke: #000000; stroke-width: 0.8"/>
      </g>
     </g>
     <g id="text_12">
      <!-- 0V -->
      <g transform="translate(19.916875 232.230419) scale(0.1 -0.1)">
       <use xlink:href="#DejaVuSans-30"/>
       <use xlink:href="#DejaVuSans-56" transform="translate(63.623047 0)"/>
      </g>
     </g>
    </g>
    <g id="ytick_6">
     <g id="line2d_45">
      <g>
       <use xlink:href="#maa2b135b56" x="40.12" y="188.4888" style="stroke: #000000; stroke-width: 0.8"/>
      </g>
     </g>
     <g id="text_13">
      <!-- VDD -->
      <g transform="translate(10.879375 192.288019) scale(0.1 -0.1)">
       <use xlink:href="#DejaVuSans-56"/>
       <use xlink:href="#DejaVuSans-44" transform="translate(68.408203 0)"/>
       <use xlink:href="#DejaVuSans-44" transform="translate(145.410156 0)"/>
      </g>
     </g>
    </g>
   </g>
   <g id="line2d_46">
    <path d="M 40.12 209.66534 
L 91.991729 209.570125 
L 92.347391 209.621664 
L 92.725287 210.187873 
L 92.975008 211.162074 
L 93.172333 212.766998 
L 93.413722 217.181731 
L 93.846474 228.343253 
L 94.2689 228.415994 
L 97.331983 228.430654 
L 145.158855 228.36833 
L 145.38555 228.25949 
L 145.838359 228.383363 
L 146.168629 228.429919 
L 351.871637 228.332737 
L 352.022508 228.16862 
L 352.182506 227.380186 
L 352.576285 221.255048 
L 352.873 213.947479 
L 353.169639 210.023686 
L 353.456612 208.386507 
L 353.911217 207.242824 
L 354.23308 206.884275 
L 354.646036 206.664395 
L 355.791318 206.46633 
L 356.645839 206.349819 
L 357.92062 206.057942 
L 360.741831 205.002617 
L 363.506061 203.994887 
L 365.874041 203.299991 
L 368.884553 202.59693 
L 372.791827 201.893986 
L 377.646701 201.23061 
L 384.183178 200.565088 
L 392.403012 199.949677 
L 402.228312 199.491522 
L 402.817382 200.105064 
L 403.282119 200.433061 
L 403.597391 200.287247 
L 403.851971 199.458983 
L 404.143054 196.362381 
L 404.62875 188.568763 
L 404.965575 188.490663 
L 448.233021 188.491498 
L 557.325 188.490374 
L 557.325 188.490374 
" clip-path="url(#p61b57f6f10)" style="fill: none; stroke: #000000; stroke-opacity: 0.5; stroke-width: 3; stroke-linecap: square"/>
   </g>
   <g id="line2d_47">
    <path d="M 40.12 209.675718 
L 92.347391 209.680526 
L 92.975008 210.350515 
L 93.413722 211.277049 
L 93.623801 211.781089 
L 93.770177 210.761095 
L 94.111275 207.178503 
L 94.525342 204.805762 
L 94.787787 204.109114 
L 95.106085 203.630894 
L 95.490087 203.318095 
L 96.525417 202.88722 
L 98.591279 202.296566 
L 100.912864 201.764502 
L 105.395905 200.985877 
L 110.782797 200.32025 
L 117.859683 199.699106 
L 126.564237 199.160693 
L 143.582604 198.52385 
L 144.224603 199.254583 
L 144.847125 199.533744 
L 145.158855 198.932293 
L 145.38555 197.399019 
L 145.963573 188.688949 
L 146.201558 188.497121 
L 146.81655 188.490777 
L 170.749674 188.550042 
L 171.313821 188.760743 
L 171.522103 188.484318 
L 173.325279 188.51237 
L 177.276553 188.491229 
L 351.468258 188.548973 
L 351.699909 189.12323 
L 351.871637 190.327718 
L 352.022508 192.570521 
L 352.307215 204.073158 
L 352.679289 228.266386 
L 352.873 228.384052 
L 353.661833 228.427807 
L 377.646701 228.430783 
L 403.597391 228.417501 
L 404.143054 228.115084 
L 404.832407 228.430308 
L 407.628946 228.430777 
L 557.325 228.430983 
L 557.325 228.430983 
" clip-path="url(#p61b57f6f10)" style="fill: none; stroke-dasharray: 11.1,4.8; stroke-dashoffset: 0; stroke: #000000; stroke-width: 3"/>
   </g>
   <g id="patch_15">
    <path d="M 40.12 233.424 
L 40.12 183.496 
" style="fill: none; stroke: #000000; stroke-width: 0.8; stroke-linejoin: miter; stroke-linecap: square"/>
   </g>
   <g id="patch_16">
    <path d="M 557.325 233.424 
L 557.325 183.496 
" style="fill: none; stroke: #000000; stroke-width: 0.8; stroke-linejoin: miter; stroke-linecap: square"/>
   </g>
   <g id="patch_17">
    <path d="M 40.12 233.424 
L 557.325 233.424 
" style="fill: none; stroke: #000000; stroke-width: 0.8; stroke-linejoin: miter; stroke-linecap: square"/>
   </g>
   <g id="patch_18">
    <path d="M 40.12 183.496 
L 557.325 183.496 
" style="fill: none; stroke: #000000; stroke-width: 0.8; stroke-linejoin: miter; stroke-linecap: square"/>
   </g>
   <g id="legend_3">
    <g id="patch_19">
     <path d="M 503.592188 220.85225 
L 550.325 220.85225 
Q 552.325 220.85225 552.325 218.85225 
L 552.325 190.496 
Q 552.325 188.496 550.325 188.496 
L 503.592188 188.496 
Q 501.592188 188.496 501.592188 190.496 
L 501.592188 218.85225 
Q 501.592188 220.85225 503.592188 220.85225 
z
" style="fill: #ffffff; opacity: 0.8; stroke: #cccccc; stroke-linejoin: miter"/>
    </g>
    <g id="line2d_48">
     <path d="M 505.592188 196.594438 
L 515.592188 196.594438 
L 525.592188 196.594438 
" style="fill: none; stroke: #000000; stroke-opacity: 0.5; stroke-width: 3; stroke-linecap: square"/>
    </g>
    <g id="text_14">
     <!-- Q -->
     <g transform="translate(533.592188 200.094438) scale(0.1 -0.1)">
      <defs>
       <path id="DejaVuSans-51" d="M 2522 4238 
Q 1834 4238 1429 3725 
Q 1025 3213 1025 2328 
Q 1025 1447 1429 934 
Q 1834 422 2522 422 
Q 3209 422 3611 934 
Q 4013 1447 4013 2328 
Q 4013 3213 3611 3725 
Q 3209 4238 2522 4238 
z
M 3406 84 
L 4238 -825 
L 3475 -825 
L 2784 -78 
Q 2681 -84 2626 -87 
Q 2572 -91 2522 -91 
Q 1538 -91 948 567 
Q 359 1225 359 2328 
Q 359 3434 948 4092 
Q 1538 4750 2522 4750 
Q 3503 4750 4090 4092 
Q 4678 3434 4678 2328 
Q 4678 1516 4351 937 
Q 4025 359 3406 84 
z
" transform="scale(0.015625)"/>
      </defs>
      <use xlink:href="#DejaVuSans-51"/>
     </g>
    </g>
    <g id="line2d_49">
     <path d="M 505.592188 211.272563 
L 515.592188 211.272563 
L 525.592188 211.272563 
" style="fill: none; stroke-dasharray: 11.1,4.8; stroke-dashoffset: 0; stroke: #000000; stroke-width: 3"/>
    </g>
    <g id="text_15">
     <!-- QB -->
     <g transform="translate(533.592188 214.772563) scale(0.1 -0.1)">
      <use xlink:href="#DejaVuSans-51"/>
      <use xlink:href="#DejaVuSans-42" transform="translate(78.710938 0)"/>
     </g>
    </g>
   </g>
  </g>
  <g id="axes_4">
   <g id="patch_20">
    <path d="M 40.12 311.732 
L 557.325 311.732 
L 557.325 261.804 
L 40.12 261.804 
z
" style="fill: #ffffff"/>
   </g>
   <g id="matplotlib.axis_7">
    <g id="xtick_34">
     <g id="line2d_50">
      <g>
       <use xlink:href="#m1e4e76ea52" x="40.12" y="311.732" style="stroke: #000000; stroke-width: 0.8"/>
      </g>
     </g>
    </g>
    <g id="xtick_35">
     <g id="line2d_51">
      <g>
       <use xlink:href="#m1e4e76ea52" x="91.8405" y="311.732" style="stroke: #000000; stroke-width: 0.8"/>
      </g>
     </g>
    </g>
    <g id="xtick_36">
     <g id="line2d_52">
      <g>
       <use xlink:href="#m1e4e76ea52" x="143.561" y="311.732" style="stroke: #000000; stroke-width: 0.8"/>
      </g>
     </g>
    </g>
    <g id="xtick_37">
     <g id="line2d_53">
      <g>
       <use xlink:href="#m1e4e76ea52" x="195.2815" y="311.732" style="stroke: #000000; stroke-width: 0.8"/>
      </g>
     </g>
    </g>
    <g id="xtick_38">
     <g id="line2d_54">
      <g>
       <use xlink:href="#m1e4e76ea52" x="247.002" y="311.732" style="stroke: #000000; stroke-width: 0.8"/>
      </g>
     </g>
    </g>
    <g id="xtick_39">
     <g id="line2d_55">
      <g>
       <use xlink:href="#m1e4e76ea52" x="298.7225" y="311.732" style="stroke: #000000; stroke-width: 0.8"/>
      </g>
     </g>
    </g>
    <g id="xtick_40">
     <g id="line2d_56">
      <g>
       <use xlink:href="#m1e4e76ea52" x="350.443" y="311.732" style="stroke: #000000; stroke-width: 0.8"/>
      </g>
     </g>
    </g>
    <g id="xtick_41">
     <g id="line2d_57">
      <g>
       <use xlink:href="#m1e4e76ea52" x="402.1635" y="311.732" style="stroke: #000000; stroke-width: 0.8"/>
      </g>
     </g>
    </g>
    <g id="xtick_42">
     <g id="line2d_58">
      <g>
       <use xlink:href="#m1e4e76ea52" x="453.884" y="311.732" style="stroke: #000000; stroke-width: 0.8"/>
      </g>
     </g>
    </g>
    <g id="xtick_43">
     <g id="line2d_59">
      <g>
       <use xlink:href="#m1e4e76ea52" x="505.6045" y="311.732" style="stroke: #000000; stroke-width: 0.8"/>
      </g>
     </g>
    </g>
    <g id="xtick_44">
     <g id="line2d_60">
      <g>
       <use xlink:href="#m1e4e76ea52" x="557.325" y="311.732" style="stroke: #000000; stroke-width: 0.8"/>
      </g>
     </g>
    </g>
    <g id="text_16">
     <!-- Time (s) -->
     <g transform="translate(278.393594 326.830438) scale(0.1 -0.1)">
      <use xlink:href="#DejaVuSans-54"/>
      <use xlink:href="#DejaVuSans-69" transform="translate(57.958984 0)"/>
      <use xlink:href="#DejaVuSans-6d" transform="translate(85.742188 0)"/>
      <use xlink:href="#DejaVuSans-65" transform="translate(183.154297 0)"/>
      <use xlink:href="#DejaVuSans-20" transform="translate(244.677734 0)"/>
      <use xlink:href="#DejaVuSans-28" transform="translate(276.464844 0)"/>
      <use xlink:href="#DejaVuSans-73" transform="translate(315.478516 0)"/>
      <use xlink:href="#DejaVuSans-29" transform="translate(367.578125 0)"/>
     </g>
    </g>
   </g>
   <g id="matplotlib.axis_8">
    <g id="ytick_7">
     <g id="line2d_61">
      <g>
       <use xlink:href="#maa2b135b56" x="40.12" y="306.7392" style="stroke: #000000; stroke-width: 0.8"/>
      </g>
     </g>
     <g id="text_17">
      <!-- 0V -->
      <g transform="translate(19.916875 310.538419) scale(0.1 -0.1)">
       <use xlink:href="#DejaVuSans-30"/>
       <use xlink:href="#DejaVuSans-56" transform="translate(63.623047 0)"/>
      </g>
     </g>
    </g>
    <g id="ytick_8">
     <g id="line2d_62">
      <g>
       <use xlink:href="#maa2b135b56" x="40.12" y="266.7968" style="stroke: #000000; stroke-width: 0.8"/>
      </g>
     </g>
     <g id="text_18">
      <!-- VDD -->
      <g transform="translate(10.879375 270.596019) scale(0.1 -0.1)">
       <use xlink:href="#DejaVuSans-56"/>
       <use xlink:href="#DejaVuSans-44" transform="translate(68.408203 0)"/>
       <use xlink:href="#DejaVuSans-44" transform="translate(145.410156 0)"/>
      </g>
     </g>
    </g>
   </g>
   <g id="line2d_63">
    <path d="M 40.12 306.7392 
L 91.8405 306.7392 
L 94.525342 266.7968 
L 143.561 266.7968 
L 146.244896 306.7392 
L 350.443 306.7392 
L 353.10612 266.7968 
L 402.1635 266.7968 
L 404.832407 306.7392 
L 557.325 306.7392 
L 557.325 306.7392 
" clip-path="url(#pea3cfa9a4c)" style="fill: none; stroke: #000000; stroke-opacity: 0.5; stroke-width: 3; stroke-linecap: square"/>
   </g>
   <g id="line2d_64">
    <path d="M 40.12 266.919643 
L 91.991729 266.950599 
L 92.347391 267.268733 
L 92.725287 268.094686 
L 93.172333 270.049325 
L 93.413722 272.218959 
L 94.007333 279.983428 
L 94.347712 280.96928 
L 94.787787 281.539233 
L 95.106085 281.652732 
L 95.952002 281.4872 
L 98.591279 280.674605 
L 100.912864 280.12347 
L 105.395905 279.324204 
L 110.782797 278.649817 
L 117.859683 278.020465 
L 126.564237 277.480688 
L 143.582604 276.844521 
L 144.224603 277.584442 
L 144.847125 277.730573 
L 145.158855 276.878819 
L 145.38555 275.033296 
L 145.963573 266.953846 
L 146.244896 266.799313 
L 151.343019 266.7987 
L 170.931179 266.897272 
L 171.313821 266.996749 
L 171.522103 266.793658 
L 176.034626 266.798457 
L 350.763278 266.740115 
L 350.998272 266.699867 
L 351.468258 266.83222 
L 351.699909 267.363022 
L 351.871637 268.459557 
L 352.182506 273.762127 
L 352.718148 284.942288 
L 353.10612 285.381143 
L 353.661833 286.325965 
L 354.23308 286.748188 
L 354.646036 286.849852 
L 355.791318 286.754463 
L 356.645839 286.483842 
L 357.92062 285.819639 
L 360.741831 283.938489 
L 362.088408 283.224955 
L 363.506061 282.611924 
L 365.874041 281.801704 
L 368.884553 281.027693 
L 372.791827 280.279712 
L 377.646701 279.590252 
L 384.183178 278.906329 
L 392.403012 278.280934 
L 402.228312 277.814323 
L 402.817382 278.394836 
L 403.282119 278.665335 
L 403.597391 278.374557 
L 403.851971 277.270964 
L 404.143054 273.9272 
L 404.62875 266.859333 
L 405.143133 266.798579 
L 512.003134 266.798612 
L 557.325 266.797705 
L 557.325 266.797705 
" clip-path="url(#pea3cfa9a4c)" style="fill: none; stroke-dasharray: 11.1,4.8; stroke-dashoffset: 0; stroke: #000000; stroke-width: 3"/>
   </g>
   <g id="patch_21">
    <path d="M 40.12 311.732 
L 40.12 261.804 
" style="fill: none; stroke: #000000; stroke-width: 0.8; stroke-linejoin: miter; stroke-linecap: square"/>
   </g>
   <g id="patch_22">
    <path d="M 557.325 311.732 
L 557.325 261.804 
" style="fill: none; stroke: #000000; stroke-width: 0.8; stroke-linejoin: miter; stroke-linecap: square"/>
   </g>
   <g id="patch_23">
    <path d="M 40.12 311.732 
L 557.325 311.732 
" style="fill: none; stroke: #000000; stroke-width: 0.8; stroke-linejoin: miter; stroke-linecap: square"/>
   </g>
   <g id="patch_24">
    <path d="M 40.12 261.804 
L 557.325 261.804 
" style="fill: none; stroke: #000000; stroke-width: 0.8; stroke-linejoin: miter; stroke-linecap: square"/>
   </g>
   <g id="legend_4">
    <g id="patch_25">
     <path d="M 473.870313 299.16025 
L 550.325 299.16025 
Q 552.325 299.16025 552.325 297.16025 
L 552.325 268.804 
Q 552.325 266.804 550.325 266.804 
L 473.870313 266.804 
Q 471.870313 266.804 471.870313 268.804 
L 471.870313 297.16025 
Q 471.870313 299.16025 473.870313 299.16025 
z
" style="fill: #ffffff; opacity: 0.8; stroke: #cccccc; stroke-linejoin: miter"/>
    </g>
    <g id="line2d_65">
     <path d="M 475.870313 274.902438 
L 485.870313 274.902438 
L 495.870313 274.902438 
" style="fill: none; stroke: #000000; stroke-opacity: 0.5; stroke-width: 3; stroke-linecap: square"/>
    </g>
    <g id="text_19">
     <!-- VDDONB -->
     <g transform="translate(503.870313 278.402438) scale(0.1 -0.1)">
      <defs>
       <path id="DejaVuSans-4f" d="M 2522 4238 
Q 1834 4238 1429 3725 
Q 1025 3213 1025 2328 
Q 1025 1447 1429 934 
Q 1834 422 2522 422 
Q 3209 422 3611 934 
Q 4013 1447 4013 2328 
Q 4013 3213 3611 3725 
Q 3209 4238 2522 4238 
z
M 2522 4750 
Q 3503 4750 4090 4092 
Q 4678 3434 4678 2328 
Q 4678 1225 4090 567 
Q 3503 -91 2522 -91 
Q 1538 -91 948 565 
Q 359 1222 359 2328 
Q 359 3434 948 4092 
Q 1538 4750 2522 4750 
z
" transform="scale(0.015625)"/>
       <path id="DejaVuSans-4e" d="M 628 4666 
L 1478 4666 
L 3547 763 
L 3547 4666 
L 4159 4666 
L 4159 0 
L 3309 0 
L 1241 3903 
L 1241 0 
L 628 0 
L 628 4666 
z
" transform="scale(0.015625)"/>
      </defs>
      <use xlink:href="#DejaVuSans-56"/>
      <use xlink:href="#DejaVuSans-44" transform="translate(68.408203 0)"/>
      <use xlink:href="#DejaVuSans-44" transform="translate(145.410156 0)"/>
      <use xlink:href="#DejaVuSans-4f" transform="translate(222.412109 0)"/>
      <use xlink:href="#DejaVuSans-4e" transform="translate(301.123047 0)"/>
      <use xlink:href="#DejaVuSans-42" transform="translate(375.927734 0)"/>
     </g>
    </g>
    <g id="line2d_66">
     <path d="M 475.870313 289.580563 
L 485.870313 289.580563 
L 495.870313 289.580563 
" style="fill: none; stroke-dasharray: 11.1,4.8; stroke-dashoffset: 0; stroke: #000000; stroke-width: 3"/>
    </g>
    <g id="text_20">
     <!-- VVDD -->
     <g transform="translate(503.870313 293.080563) scale(0.1 -0.1)">
      <use xlink:href="#DejaVuSans-56"/>
      <use xlink:href="#DejaVuSans-56" transform="translate(68.408203 0)"/>
      <use xlink:href="#DejaVuSans-44" transform="translate(136.816406 0)"/>
      <use xlink:href="#DejaVuSans-44" transform="translate(213.818359 0)"/>
     </g>
    </g>
   </g>
  </g>
  <g id="axes_5">
   <g id="patch_26">
    <path d="M 40.12 390.04 
L 557.325 390.04 
L 557.325 340.112 
L 40.12 340.112 
z
" style="fill: #ffffff"/>
   </g>
   <g id="matplotlib.axis_9">
    <g id="xtick_45">
     <g id="line2d_67">
      <g>
       <use xlink:href="#m1e4e76ea52" x="40.12" y="390.04" style="stroke: #000000; stroke-width: 0.8"/>
      </g>
     </g>
     <g id="text_21">
      <!-- 0.0 -->
      <g transform="translate(32.168438 404.638438) scale(0.1 -0.1)">
       <use xlink:href="#DejaVuSans-30"/>
       <use xlink:href="#DejaVuSans-2e" transform="translate(63.623047 0)"/>
       <use xlink:href="#DejaVuSans-30" transform="translate(95.410156 0)"/>
      </g>
     </g>
    </g>
    <g id="xtick_46">
     <g id="line2d_68">
      <g>
       <use xlink:href="#m1e4e76ea52" x="91.8405" y="390.04" style="stroke: #000000; stroke-width: 0.8"/>
      </g>
     </g>
     <g id="text_22">
      <!-- 0.2 -->
      <g transform="translate(83.888937 404.638438) scale(0.1 -0.1)">
       <defs>
        <path id="DejaVuSans-32" d="M 1228 531 
L 3431 531 
L 3431 0 
L 469 0 
L 469 531 
Q 828 903 1448 1529 
Q 2069 2156 2228 2338 
Q 2531 2678 2651 2914 
Q 2772 3150 2772 3378 
Q 2772 3750 2511 3984 
Q 2250 4219 1831 4219 
Q 1534 4219 1204 4116 
Q 875 4013 500 3803 
L 500 4441 
Q 881 4594 1212 4672 
Q 1544 4750 1819 4750 
Q 2544 4750 2975 4387 
Q 3406 4025 3406 3419 
Q 3406 3131 3298 2873 
Q 3191 2616 2906 2266 
Q 2828 2175 2409 1742 
Q 1991 1309 1228 531 
z
" transform="scale(0.015625)"/>
       </defs>
       <use xlink:href="#DejaVuSans-30"/>
       <use xlink:href="#DejaVuSans-2e" transform="translate(63.623047 0)"/>
       <use xlink:href="#DejaVuSans-32" transform="translate(95.410156 0)"/>
      </g>
     </g>
    </g>
    <g id="xtick_47">
     <g id="line2d_69">
      <g>
       <use xlink:href="#m1e4e76ea52" x="143.561" y="390.04" style="stroke: #000000; stroke-width: 0.8"/>
      </g>
     </g>
     <g id="text_23">
      <!-- 0.4 -->
      <g transform="translate(135.609437 404.638438) scale(0.1 -0.1)">
       <use xlink:href="#DejaVuSans-30"/>
       <use xlink:href="#DejaVuSans-2e" transform="translate(63.623047 0)"/>
       <use xlink:href="#DejaVuSans-34" transform="translate(95.410156 0)"/>
      </g>
     </g>
    </g>
    <g id="xtick_48">
     <g id="line2d_70">
      <g>
       <use xlink:href="#m1e4e76ea52" x="195.2815" y="390.04" style="stroke: #000000; stroke-width: 0.8"/>
      </g>
     </g>
     <g id="text_24">
      <!-- 0.6 -->
      <g transform="translate(187.329938 404.638438) scale(0.1 -0.1)">
       <defs>
        <path id="DejaVuSans-36" d="M 2113 2584 
Q 1688 2584 1439 2293 
Q 1191 2003 1191 1497 
Q 1191 994 1439 701 
Q 1688 409 2113 409 
Q 2538 409 2786 701 
Q 3034 994 3034 1497 
Q 3034 2003 2786 2293 
Q 2538 2584 2113 2584 
z
M 3366 4563 
L 3366 3988 
Q 3128 4100 2886 4159 
Q 2644 4219 2406 4219 
Q 1781 4219 1451 3797 
Q 1122 3375 1075 2522 
Q 1259 2794 1537 2939 
Q 1816 3084 2150 3084 
Q 2853 3084 3261 2657 
Q 3669 2231 3669 1497 
Q 3669 778 3244 343 
Q 2819 -91 2113 -91 
Q 1303 -91 875 529 
Q 447 1150 447 2328 
Q 447 3434 972 4092 
Q 1497 4750 2381 4750 
Q 2619 4750 2861 4703 
Q 3103 4656 3366 4563 
z
" transform="scale(0.015625)"/>
       </defs>
       <use xlink:href="#DejaVuSans-30"/>
       <use xlink:href="#DejaVuSans-2e" transform="translate(63.623047 0)"/>
       <use xlink:href="#DejaVuSans-36" transform="translate(95.410156 0)"/>
      </g>
     </g>
    </g>
    <g id="xtick_49">
     <g id="line2d_71">
      <g>
       <use xlink:href="#m1e4e76ea52" x="247.002" y="390.04" style="stroke: #000000; stroke-width: 0.8"/>
      </g>
     </g>
     <g id="text_25">
      <!-- 0.8 -->
      <g transform="translate(239.050437 404.638438) scale(0.1 -0.1)">
       <defs>
        <path id="DejaVuSans-38" d="M 2034 2216 
Q 1584 2216 1326 1975 
Q 1069 1734 1069 1313 
Q 1069 891 1326 650 
Q 1584 409 2034 409 
Q 2484 409 2743 651 
Q 3003 894 3003 1313 
Q 3003 1734 2745 1975 
Q 2488 2216 2034 2216 
z
M 1403 2484 
Q 997 2584 770 2862 
Q 544 3141 544 3541 
Q 544 4100 942 4425 
Q 1341 4750 2034 4750 
Q 2731 4750 3128 4425 
Q 3525 4100 3525 3541 
Q 3525 3141 3298 2862 
Q 3072 2584 2669 2484 
Q 3125 2378 3379 2068 
Q 3634 1759 3634 1313 
Q 3634 634 3220 271 
Q 2806 -91 2034 -91 
Q 1263 -91 848 271 
Q 434 634 434 1313 
Q 434 1759 690 2068 
Q 947 2378 1403 2484 
z
M 1172 3481 
Q 1172 3119 1398 2916 
Q 1625 2713 2034 2713 
Q 2441 2713 2670 2916 
Q 2900 3119 2900 3481 
Q 2900 3844 2670 4047 
Q 2441 4250 2034 4250 
Q 1625 4250 1398 4047 
Q 1172 3844 1172 3481 
z
" transform="scale(0.015625)"/>
       </defs>
       <use xlink:href="#DejaVuSans-30"/>
       <use xlink:href="#DejaVuSans-2e" transform="translate(63.623047 0)"/>
       <use xlink:href="#DejaVuSans-38" transform="translate(95.410156 0)"/>
      </g>
     </g>
    </g>
    <g id="xtick_50">
     <g id="line2d_72">
      <g>
       <use xlink:href="#m1e4e76ea52" x="298.7225" y="390.04" style="stroke: #000000; stroke-width: 0.8"/>
      </g>
     </g>
     <g id="text_26">
      <!-- 1.0 -->
      <g transform="translate(290.770937 404.638438) scale(0.1 -0.1)">
       <defs>
        <path id="DejaVuSans-31" d="M 794 531 
L 1825 531 
L 1825 4091 
L 703 3866 
L 703 4441 
L 1819 4666 
L 2450 4666 
L 2450 531 
L 3481 531 
L 3481 0 
L 794 0 
L 794 531 
z
" transform="scale(0.015625)"/>
       </defs>
       <use xlink:href="#DejaVuSans-31"/>
       <use xlink:href="#DejaVuSans-2e" transform="translate(63.623047 0)"/>
       <use xlink:href="#DejaVuSans-30" transform="translate(95.410156 0)"/>
      </g>
     </g>
    </g>
    <g id="xtick_51">
     <g id="line2d_73">
      <g>
       <use xlink:href="#m1e4e76ea52" x="350.443" y="390.04" style="stroke: #000000; stroke-width: 0.8"/>
      </g>
     </g>
     <g id="text_27">
      <!-- 1.2 -->
      <g transform="translate(342.491438 404.638438) scale(0.1 -0.1)">
       <use xlink:href="#DejaVuSans-31"/>
       <use xlink:href="#DejaVuSans-2e" transform="translate(63.623047 0)"/>
       <use xlink:href="#DejaVuSans-32" transform="translate(95.410156 0)"/>
      </g>
     </g>
    </g>
    <g id="xtick_52">
     <g id="line2d_74">
      <g>
       <use xlink:href="#m1e4e76ea52" x="402.1635" y="390.04" style="stroke: #000000; stroke-width: 0.8"/>
      </g>
     </g>
     <g id="text_28">
      <!-- 1.4 -->
      <g transform="translate(394.211937 404.638438) scale(0.1 -0.1)">
       <use xlink:href="#DejaVuSans-31"/>
       <use xlink:href="#DejaVuSans-2e" transform="translate(63.623047 0)"/>
       <use xlink:href="#DejaVuSans-34" transform="translate(95.410156 0)"/>
      </g>
     </g>
    </g>
    <g id="xtick_53">
     <g id="line2d_75">
      <g>
       <use xlink:href="#m1e4e76ea52" x="453.884" y="390.04" style="stroke: #000000; stroke-width: 0.8"/>
      </g>
     </g>
     <g id="text_29">
      <!-- 1.6 -->
      <g transform="translate(445.932437 404.638438) scale(0.1 -0.1)">
       <use xlink:href="#DejaVuSans-31"/>
       <use xlink:href="#DejaVuSans-2e" transform="translate(63.623047 0)"/>
       <use xlink:href="#DejaVuSans-36" transform="translate(95.410156 0)"/>
      </g>
     </g>
    </g>
    <g id="xtick_54">
     <g id="line2d_76">
      <g>
       <use xlink:href="#m1e4e76ea52" x="505.6045" y="390.04" style="stroke: #000000; stroke-width: 0.8"/>
      </g>
     </g>
     <g id="text_30">
      <!-- 1.8 -->
      <g transform="translate(497.652938 404.638438) scale(0.1 -0.1)">
       <use xlink:href="#DejaVuSans-31"/>
       <use xlink:href="#DejaVuSans-2e" transform="translate(63.623047 0)"/>
       <use xlink:href="#DejaVuSans-38" transform="translate(95.410156 0)"/>
      </g>
     </g>
    </g>
    <g id="xtick_55">
     <g id="line2d_77">
      <g>
       <use xlink:href="#m1e4e76ea52" x="557.325" y="390.04" style="stroke: #000000; stroke-width: 0.8"/>
      </g>
     </g>
     <g id="text_31">
      <!-- 2.0 -->
      <g transform="translate(549.373437 404.638438) scale(0.1 -0.1)">
       <use xlink:href="#DejaVuSans-32"/>
       <use xlink:href="#DejaVuSans-2e" transform="translate(63.623047 0)"/>
       <use xlink:href="#DejaVuSans-30" transform="translate(95.410156 0)"/>
      </g>
     </g>
    </g>
    <g id="text_32">
     <!-- Time (s) -->
     <g transform="translate(278.393594 418.316563) scale(0.1 -0.1)">
      <use xlink:href="#DejaVuSans-54"/>
      <use xlink:href="#DejaVuSans-69" transform="translate(57.958984 0)"/>
      <use xlink:href="#DejaVuSans-6d" transform="translate(85.742188 0)"/>
      <use xlink:href="#DejaVuSans-65" transform="translate(183.154297 0)"/>
      <use xlink:href="#DejaVuSans-20" transform="translate(244.677734 0)"/>
      <use xlink:href="#DejaVuSans-28" transform="translate(276.464844 0)"/>
      <use xlink:href="#DejaVuSans-73" transform="translate(315.478516 0)"/>
      <use xlink:href="#DejaVuSans-29" transform="translate(367.578125 0)"/>
     </g>
    </g>
    <g id="text_33">
     <!-- 1e5 -->
     <g transform="translate(530.067188 417.316563) scale(0.1 -0.1)">
      <defs>
       <path id="DejaVuSans-2212" d="M 678 2272 
L 4684 2272 
L 4684 1741 
L 678 1741 
L 678 2272 
z
" transform="scale(0.015625)"/>
       <path id="DejaVuSans-35" d="M 691 4666 
L 3169 4666 
L 3169 4134 
L 1269 4134 
L 1269 2991 
Q 1406 3038 1543 3061 
Q 1681 3084 1819 3084 
Q 2600 3084 3056 2656 
Q 3513 2228 3513 1497 
Q 3513 744 3044 326 
Q 2575 -91 1722 -91 
Q 1428 -91 1123 -41 
Q 819 9 494 109 
L 494 744 
Q 775 591 1075 516 
Q 1375 441 1709 441 
Q 2250 441 2565 725 
Q 2881 1009 2881 1497 
Q 2881 1984 2565 2268 
Q 2250 2553 1709 2553 
Q 1456 2553 1204 2497 
Q 953 2441 691 2322 
L 691 4666 
z
" transform="scale(0.015625)"/>
      </defs>
      <use xlink:href="#DejaVuSans-31"/>
      <use xlink:href="#DejaVuSans-65" transform="translate(63.623047 0)"/>
      <use xlink:href="#DejaVuSans-2212" transform="translate(125.146484 0)"/>
      <use xlink:href="#DejaVuSans-35" transform="translate(208.935547 0)"/>
     </g>
    </g>
   </g>
   <g id="matplotlib.axis_10">
    <g id="ytick_9">
     <g id="line2d_78">
      <g>
       <use xlink:href="#maa2b135b56" x="40.12" y="385.0472" style="stroke: #000000; stroke-width: 0.8"/>
      </g>
     </g>
     <g id="text_34">
      <!-- 0V -->
      <g transform="translate(19.916875 388.846419) scale(0.1 -0.1)">
       <use xlink:href="#DejaVuSans-30"/>
       <use xlink:href="#DejaVuSans-56" transform="translate(63.623047 0)"/>
      </g>
     </g>
    </g>
    <g id="ytick_10">
     <g id="line2d_79">
      <g>
       <use xlink:href="#maa2b135b56" x="40.12" y="345.1048" style="stroke: #000000; stroke-width: 0.8"/>
      </g>
     </g>
     <g id="text_35">
      <!-- VDD -->
      <g transform="translate(10.879375 348.904019) scale(0.1 -0.1)">
       <use xlink:href="#DejaVuSans-56"/>
       <use xlink:href="#DejaVuSans-44" transform="translate(68.408203 0)"/>
       <use xlink:href="#DejaVuSans-44" transform="translate(145.410156 0)"/>
      </g>
     </g>
    </g>
   </g>
   <g id="line2d_80">
    <path d="M 40.12 385.0472 
L 169.42125 385.0472 
L 172.096615 345.1048 
L 272.86225 345.1048 
L 275.527559 385.0472 
L 428.02375 385.0472 
L 430.674587 345.1048 
L 531.46475 345.1048 
L 534.144544 385.0472 
L 557.325 385.0472 
L 557.325 385.0472 
" clip-path="url(#p166c90b1db)" style="fill: none; stroke: #000000; stroke-opacity: 0.5; stroke-width: 3; stroke-linecap: square"/>
   </g>
   <g id="line2d_81">
    <path d="M 40.12 345.104828 
L 144.847125 345.015672 
L 147.463189 344.90427 
L 171.36784 344.996917 
L 171.522103 345.676954 
L 171.753418 347.716654 
L 172.096615 354.08367 
L 173.196121 376.532509 
L 173.583596 382.069512 
L 173.825046 383.855053 
L 174.047011 384.595494 
L 174.354017 384.954097 
L 174.918506 385.041608 
L 184.003346 385.046231 
L 274.07118 385.11616 
L 274.758671 383.805112 
L 275.103473 380.951657 
L 275.405175 374.377758 
L 275.990719 356.430751 
L 276.356937 349.212463 
L 276.74854 345.696824 
L 277.178386 345.12067 
L 279.14595 345.105635 
L 403.597391 345.002679 
L 405.49825 344.903576 
L 430.447395 344.802012 
L 433.037782 344.795466 
L 533.265821 344.900597 
L 536.545708 344.935629 
L 557.325 344.939714 
L 557.325 344.939714 
" clip-path="url(#p166c90b1db)" style="fill: none; stroke-dasharray: 11.1,4.8; stroke-dashoffset: 0; stroke: #000000; stroke-width: 3"/>
   </g>
   <g id="patch_27">
    <path d="M 40.12 390.04 
L 40.12 340.112 
" style="fill: none; stroke: #000000; stroke-width: 0.8; stroke-linejoin: miter; stroke-linecap: square"/>
   </g>
   <g id="patch_28">
    <path d="M 557.325 390.04 
L 557.325 340.112 
" style="fill: none; stroke: #000000; stroke-width: 0.8; stroke-linejoin: miter; stroke-linecap: square"/>
   </g>
   <g id="patch_29">
    <path d="M 40.12 390.04 
L 557.325 390.04 
" style="fill: none; stroke: #000000; stroke-width: 0.8; stroke-linejoin: miter; stroke-linecap: square"/>
   </g>
   <g id="patch_30">
    <path d="M 40.12 340.112 
L 557.325 340.112 
" style="fill: none; stroke: #000000; stroke-width: 0.8; stroke-linejoin: miter; stroke-linecap: square"/>
   </g>
   <g id="legend_5">
    <g id="patch_31">
     <path d="M 496.317188 377.46825 
L 550.325 377.46825 
Q 552.325 377.46825 552.325 375.46825 
L 552.325 347.112 
Q 552.325 345.112 550.325 345.112 
L 496.317188 345.112 
Q 494.317188 345.112 494.317188 347.112 
L 494.317188 375.46825 
Q 494.317188 377.46825 496.317188 377.46825 
z
" style="fill: #ffffff; opacity: 0.8; stroke: #cccccc; stroke-linejoin: miter"/>
    </g>
    <g id="line2d_82">
     <path d="M 498.317188 353.210438 
L 508.317188 353.210438 
L 518.317188 353.210438 
" style="fill: none; stroke: #000000; stroke-opacity: 0.5; stroke-width: 3; stroke-linecap: square"/>
    </g>
    <g id="text_36">
     <!-- RWL -->
     <g transform="translate(526.317188 356.710438) scale(0.1 -0.1)">
      <use xlink:href="#DejaVuSans-52"/>
      <use xlink:href="#DejaVuSans-57" transform="translate(65.482422 0)"/>
      <use xlink:href="#DejaVuSans-4c" transform="translate(164.359375 0)"/>
     </g>
    </g>
    <g id="line2d_83">
     <path d="M 498.317188 367.888563 
L 508.317188 367.888563 
L 518.317188 367.888563 
" style="fill: none; stroke-dasharray: 11.1,4.8; stroke-dashoffset: 0; stroke: #000000; stroke-width: 3"/>
    </g>
    <g id="text_37">
     <!-- RBL -->
     <g transform="translate(526.317188 371.388563) scale(0.1 -0.1)">
      <use xlink:href="#DejaVuSans-52"/>
      <use xlink:href="#DejaVuSans-42" transform="translate(69.482422 0)"/>
      <use xlink:href="#DejaVuSans-4c" transform="translate(138.085938 0)"/>
     </g>
    </g>
   </g>
  </g>
 </g>
 <defs>
  <clipPath id="pab9aaaacaf">
   <rect x="40.12" y="26.88" width="517.205" height="49.928"/>
  </clipPath>
  <clipPath id="p63f63c3381">
   <rect x="40.12" y="105.188" width="517.205" height="49.928"/>
  </clipPath>
  <clipPath id="p61b57f6f10">
   <rect x="40.12" y="183.496" width="517.205" height="49.928"/>
  </clipPath>
  <clipPath id="pea3cfa9a4c">
   <rect x="40.12" y="261.804" width="517.205" height="49.928"/>
  </clipPath>
  <clipPath id="p166c90b1db">
   <rect x="40.12" y="340.112" width="517.205" height="49.928"/>
  </clipPath>
 </defs>
</svg>
