<?xml version="1.0" encoding="utf-8" standalone="no"?>
<!DOCTYPE svg PUBLIC "-//W3C//DTD SVG 1.1//EN"
  "http://www.w3.org/Graphics/SVG/1.1/DTD/svg11.dtd">
<svg xmlns:xlink="http://www.w3.org/1999/xlink" width="576pt" height="288pt" viewBox="0 0 576 288" xmlns="http://www.w3.org/2000/svg" version="1.1">
 <metadata>
  <rdf:RDF xmlns:dc="http://purl.org/dc/elements/1.1/" xmlns:cc="http://creativecommons.org/ns#" xmlns:rdf="http://www.w3.org/1999/02/22-rdf-syntax-ns#">
   <cc:Work>
    <dc:type rdf:resource="http://purl.org/dc/dcmitype/StillImage"/>
    <dc:date>2025-05-12T17:25:39.507787</dc:date>
    <dc:format>image/svg+xml</dc:format>
    <dc:creator>
     <cc:Agent>
      <dc:title>Matplotlib v3.10.1, https://matplotlib.org/</dc:title>
     </cc:Agent>
    </dc:creator>
   </cc:Work>
  </rdf:RDF>
 </metadata>
 <defs>
  <style type="text/css">*{stroke-linejoin: round; stroke-linecap: butt}</style>
 </defs>
 <g id="figure_1">
  <g id="patch_1">
   <path d="M 0 288 
L 576 288 
L 576 0 
L 0 0 
z
" style="fill: #ffffff"/>
  </g>
  <g id="axes_1">
   <g id="patch_2">
    <path d="M 43.54 137.032819 
L 565.2 137.032819 
L 565.2 10.8 
L 43.54 10.8 
z
" style="fill: #ffffff"/>
   </g>
   <g id="matplotlib.axis_1">
    <g id="ytick_1">
     <g id="line2d_1">
      <defs>
       <path id="m00edd59bac" d="M 0 0 
L -3.5 0 
" style="stroke: #000000; stroke-width: 0.8"/>
      </defs>
      <g>
       <use xlink:href="#m00edd59bac" x="43.54" y="131.367595" style="stroke: #000000; stroke-width: 0.8"/>
      </g>
     </g>
     <g id="text_1">
      <!-- 0 V -->
      <g transform="translate(20.15875 135.166814) scale(0.1 -0.1)">
       <defs>
        <path id="DejaVuSans-30" d="M 2034 4250 
Q 1547 4250 1301 3770 
Q 1056 3291 1056 2328 
Q 1056 1369 1301 889 
Q 1547 409 2034 409 
Q 2525 409 2770 889 
Q 3016 1369 3016 2328 
Q 3016 3291 2770 3770 
Q 2525 4250 2034 4250 
z
M 2034 4750 
Q 2819 4750 3233 4129 
Q 3647 3509 3647 2328 
Q 3647 1150 3233 529 
Q 2819 -91 2034 -91 
Q 1250 -91 836 529 
Q 422 1150 422 2328 
Q 422 3509 836 4129 
Q 1250 4750 2034 4750 
z
" transform="scale(0.015625)"/>
        <path id="DejaVuSans-20" transform="scale(0.015625)"/>
        <path id="DejaVuSans-56" d="M 1831 0 
L 50 4666 
L 709 4666 
L 2188 738 
L 3669 4666 
L 4325 4666 
L 2547 0 
L 1831 0 
z
" transform="scale(0.015625)"/>
       </defs>
       <use xlink:href="#DejaVuSans-30"/>
       <use xlink:href="#DejaVuSans-20" transform="translate(63.623047 0)"/>
       <use xlink:href="#DejaVuSans-56" transform="translate(95.410156 0)"/>
      </g>
     </g>
    </g>
    <g id="ytick_2">
     <g id="line2d_2">
      <g>
       <use xlink:href="#m00edd59bac" x="43.54" y="21.584253" style="stroke: #000000; stroke-width: 0.8"/>
      </g>
     </g>
     <g id="text_2">
      <!-- 3.3 V -->
      <g transform="translate(10.618125 25.383472) scale(0.1 -0.1)">
       <defs>
        <path id="DejaVuSans-33" d="M 2597 2516 
Q 3050 2419 3304 2112 
Q 3559 1806 3559 1356 
Q 3559 666 3084 287 
Q 2609 -91 1734 -91 
Q 1441 -91 1130 -33 
Q 819 25 488 141 
L 488 750 
Q 750 597 1062 519 
Q 1375 441 1716 441 
Q 2309 441 2620 675 
Q 2931 909 2931 1356 
Q 2931 1769 2642 2001 
Q 2353 2234 1838 2234 
L 1294 2234 
L 1294 2753 
L 1863 2753 
Q 2328 2753 2575 2939 
Q 2822 3125 2822 3475 
Q 2822 3834 2567 4026 
Q 2313 4219 1838 4219 
Q 1578 4219 1281 4162 
Q 984 4106 628 3988 
L 628 4550 
Q 988 4650 1302 4700 
Q 1616 4750 1894 4750 
Q 2613 4750 3031 4423 
Q 3450 4097 3450 3541 
Q 3450 3153 3228 2886 
Q 3006 2619 2597 2516 
z
" transform="scale(0.015625)"/>
        <path id="DejaVuSans-2e" d="M 684 794 
L 1344 794 
L 1344 0 
L 684 0 
L 684 794 
z
" transform="scale(0.015625)"/>
       </defs>
       <use xlink:href="#DejaVuSans-33"/>
       <use xlink:href="#DejaVuSans-2e" transform="translate(63.623047 0)"/>
       <use xlink:href="#DejaVuSans-33" transform="translate(95.410156 0)"/>
       <use xlink:href="#DejaVuSans-20" transform="translate(159.033203 0)"/>
       <use xlink:href="#DejaVuSans-56" transform="translate(190.820312 0)"/>
      </g>
     </g>
    </g>
   </g>
   <g id="line2d_3">
    <path d="M 43.396094 130.873636 
L 43.683906 130.695967 
L 43.971719 130.924398 
L 44.259531 130.320325 
L 44.547343 110.644798 
L 44.835156 30.841151 
L 45.122968 22.110015 
L 45.410781 20.81048 
L 45.698593 20.307938 
L 46.274218 20.323175 
L 46.56203 20.241935 
L 46.849843 20.373942 
L 47.137655 20.241935 
L 47.425468 20.597301 
L 47.71328 20.389178 
L 48.001092 20.663271 
L 48.576717 20.292702 
L 48.86453 20.551591 
L 49.152342 20.353615 
L 49.440154 20.516061 
L 49.727967 20.500824 
L 50.015779 20.338412 
L 50.591404 20.404381 
L 51.167029 20.617594 
L 51.454841 20.404381 
L 51.742654 20.729274 
L 52.030466 20.78004 
L 52.318279 20.566828 
L 52.893903 20.419618 
L 53.181716 20.6988 
L 53.757341 20.500824 
L 54.332966 20.648067 
L 54.620778 20.307938 
L 54.90859 20.663271 
L 55.196403 20.485621 
L 55.484215 20.551591 
L 55.772028 20.338412 
L 56.347652 20.373942 
L 57.21109 20.566828 
L 57.498902 20.678507 
L 58.074527 20.160729 
L 58.650152 20.617594 
L 58.937964 40.288041 
L 59.225777 120.436877 
L 59.513589 128.970044 
L 59.801401 130.416774 
L 60.089214 130.843178 
L 60.377026 130.741653 
L 60.664839 130.807644 
L 61.240463 130.660433 
L 61.528276 130.792416 
L 62.103901 130.629976 
L 62.679526 130.726425 
L 62.967338 110.451902 
L 63.25515 30.841151 
L 63.542963 22.145545 
L 64.118588 20.323175 
L 64.694212 20.566828 
L 64.982025 20.455148 
L 65.269837 20.551591 
L 65.55765 20.307938 
L 65.845462 20.536388 
L 66.133274 20.434855 
L 66.421087 20.455148 
L 66.708899 20.211495 
L 67.284524 20.663271 
L 67.860149 20.455148 
L 68.147961 20.470385 
L 68.435774 20.597301 
L 68.723586 20.566828 
L 69.011399 20.338412 
L 69.299211 20.729274 
L 69.587023 20.516061 
L 69.874836 20.714037 
L 70.162648 20.455148 
L 70.450461 20.536388 
L 70.738273 20.353615 
L 71.026086 20.485621 
L 71.313898 20.470385 
L 71.60171 20.714037 
L 71.889523 20.226732 
L 72.177335 20.272409 
L 72.465148 20.729274 
L 73.328585 20.500824 
L 73.616397 20.582064 
L 73.90421 20.323175 
L 74.479834 20.617594 
L 74.767647 20.404381 
L 75.343272 20.470385 
L 75.631084 20.353615 
L 75.918897 20.729274 
L 76.206709 20.241935 
L 76.494521 20.840953 
L 76.782334 20.6988 
L 77.070146 20.404381 
L 77.357959 40.044388 
L 77.645771 120.436877 
L 77.933583 129.117255 
L 78.221396 130.401545 
L 78.509208 131.066533 
L 79.084833 130.904093 
L 79.372646 130.924398 
L 79.660458 130.761958 
L 80.236083 130.843178 
L 81.09952 130.437079 
L 81.387332 111.456999 
L 81.675145 30.957921 
L 81.962957 22.145545 
L 82.25077 20.876483 
L 82.538582 20.272409 
L 82.826394 20.470385 
L 83.402019 20.500824 
L 83.689832 20.648067 
L 83.977644 20.257172 
L 84.265457 20.597301 
L 84.553269 20.6988 
L 85.704519 20.338412 
L 86.567956 20.455148 
L 86.855768 20.470385 
L 87.431393 20.307938 
L 87.719206 20.551591 
L 88.29483 20.597301 
L 88.582643 20.323175 
L 88.870455 20.470385 
L 89.158268 20.485621 
L 89.733892 20.404381 
L 90.885142 20.566828 
L 91.172954 20.470385 
L 91.460767 20.582064 
L 91.748579 20.419618 
L 92.324204 20.516061 
L 92.612017 20.353615 
L 92.899829 20.373942 
L 93.187641 20.551591 
L 93.475454 20.485621 
L 93.763266 20.241935 
L 94.051079 20.551591 
L 94.338891 20.404381 
L 95.490141 20.632831 
L 95.777953 39.947945 
L 96.065766 120.660229 
L 96.353578 129.066492 
L 96.929203 130.954855 
L 97.217015 130.807644 
L 97.79264 130.792416 
L 98.080452 130.924398 
L 98.368265 130.695967 
L 98.656077 130.873636 
L 98.94389 130.614747 
L 99.231702 130.711196 
L 99.519514 130.614747 
L 99.807327 112.792051 
L 100.095139 30.07972 
L 100.382952 21.313055 
L 100.670764 21.089696 
L 100.958577 20.404381 
L 101.246389 20.292702 
L 102.109826 20.485621 
L 102.397639 20.353615 
L 102.973263 20.617594 
L 103.261076 20.323175 
L 103.548888 20.211495 
L 103.836701 20.419618 
L 104.700138 20.323175 
L 104.98795 20.566828 
L 105.275763 20.617594 
L 105.563575 20.323175 
L 106.1392 20.551591 
L 107.002637 20.434855 
L 107.29045 20.617594 
L 107.866074 20.582064 
L 108.153887 20.617594 
L 108.729512 20.323175 
L 109.017324 20.536388 
L 109.880761 20.404381 
L 110.168574 20.617594 
L 110.456386 20.470385 
L 110.744199 20.663271 
L 111.032011 20.373942 
L 111.319823 20.536388 
L 111.607636 20.434855 
L 112.183261 20.678507 
L 112.758886 20.419618 
L 113.046698 20.551591 
L 113.33451 20.373942 
L 113.622323 20.678507 
L 113.910135 20.678507 
L 114.197948 39.689056 
L 114.48576 120.599316 
L 114.773572 129.005577 
L 115.061385 130.482765 
L 115.349197 130.888864 
L 115.63701 130.680738 
L 115.924822 130.843178 
L 116.212634 130.807644 
L 116.500447 130.614747 
L 116.788259 130.614747 
L 117.076072 130.873636 
L 117.651697 130.807644 
L 117.939509 130.680738 
L 118.227321 111.720964 
L 118.515134 30.922358 
L 118.802946 22.373961 
L 119.090759 20.906956 
L 119.378571 20.404381 
L 119.666383 20.226732 
L 119.954196 20.582064 
L 120.242008 20.353615 
L 120.529821 20.648067 
L 120.817633 20.404381 
L 121.105446 20.434855 
L 121.393258 20.648067 
L 121.68107 20.617594 
L 122.256695 20.434855 
L 123.120132 20.338412 
L 123.407945 20.582064 
L 123.98357 20.404381 
L 124.271382 20.6988 
L 124.559194 20.500824 
L 124.847007 20.617594 
L 125.710444 20.582064 
L 125.998257 20.74451 
L 126.286069 20.500824 
L 126.573881 20.455148 
L 126.861694 20.536388 
L 127.149506 20.373942 
L 127.725131 20.6988 
L 128.300756 20.795277 
L 128.876381 20.455148 
L 129.164193 20.632831 
L 129.452006 20.434855 
L 129.739818 20.455148 
L 130.315443 20.795277 
L 130.603255 20.516061 
L 132.33013 20.338412 
L 132.617942 39.460607 
L 132.905754 120.238901 
L 133.193567 129.005577 
L 133.769192 131.086838 
L 134.057004 131.005618 
L 134.344817 130.726425 
L 135.208254 130.695967 
L 135.496066 130.873636 
L 135.783879 130.629976 
L 136.071691 130.873636 
L 136.359503 130.873636 
L 136.647316 111.786954 
L 136.935128 31.003597 
L 137.222941 22.257225 
L 137.510753 21.054166 
L 137.798566 20.338412 
L 138.37419 20.434855 
L 138.662003 20.373942 
L 138.949815 20.516061 
L 139.237628 20.353615 
L 139.813252 20.566828 
L 140.101065 20.434855 
L 140.388877 20.78004 
L 140.67669 20.566828 
L 140.964502 20.729274 
L 141.540127 20.419618 
L 141.827939 20.6988 
L 142.979189 20.404381 
L 143.267001 20.632831 
L 143.842626 20.404381 
L 144.130439 20.663271 
L 144.418251 20.551591 
L 144.706063 20.714037 
L 144.993876 20.714037 
L 145.569501 20.389178 
L 145.857313 20.632831 
L 146.145126 20.516061 
L 146.432938 20.551591 
L 146.72075 20.419618 
L 147.008563 20.663271 
L 147.584188 20.434855 
L 147.872 20.551591 
L 148.159812 20.840953 
L 148.447625 20.551591 
L 148.735437 20.759714 
L 149.598874 20.678507 
L 149.886687 20.729274 
L 150.174499 20.617594 
L 150.462312 20.795277 
L 150.750124 20.455148 
L 151.037937 39.379401 
L 151.325749 120.57901 
L 151.613561 129.117255 
L 151.901374 130.401545 
L 152.189186 130.954855 
L 152.476999 130.888864 
L 152.764811 131.051304 
L 153.052623 130.777187 
L 153.340436 130.843178 
L 154.203873 130.533527 
L 154.491686 130.741653 
L 154.779498 130.660433 
L 155.06731 111.97985 
L 155.355123 31.003597 
L 155.642935 22.353668 
L 155.930748 20.825717 
L 156.21856 20.536388 
L 156.506372 20.566828 
L 156.794185 20.389178 
L 157.081997 20.597301 
L 157.36981 20.597301 
L 157.657622 20.470385 
L 159.672309 20.663271 
L 159.960121 20.455148 
L 160.247934 20.500824 
L 160.535746 20.389178 
L 160.823559 20.516061 
L 161.111371 20.373942 
L 161.399183 20.632831 
L 161.686996 20.566828 
L 162.262621 20.663271 
L 162.838246 20.536388 
L 163.701683 20.678507 
L 164.277308 20.500824 
L 165.140745 20.663271 
L 166.579807 20.485621 
L 166.867619 20.714037 
L 167.443244 20.729274 
L 167.731057 20.536388 
L 168.018869 20.500824 
L 168.306681 20.582064 
L 169.170119 20.455148 
L 169.457931 39.216955 
L 169.745743 120.467333 
L 170.033556 128.888824 
L 170.321368 130.467536 
L 170.609181 131.036075 
L 171.184806 130.792416 
L 171.472618 130.822873 
L 171.76043 130.629976 
L 172.336055 130.695967 
L 172.623868 130.904093 
L 172.91168 130.904093 
L 173.199492 130.761958 
L 173.487305 111.314862 
L 173.775117 30.795475 
L 174.06293 23.267398 
L 174.350742 20.92216 
L 174.638554 20.470385 
L 174.926367 20.323175 
L 175.214179 20.714037 
L 175.501992 20.307938 
L 175.789804 20.470385 
L 176.077617 20.500824 
L 176.365429 20.404381 
L 176.653241 20.485621 
L 177.228866 20.455148 
L 177.804491 20.597301 
L 178.092303 20.632831 
L 178.380116 20.536388 
L 178.667928 20.759714 
L 179.243553 20.582064 
L 179.531366 20.373942 
L 179.819178 20.74451 
L 180.10699 20.759714 
L 180.394803 20.663271 
L 180.682615 20.404381 
L 180.970428 20.632831 
L 182.121677 20.678507 
L 182.40949 20.500824 
L 182.985114 20.551591 
L 183.560739 20.825717 
L 183.848552 20.500824 
L 184.424177 20.840953 
L 184.999801 20.389178 
L 185.287614 20.434855 
L 185.575426 20.6988 
L 185.863239 20.485621 
L 186.151051 20.663271 
L 186.438863 20.500824 
L 186.726676 20.160729 
L 187.014488 20.632831 
L 187.590113 20.617594 
L 187.877926 38.958066 
L 188.165738 120.436877 
L 188.45355 129.005577 
L 188.741363 130.274639 
L 189.029175 130.843178 
L 189.316988 130.970084 
L 189.892612 130.792416 
L 190.180425 130.888864 
L 190.468237 130.629976 
L 191.331674 130.954855 
L 191.619487 130.843178 
L 191.907299 112.370722 
L 192.195112 31.166043 
L 192.482924 22.145545 
L 192.770737 20.81048 
L 193.058549 20.373942 
L 193.346361 20.617594 
L 193.634174 20.566828 
L 193.921986 20.353615 
L 194.497611 20.617594 
L 195.648861 20.632831 
L 195.936673 20.455148 
L 196.224486 20.74451 
L 196.80011 20.485621 
L 197.087923 20.582064 
L 197.375735 20.551591 
L 197.663548 20.729274 
L 198.526985 20.714037 
L 198.814797 20.582064 
L 199.390422 20.729274 
L 199.678234 20.551591 
L 200.253859 20.373942 
L 200.541672 20.825717 
L 201.117297 20.597301 
L 201.405109 20.648067 
L 201.692921 20.389178 
L 201.980734 20.566828 
L 202.268546 20.404381 
L 202.556359 20.632831 
L 203.131983 20.485621 
L 203.419796 20.759714 
L 203.995421 20.632831 
L 204.283233 20.617594 
L 204.571046 20.455148 
L 205.14667 20.663271 
L 205.434483 20.470385 
L 205.722295 20.617594 
L 206.010108 20.338412 
L 206.29792 38.501201 
L 206.585732 120.533323 
L 206.873545 129.183246 
L 207.161357 130.401545 
L 207.44917 131.066533 
L 207.736982 130.660433 
L 208.024794 130.761958 
L 208.312607 130.985313 
L 208.600419 131.066533 
L 208.888232 130.904093 
L 209.176044 130.904093 
L 209.463857 130.614747 
L 209.751669 130.822873 
L 210.039481 130.629976 
L 210.327294 112.563621 
L 210.615106 30.876681 
L 210.902919 22.160782 
L 211.190731 20.988163 
L 211.478543 20.404381 
L 211.766356 20.795277 
L 212.054168 20.389178 
L 212.341981 20.6988 
L 212.629793 20.566828 
L 213.49323 20.582064 
L 213.781043 20.455148 
L 214.068855 20.566828 
L 214.356668 20.455148 
L 214.64448 20.617594 
L 214.932292 20.338412 
L 215.507917 20.485621 
L 215.79573 20.404381 
L 216.946979 20.597301 
L 217.234792 20.500824 
L 217.522604 20.551591 
L 217.810417 20.74451 
L 218.098229 20.714037 
L 218.386041 20.536388 
L 218.961666 20.6988 
L 219.249479 20.861247 
L 219.537291 20.678507 
L 220.400728 20.729274 
L 220.688541 20.516061 
L 220.976353 20.78004 
L 221.264166 20.516061 
L 221.551978 20.632831 
L 221.83979 20.404381 
L 222.415415 20.582064 
L 222.703228 20.353615 
L 222.99104 20.404381 
L 223.278852 20.617594 
L 223.566665 20.678507 
L 223.854477 20.353615 
L 224.14229 20.632831 
L 224.430102 20.6988 
L 224.717914 37.998659 
L 225.005727 120.33535 
L 225.293539 129.330457 
L 225.581352 130.371088 
L 225.869164 130.904093 
L 226.444789 130.904093 
L 226.732601 130.548756 
L 227.020414 130.695967 
L 227.308226 130.401545 
L 227.596039 130.777187 
L 228.171663 130.563985 
L 228.459476 130.888864 
L 228.747288 112.842814 
L 229.035101 31.003597 
L 229.322913 21.866363 
L 229.898538 20.404381 
L 230.474163 20.678507 
L 230.761975 20.759714 
L 231.3376 20.338412 
L 231.625412 20.663271 
L 231.913225 20.632831 
L 232.201037 20.373942 
L 232.48885 20.434855 
L 232.776662 20.795277 
L 233.064474 20.470385 
L 233.352287 20.338412 
L 233.640099 20.516061 
L 234.215724 20.470385 
L 234.503537 20.353615 
L 235.079161 20.434855 
L 235.366974 20.729274 
L 236.230411 20.455148 
L 236.806036 20.500824 
L 237.093848 20.648067 
L 237.381661 20.516061 
L 237.957286 20.729274 
L 238.245098 20.536388 
L 238.53291 20.759714 
L 238.820723 20.338412 
L 239.108535 20.714037 
L 239.396348 20.470385 
L 239.68416 20.617594 
L 240.259785 20.516061 
L 240.83541 20.632831 
L 241.123222 20.470385 
L 241.698847 20.470385 
L 241.986659 20.485621 
L 242.274472 20.338412 
L 242.562284 20.729274 
L 242.850097 20.617594 
L 243.137909 38.110339 
L 243.425721 120.563783 
L 243.713534 129.132484 
L 244.001346 130.437079 
L 244.289159 131.020847 
L 244.576971 131.183287 
L 244.864783 130.645205 
L 245.152596 130.858407 
L 246.016033 130.726425 
L 246.303846 130.792416 
L 246.591658 131.005618 
L 246.87947 130.807644 
L 247.167283 114.274315 
L 247.455095 30.648265 
L 247.742908 21.348585 
L 248.03072 21.069369 
L 248.318532 20.373942 
L 248.894157 20.434855 
L 249.469782 20.648067 
L 250.621032 20.455148 
L 250.908844 20.876483 
L 251.196657 20.500824 
L 251.484469 20.714037 
L 251.772281 20.485621 
L 252.060094 20.419618 
L 252.635719 20.648067 
L 252.923531 20.434855 
L 253.499156 20.876483 
L 253.786968 20.632831 
L 254.362593 20.632831 
L 254.938218 20.632831 
L 255.22603 20.353615 
L 255.513843 20.536388 
L 255.801655 20.434855 
L 256.089468 20.6988 
L 256.37728 20.470385 
L 256.665092 20.389178 
L 256.952905 20.714037 
L 257.816342 20.470385 
L 258.104154 20.663271 
L 258.391967 20.434855 
L 258.679779 20.551591 
L 258.967592 20.500824 
L 259.255404 20.861247 
L 259.543217 20.419618 
L 259.831029 20.485621 
L 260.118841 20.678507 
L 260.406654 20.500824 
L 260.982279 20.470385 
L 261.270091 20.74451 
L 261.557903 37.88189 
L 261.845716 120.599316 
L 262.133528 129.066492 
L 262.421341 130.401545 
L 262.709153 130.761958 
L 263.57259 130.843178 
L 263.860403 130.645205 
L 264.148215 130.904093 
L 264.72384 130.497993 
L 265.299465 130.741653 
L 265.587277 113.233686 
L 265.87509 31.003597 
L 266.162902 22.079542 
L 266.738527 20.455148 
L 267.314152 20.323175 
L 267.889777 20.582064 
L 268.177589 20.404381 
L 269.041026 20.516061 
L 269.328839 20.404381 
L 269.616651 20.551591 
L 269.904463 20.419618 
L 270.192276 20.566828 
L 270.480088 20.455148 
L 271.055713 20.714037 
L 271.343526 20.434855 
L 271.631338 20.551591 
L 271.91915 20.373942 
L 272.206963 20.632831 
L 272.494775 20.323175 
L 273.358212 20.373942 
L 273.646025 20.714037 
L 273.933837 20.485621 
L 274.22165 20.597301 
L 274.509462 20.500824 
L 275.948524 20.582064 
L 276.236337 20.404381 
L 276.524149 20.455148 
L 276.811961 20.74451 
L 277.099774 20.74451 
L 277.963211 20.292702 
L 278.538836 20.617594 
L 278.826648 20.485621 
L 279.402273 20.597301 
L 279.690086 20.434855 
L 279.977898 37.947893 
L 280.26571 120.645003 
L 280.553523 129.005577 
L 280.841335 130.223876 
L 281.129148 130.807644 
L 281.704772 130.858407 
L 282.280397 130.726425 
L 282.56821 130.822873 
L 282.856022 130.548756 
L 283.143834 130.629976 
L 283.431647 130.858407 
L 283.719459 130.726425 
L 284.007272 113.538258 
L 284.295084 31.120333 
L 284.582897 22.257225 
L 285.158521 20.292702 
L 285.446334 20.272409 
L 285.734146 20.470385 
L 286.597583 20.419618 
L 286.885396 20.714037 
L 287.461021 20.582064 
L 288.036646 20.648067 
L 288.900083 20.617594 
L 289.187895 20.663271 
L 289.475708 20.353615 
L 289.76352 20.470385 
L 290.051332 20.434855 
L 290.339145 20.632831 
L 290.626957 20.455148 
L 290.91477 20.663271 
L 291.202582 20.597301 
L 291.490394 20.272409 
L 291.778207 20.272409 
L 292.066019 20.536388 
L 292.929457 20.566828 
L 293.217269 20.353615 
L 293.505081 20.566828 
L 293.792894 20.338412 
L 294.368519 20.617594 
L 294.656331 20.404381 
L 294.944143 20.597301 
L 295.231956 20.404381 
L 295.807581 20.516061 
L 296.383206 20.434855 
L 296.671018 20.617594 
L 296.95883 20.617594 
L 297.246643 20.307938 
L 297.534455 20.516061 
L 298.11008 20.566828 
L 298.397892 37.623 
L 298.685705 120.370884 
L 298.973517 128.904053 
L 299.26133 130.548756 
L 299.836954 131.066533 
L 300.124767 130.660433 
L 300.700392 131.005618 
L 300.988204 130.579213 
L 301.276017 130.711196 
L 301.563829 130.614747 
L 301.851641 130.904093 
L 302.139454 130.208647 
L 302.427266 113.573791 
L 302.715079 30.922358 
L 303.002891 22.064339 
L 303.290703 20.81048 
L 303.578516 20.373942 
L 304.154141 20.516061 
L 305.017578 20.338412 
L 305.593203 20.434855 
L 305.881015 20.942486 
L 306.168828 20.516061 
L 306.45664 20.6988 
L 307.032265 20.582064 
L 307.60789 20.582064 
L 308.471327 20.373942 
L 309.046952 20.632831 
L 309.622577 20.338412 
L 309.910389 20.582064 
L 310.198201 20.678507 
L 310.773826 20.338412 
L 311.061639 20.617594 
L 311.637263 20.434855 
L 311.925076 20.500824 
L 312.212888 20.307938 
L 312.788513 20.536388 
L 313.076326 20.373942 
L 313.65195 20.582064 
L 313.939763 20.455148 
L 314.515388 20.566828 
L 315.091012 20.353615 
L 315.378825 20.470385 
L 315.666637 20.404381 
L 315.95445 20.663271 
L 316.530074 20.419618 
L 316.817887 37.445351 
L 317.105699 120.629773 
L 317.393512 129.147712 
L 317.681324 130.289867 
L 317.969137 130.904093 
L 318.256949 130.939627 
L 318.832574 130.680738 
L 319.408199 130.939627 
L 319.696011 130.518299 
L 319.983823 130.467536 
L 320.559448 130.807644 
L 320.847261 113.198149 
L 321.135073 30.485819 
L 321.422886 23.363841 
L 321.710698 21.038929 
L 321.99851 20.226732 
L 322.574135 20.566828 
L 322.861948 20.389178 
L 323.725385 20.500824 
L 324.013197 20.307938 
L 324.876634 20.470385 
L 325.452259 20.536388 
L 325.740072 20.389178 
L 326.027884 20.617594 
L 326.315697 20.536388 
L 326.603509 20.597301 
L 326.891321 20.419618 
L 327.466946 20.536388 
L 327.754759 20.419618 
L 328.042571 20.597301 
L 329.481633 20.434855 
L 330.920695 20.516061 
L 331.208508 20.485621 
L 331.49632 20.648067 
L 331.784132 20.211495 
L 332.64757 20.663271 
L 332.935382 20.582064 
L 333.511007 20.597301 
L 334.086632 20.338412 
L 334.374444 20.648067 
L 334.950069 20.323175 
L 335.237881 36.958013 
L 335.525694 120.386114 
L 335.813506 129.020806 
L 336.101319 130.497993 
L 336.676943 130.939627 
L 336.964756 130.985313 
L 337.252568 130.645205 
L 337.540381 130.629976 
L 338.116006 130.970084 
L 338.69163 130.726425 
L 338.979443 130.792416 
L 339.267255 113.883443 
L 339.555068 31.13557 
L 339.84288 22.013572 
L 340.130692 20.92216 
L 340.418505 20.389178 
L 340.706317 20.257172 
L 340.99413 20.536388 
L 342.145379 20.632831 
L 342.433192 20.338412 
L 343.008817 20.840953 
L 343.296629 20.470385 
L 343.584441 20.338412 
L 343.872254 20.404381 
L 344.160066 20.597301 
L 344.447879 20.323175 
L 345.311316 20.648067 
L 345.599128 20.455148 
L 345.886941 20.678507 
L 346.462566 20.404381 
L 346.750378 20.551591 
L 347.03819 20.455148 
L 347.613815 20.582064 
L 348.765065 20.272409 
L 349.052877 20.89172 
L 349.34069 20.485621 
L 350.491939 20.536388 
L 350.779752 20.6988 
L 351.067564 20.419618 
L 351.355377 20.729274 
L 351.643189 20.759714 
L 352.218814 20.597301 
L 352.506626 20.74451 
L 353.370063 20.455148 
L 353.657876 36.942809 
L 353.945688 120.289664 
L 354.233501 129.315229 
L 354.521313 130.355859 
L 354.809126 130.873636 
L 355.096938 130.599518 
L 355.960375 130.970084 
L 356.536 130.660433 
L 357.111625 130.467536 
L 357.399437 130.599518 
L 357.68725 114.142332 
L 357.975062 31.445226 
L 358.262874 22.079542 
L 358.838499 20.130289 
L 359.701937 20.617594 
L 359.989749 20.632831 
L 360.277561 20.419618 
L 360.565374 20.582064 
L 361.140999 20.500824 
L 361.428811 20.861247 
L 361.716623 20.617594 
L 362.292248 20.470385 
L 362.867873 20.6988 
L 363.155686 20.470385 
L 363.443498 20.536388 
L 363.73131 20.470385 
L 364.019123 20.678507 
L 364.306935 20.516061 
L 364.594748 20.648067 
L 364.88256 20.566828 
L 365.170372 20.89172 
L 365.458185 20.485621 
L 365.745997 20.389178 
L 367.185059 20.485621 
L 367.472872 20.353615 
L 368.336309 20.678507 
L 368.624121 20.536388 
L 368.911934 20.6988 
L 369.199746 20.470385 
L 369.487559 20.632831 
L 370.063183 20.500824 
L 370.350996 20.292702 
L 370.638808 20.617594 
L 370.926621 20.419618 
L 371.214433 20.551591 
L 371.502246 20.373942 
L 371.790058 20.470385 
L 372.07787 36.582387 
L 372.365683 120.563783 
L 372.653495 129.198475 
L 372.941308 130.371088 
L 373.22912 130.873636 
L 373.516932 130.629976 
L 373.804745 130.939627 
L 374.092557 130.645205 
L 374.38037 130.985313 
L 374.668182 130.579213 
L 374.955994 130.777187 
L 375.531619 130.695967 
L 375.819432 130.858407 
L 376.107244 114.385992 
L 376.395057 31.186337 
L 376.682869 22.013572 
L 376.970681 20.89172 
L 377.258494 20.323175 
L 377.834119 20.455148 
L 378.121931 20.292702 
L 378.409743 20.566828 
L 378.697556 20.597301 
L 378.985368 20.434855 
L 379.560993 20.566828 
L 379.848806 20.373942 
L 380.136618 20.353615 
L 380.42443 20.536388 
L 380.712243 20.455148 
L 381.000055 20.551591 
L 381.287868 20.292702 
L 381.57568 20.536388 
L 381.863492 20.338412 
L 382.439117 20.6988 
L 382.72693 20.516061 
L 383.302554 20.663271 
L 383.590367 20.500824 
L 383.878179 20.617594 
L 385.605054 20.500824 
L 385.892866 20.74451 
L 386.180679 20.632831 
L 386.468491 20.729274 
L 386.756303 20.434855 
L 387.331928 20.617594 
L 387.619741 20.455148 
L 387.907553 20.678507 
L 388.483178 20.226732 
L 388.77099 20.455148 
L 389.058803 20.516061 
L 389.346615 20.455148 
L 389.634428 20.551591 
L 390.210052 20.353615 
L 390.497865 36.71436 
L 390.785677 120.518096 
L 391.07349 129.198475 
L 391.361302 130.274639 
L 391.649114 130.888864 
L 392.224739 130.970084 
L 392.512552 130.599518 
L 392.800364 130.579213 
L 393.088177 130.822873 
L 393.375989 130.629976 
L 393.663801 130.985313 
L 393.951614 130.726425 
L 394.239426 130.645205 
L 394.527239 115.538301 
L 394.815051 30.891918 
L 395.102863 21.394261 
L 395.390676 21.104899 
L 395.678488 20.292702 
L 396.254113 20.582064 
L 396.829738 20.373942 
L 397.11755 20.485621 
L 397.405363 20.353615 
L 397.693175 20.566828 
L 397.980988 20.536388 
L 398.556612 20.241935 
L 398.844425 20.582064 
L 399.132237 20.434855 
L 399.42005 20.597301 
L 399.707862 20.373942 
L 399.995674 20.389178 
L 400.283487 20.536388 
L 400.571299 20.404381 
L 401.722549 20.566828 
L 402.298174 20.373942 
L 403.161611 20.485621 
L 403.449423 20.617594 
L 403.737236 20.470385 
L 404.025048 20.500824 
L 404.600673 20.389178 
L 404.888486 20.434855 
L 405.176298 20.353615 
L 405.46411 20.617594 
L 406.039735 20.632831 
L 406.327548 20.419618 
L 406.61536 20.678507 
L 407.478797 20.419618 
L 407.76661 20.566828 
L 408.054422 20.338412 
L 408.630047 20.566828 
L 408.917859 36.272732 
L 409.205672 120.599316 
L 409.493484 129.147712 
L 410.069109 131.020847 
L 410.356921 130.792416 
L 410.644734 130.873636 
L 410.932546 130.726425 
L 411.508171 130.822873 
L 412.083796 130.533527 
L 412.371608 130.873636 
L 412.659421 130.599518 
L 412.947233 114.320002 
L 413.235046 31.298016 
L 413.522858 22.028776 
L 413.81067 20.759714 
L 414.098483 20.536388 
L 414.674108 20.389178 
L 414.96192 20.617594 
L 415.537545 20.434855 
L 415.825357 20.617594 
L 416.11317 20.536388 
L 416.400982 20.241935 
L 416.688794 20.6988 
L 416.976607 20.597301 
L 417.264419 20.795277 
L 417.552232 20.795277 
L 417.840044 20.551591 
L 418.991294 20.455148 
L 419.279106 20.6988 
L 420.142543 20.566828 
L 420.430356 20.78004 
L 420.718168 20.455148 
L 421.293793 20.663271 
L 421.581606 20.404381 
L 422.15723 20.536388 
L 422.445043 20.648067 
L 423.020668 20.404381 
L 423.596292 20.323175 
L 423.884105 20.648067 
L 424.171917 20.6988 
L 424.45973 20.485621 
L 425.035354 20.536388 
L 425.323167 20.353615 
L 425.610979 20.353615 
L 425.898792 20.211495 
L 426.186604 20.516061 
L 426.474417 20.632831 
L 426.762229 20.353615 
L 427.050041 20.307938 
L 427.337854 36.323498 
L 427.625666 120.355657 
L 427.913479 129.117255 
L 428.201291 130.371088 
L 428.489103 130.924398 
L 428.776916 130.563985 
L 429.064728 130.888864 
L 429.352541 130.695967 
L 429.640353 130.858407 
L 429.928166 130.822873 
L 430.215978 130.579213 
L 431.079415 130.680738 
L 431.367228 114.497668 
L 431.65504 31.039127 
L 431.942852 22.175985 
L 432.230665 21.008456 
L 432.518477 20.419618 
L 432.80629 20.419618 
L 433.381914 20.175966 
L 433.669727 20.516061 
L 433.957539 20.211495 
L 434.245352 20.470385 
L 434.533164 20.419618 
L 434.820977 20.516061 
L 435.108789 20.373942 
L 435.396601 20.648067 
L 435.684414 20.353615 
L 436.547851 20.729274 
L 436.835663 20.241935 
L 437.123476 20.551591 
L 437.411288 20.389178 
L 437.986913 20.714037 
L 438.562538 20.389178 
L 439.138163 20.338412 
L 439.425975 20.759714 
L 440.289412 20.292702 
L 440.577225 20.536388 
L 440.865037 20.470385 
L 441.15285 20.714037 
L 441.440662 20.566828 
L 442.879724 20.582064 
L 443.167537 20.404381 
L 443.455349 20.389178 
L 443.743161 20.551591 
L 444.030974 20.404381 
L 444.606599 20.597301 
L 444.894411 20.536388 
L 445.182223 20.840953 
L 445.470036 20.714037 
L 445.757848 36.095049 
L 446.045661 120.548553 
L 446.333473 129.294923 
L 446.621286 130.452307 
L 446.909098 130.843178 
L 447.19691 130.599518 
L 447.484723 130.888864 
L 448.060348 130.614747 
L 448.635972 130.939627 
L 448.923785 130.548756 
L 449.211597 131.020847 
L 449.49941 130.711196 
L 449.787222 114.79209 
L 450.075034 31.328456 
L 450.362847 22.191222 
L 450.650659 20.95769 
L 450.938472 20.434855 
L 451.514097 20.582064 
L 452.089721 20.582064 
L 452.953159 20.729274 
L 453.240971 20.434855 
L 453.528783 20.617594 
L 454.392221 20.404381 
L 454.680033 20.663271 
L 455.54347 20.485621 
L 456.119095 20.516061 
L 456.982532 20.500824 
L 457.558157 20.191202 
L 457.84597 20.632831 
L 458.421594 20.373942 
L 458.709407 20.536388 
L 458.997219 20.942486 
L 459.285032 20.455148 
L 459.572844 20.373942 
L 461.011906 20.500824 
L 461.299719 20.419618 
L 461.587531 20.551591 
L 461.875343 20.81048 
L 462.163156 20.455148 
L 462.450968 20.470385 
L 463.026593 20.663271 
L 463.314406 20.714037 
L 463.602218 20.516061 
L 463.89003 20.470385 
L 464.177843 35.658511 
L 464.465655 120.482563 
L 464.753468 129.132484 
L 465.04128 130.563985 
L 465.329092 130.792416 
L 465.616905 130.741653 
L 465.904717 130.858407 
L 466.768154 130.645205 
L 467.055967 130.629976 
L 467.343779 130.777187 
L 467.919404 130.777187 
L 468.207217 114.88854 
L 468.495029 30.485819 
L 468.782841 23.495814 
L 469.070654 20.825717 
L 469.358466 20.211495 
L 469.646279 20.455148 
L 470.221903 20.582064 
L 470.509716 20.419618 
L 471.085341 20.582064 
L 471.373153 20.663271 
L 471.660966 20.500824 
L 472.23659 20.632831 
L 472.524403 20.470385 
L 473.963465 20.485621 
L 474.251277 20.678507 
L 474.53909 20.373942 
L 474.826902 20.516061 
L 476.841589 20.536388 
L 477.129401 20.292702 
L 477.417214 20.632831 
L 477.705026 20.6988 
L 478.280651 20.632831 
L 478.856276 20.632831 
L 479.144088 20.434855 
L 479.431901 20.536388 
L 480.007526 20.470385 
L 480.295338 20.582064 
L 480.870963 20.338412 
L 481.158775 20.678507 
L 482.022212 20.516061 
L 482.310025 20.566828 
L 482.597837 35.475771 
L 482.88565 120.533323 
L 483.173462 129.670566 
L 483.749087 131.117295 
L 484.036899 130.807644 
L 484.324712 130.888864 
L 484.612524 130.726425 
L 484.900337 130.939627 
L 485.475961 130.777187 
L 485.763774 130.518299 
L 486.051586 130.741653 
L 486.339399 130.792416 
L 486.627211 115.375858 
L 486.915023 31.28278 
L 487.202836 22.175985 
L 487.778461 20.307938 
L 488.354086 20.404381 
L 488.641898 20.729274 
L 488.92971 20.516061 
L 489.217523 20.74451 
L 489.505335 20.455148 
L 489.793148 20.485621 
L 490.08096 20.389178 
L 490.368772 20.419618 
L 490.656585 20.6988 
L 491.23221 20.485621 
L 491.807834 20.825717 
L 492.095647 20.485621 
L 492.383459 20.566828 
L 492.671272 20.389178 
L 494.110334 20.795277 
L 494.398146 20.373942 
L 494.685959 20.419618 
L 494.973771 20.582064 
L 495.549396 20.632831 
L 495.837208 20.714037 
L 496.125021 20.536388 
L 496.412833 20.825717 
L 496.700646 20.597301 
L 497.27627 20.648067 
L 497.564083 20.434855 
L 498.139708 20.500824 
L 498.42752 20.353615 
L 498.715332 20.617594 
L 499.290957 20.323175 
L 500.154394 20.500824 
L 500.442207 20.663271 
L 500.730019 20.632831 
L 501.017832 35.379328 
L 501.305644 120.401344 
L 501.593457 129.457363 
L 502.169081 130.807644 
L 502.456894 130.660433 
L 502.744706 130.954855 
L 503.032519 130.807644 
L 503.320331 130.822873 
L 503.608143 131.020847 
L 503.895956 130.741653 
L 504.471581 130.726425 
L 504.759393 130.858407 
L 505.047206 115.477384 
L 505.335018 31.495992 
L 505.62283 22.079542 
L 505.910643 20.6988 
L 506.198455 20.434855 
L 506.486268 20.373942 
L 506.77408 20.500824 
L 507.92533 20.566828 
L 508.213142 20.632831 
L 508.500954 20.470385 
L 508.788767 20.759714 
L 509.364392 20.373942 
L 510.227829 20.678507 
L 511.379079 20.404381 
L 511.954703 20.678507 
L 512.242516 20.536388 
L 512.530328 20.6988 
L 512.818141 20.338412 
L 513.105953 20.617594 
L 513.681578 20.663271 
L 514.257203 20.373942 
L 515.696265 20.6988 
L 515.984077 20.434855 
L 516.27189 20.714037 
L 516.847514 20.292702 
L 517.135327 20.470385 
L 517.423139 20.307938 
L 517.710952 20.485621 
L 517.998764 20.160729 
L 518.574389 20.455148 
L 519.150014 20.434855 
L 519.437826 35.135643 
L 519.725639 120.452103 
L 520.013451 129.315229 
L 520.589076 131.036075 
L 520.876888 130.695967 
L 521.164701 130.777187 
L 521.452513 130.726425 
L 521.740326 130.792416 
L 522.31595 130.548756 
L 522.603763 130.695967 
L 522.891575 130.599518 
L 523.179388 130.822873 
L 523.4672 115.639824 
L 523.755012 31.267543 
L 524.042825 22.130309 
L 524.330637 20.92216 
L 524.61845 20.323175 
L 524.906262 20.160729 
L 525.194074 20.582064 
L 526.057512 20.307938 
L 526.345324 20.678507 
L 526.920949 20.389178 
L 527.208761 20.160729 
L 527.496574 20.516061 
L 527.784386 20.663271 
L 528.647823 20.389178 
L 528.935636 20.617594 
L 529.223448 20.470385 
L 529.511261 20.551591 
L 529.799073 20.323175 
L 530.086886 20.470385 
L 530.374698 20.353615 
L 530.66251 20.648067 
L 530.950323 20.516061 
L 531.238135 20.597301 
L 531.525948 20.307938 
L 531.81376 20.536388 
L 532.101572 20.536388 
L 532.389385 20.648067 
L 532.677197 20.551591 
L 532.96501 20.597301 
L 533.540634 20.272409 
L 533.828447 20.485621 
L 534.116259 20.404381 
L 534.404072 20.617594 
L 534.691884 20.582064 
L 534.979697 20.419618 
L 535.555321 20.663271 
L 536.706571 20.485621 
L 536.994383 20.582064 
L 537.570008 20.632831 
L 537.857821 34.89199 
L 538.145633 120.599316 
L 538.433446 129.411677 
L 538.721258 130.335554 
L 539.00907 130.807644 
L 539.584695 130.985313 
L 539.872508 130.777187 
L 540.16032 130.888864 
L 540.735945 130.599518 
L 541.599382 130.873636 
L 541.887194 116.436794 
L 542.175007 31.267543 
L 542.462819 21.120136 
L 542.750632 21.069369 
L 543.038444 20.404381 
L 543.326257 20.582064 
L 543.901881 20.373942 
L 544.189694 20.485621 
L 544.477506 20.338412 
L 544.765319 20.500824 
L 545.053131 20.485621 
L 545.340943 20.678507 
L 545.916568 20.678507 
L 546.204381 20.566828 
L 546.780006 20.6988 
L 547.067818 20.74451 
L 547.643443 20.353615 
L 547.931255 20.434855 
L 548.219068 20.759714 
L 548.50688 20.551591 
L 548.794692 20.617594 
L 549.370317 20.582064 
L 549.65813 20.536388 
L 549.945942 20.272409 
L 550.233754 20.434855 
L 550.521567 20.434855 
L 550.809379 20.648067 
L 551.097192 20.617594 
L 551.385004 20.795277 
L 551.672817 20.78004 
L 551.960629 20.404381 
L 552.248441 20.632831 
L 553.111879 20.485621 
L 553.399691 20.272409 
L 553.687503 20.617594 
L 553.975316 20.729274 
L 554.263128 20.485621 
L 555.414378 20.729274 
L 555.70219 20.500824 
L 555.990003 20.663271 
L 556.277815 34.551895 
L 556.565628 120.710992 
L 556.85344 129.198475 
L 557.141252 130.239105 
L 557.429065 130.792416 
L 557.716877 130.680738 
L 558.00469 131.005618 
L 558.292502 130.985313 
L 558.580314 130.741653 
L 558.868127 130.761958 
L 559.443752 130.533527 
L 559.731564 130.843178 
L 560.019377 130.482765 
L 560.307189 116.076382 
L 560.595001 31.445226 
L 560.882814 22.079542 
L 561.170626 20.972926 
L 561.458439 20.536388 
L 561.746251 20.353615 
L 562.034063 20.617594 
L 562.321876 20.582064 
L 562.609688 20.6988 
L 562.897501 20.419618 
L 563.473126 20.404381 
L 563.760938 20.617594 
L 564.04875 20.470385 
L 564.336563 20.597301 
L 565.2 20.582064 
L 565.487812 20.78004 
L 565.487812 20.78004 
" clip-path="url(#p1d8a2c4543)" style="fill: none; stroke: #000000; stroke-opacity: 0.2; stroke-width: 1.5; stroke-linecap: square"/>
   </g>
   <g id="line2d_4">
    <path d="M 43.396094 126.844661 
L 43.683906 127.078168 
L 43.971719 126.875118 
L 44.259531 127.108625 
L 44.547343 127.65686 
L 44.835156 126.946186 
L 45.122968 126.682221 
L 45.410781 127.139083 
L 45.698593 127.271065 
L 46.274218 128.083264 
L 46.56203 127.85991 
L 46.849843 127.271065 
L 47.425468 127.69747 
L 47.71328 127.078168 
L 48.001092 127.16954 
L 48.288905 127.433505 
L 48.576717 127.49442 
L 48.86453 127.69747 
L 49.152342 127.626402 
L 50.015779 127.788842 
L 50.303592 127.047711 
L 50.591404 127.463962 
L 50.879217 127.626402 
L 51.167029 127.65686 
L 51.454841 127.951282 
L 51.742654 127.595945 
L 52.030466 127.626402 
L 52.318279 126.844661 
L 52.606091 127.403048 
L 52.893903 127.403048 
L 53.181716 127.951282 
L 53.469528 127.595945 
L 54.332966 127.33198 
L 54.620778 127.595945 
L 55.196403 127.271065 
L 55.772028 127.271065 
L 56.635465 127.16954 
L 57.21109 127.920824 
L 57.498902 127.53503 
L 58.074527 127.626402 
L 58.362339 127.108625 
L 58.650152 127.595945 
L 58.937964 126.519781 
L 59.225777 127.626402 
L 59.513589 127.951282 
L 59.801401 127.271065 
L 60.089214 128.022349 
L 60.377026 127.727927 
L 60.664839 127.65686 
L 60.952651 128.052807 
L 61.528276 127.047711 
L 62.391713 127.626402 
L 62.679526 127.301523 
L 62.967338 128.144179 
L 63.25515 127.16954 
L 63.542963 127.0071 
L 63.830775 127.951282 
L 64.118588 127.920824 
L 64.4064 128.022349 
L 64.694212 127.65686 
L 64.982025 127.53503 
L 65.269837 127.65686 
L 65.55765 127.565487 
L 65.845462 127.788842 
L 66.133274 127.403048 
L 66.421087 127.21015 
L 66.708899 127.595945 
L 66.996712 127.49442 
L 67.284524 128.113722 
L 67.860149 127.108625 
L 68.147961 127.37259 
L 68.435774 127.0071 
L 68.723586 127.595945 
L 69.011399 127.33198 
L 69.299211 127.98174 
L 69.587023 127.139083 
L 69.874836 127.65686 
L 70.162648 127.53503 
L 70.450461 127.69747 
L 70.738273 127.433505 
L 71.026086 127.403048 
L 71.313898 127.727927 
L 71.60171 127.819299 
L 71.889523 127.758385 
L 72.177335 127.21015 
L 72.465148 127.85991 
L 72.75296 127.433505 
L 73.040772 128.113722 
L 73.328585 128.022349 
L 73.616397 127.65686 
L 74.479834 127.271065 
L 74.767647 127.433505 
L 75.055459 127.758385 
L 75.343272 127.69747 
L 75.631084 127.240608 
L 76.494521 127.788842 
L 76.782334 127.626402 
L 77.070146 127.951282 
L 77.357959 126.489324 
L 77.645771 128.113722 
L 77.933583 128.184789 
L 78.221396 127.53503 
L 78.509208 128.083264 
L 78.797021 127.920824 
L 79.084833 127.626402 
L 79.372646 127.788842 
L 79.94827 127.301523 
L 80.523895 127.49442 
L 80.811708 126.976643 
L 81.387332 128.022349 
L 81.675145 126.682221 
L 81.962957 126.844661 
L 82.25077 127.69747 
L 82.538582 127.0071 
L 82.826394 127.65686 
L 83.114207 127.21015 
L 83.689832 127.98174 
L 83.977644 127.403048 
L 84.265457 127.565487 
L 84.553269 128.022349 
L 84.841081 127.49442 
L 85.128894 127.65686 
L 85.416706 127.403048 
L 85.704519 127.403048 
L 85.992331 128.245704 
L 86.280143 128.408144 
L 86.567956 127.403048 
L 86.855768 128.052807 
L 87.143581 128.113722 
L 87.431393 127.53503 
L 87.719206 127.727927 
L 88.007018 127.463962 
L 88.29483 128.052807 
L 88.582643 127.727927 
L 88.870455 127.98174 
L 89.158268 127.788842 
L 89.44608 127.951282 
L 89.733892 127.53503 
L 90.021705 127.85991 
L 90.309517 127.98174 
L 90.59733 127.951282 
L 90.885142 128.245704 
L 91.172954 127.21015 
L 91.460767 127.403048 
L 91.748579 127.33198 
L 92.036392 127.565487 
L 92.324204 126.946186 
L 92.612017 127.0071 
L 92.899829 127.565487 
L 93.187641 127.565487 
L 93.475454 127.727927 
L 93.763266 127.301523 
L 94.051079 127.65686 
L 94.338891 127.758385 
L 94.914516 127.463962 
L 95.202328 127.595945 
L 95.777953 126.651763 
L 96.065766 128.052807 
L 96.353578 127.85991 
L 96.929203 127.240608 
L 97.217015 127.53503 
L 97.504828 127.403048 
L 97.79264 127.626402 
L 98.080452 127.271065 
L 98.368265 127.788842 
L 98.656077 127.626402 
L 99.231702 127.53503 
L 99.519514 127.21015 
L 99.807327 127.85991 
L 100.095139 60.995611 
L 100.382952 23.959326 
L 100.670764 17.969357 
L 100.958577 17.096243 
L 101.246389 17.674935 
L 101.534201 17.390666 
L 102.109826 17.553105 
L 102.397639 17.157157 
L 102.685451 17.9389 
L 102.973263 17.1267 
L 103.261076 17.421122 
L 103.548888 17.157157 
L 103.836701 18.040423 
L 104.124513 17.289139 
L 104.412326 18.131796 
L 104.700138 18.162256 
L 104.98795 18.040423 
L 105.275763 17.746001 
L 105.563575 17.776461 
L 105.851388 17.553105 
L 106.1392 17.969357 
L 106.427012 17.9389 
L 106.714825 17.289139 
L 107.578262 17.9389 
L 107.866074 17.258683 
L 108.153887 17.837374 
L 108.441699 18.040423 
L 108.729512 17.715545 
L 109.017324 17.9389 
L 109.305137 17.908444 
L 109.592949 18.070883 
L 109.880761 17.806918 
L 110.168574 18.070883 
L 110.456386 17.806918 
L 111.032011 17.715545 
L 111.319823 17.837374 
L 111.895448 18.365306 
L 112.183261 17.674935 
L 112.471073 17.350056 
L 112.758886 17.451579 
L 113.046698 17.806918 
L 113.33451 17.644478 
L 113.622323 17.877984 
L 113.910135 18.456675 
L 114.197948 17.512495 
L 114.48576 18.984607 
L 114.773572 18.162256 
L 115.061385 17.837374 
L 115.63701 17.999814 
L 115.924822 17.837374 
L 116.212634 17.065787 
L 116.500447 17.614022 
L 117.076072 17.451579 
L 117.363884 17.350056 
L 117.651697 17.877984 
L 117.939509 17.806918 
L 118.227321 18.690184 
L 118.515134 17.025177 
L 118.802946 17.390666 
L 119.666383 17.157157 
L 119.954196 17.674935 
L 120.242008 17.908444 
L 121.105446 17.512495 
L 121.393258 17.715545 
L 121.68107 17.553105 
L 121.968883 17.614022 
L 122.256695 17.877984 
L 122.83232 17.583562 
L 123.120132 17.969357 
L 123.407945 17.969357 
L 123.695757 17.258683 
L 123.98357 17.715545 
L 124.271382 17.776461 
L 124.559194 17.999814 
L 124.847007 17.9389 
L 125.134819 17.715545 
L 125.710444 17.999814 
L 125.998257 17.837374 
L 126.286069 18.324696 
L 126.573881 17.776461 
L 126.861694 17.999814 
L 127.437319 18.040423 
L 127.725131 17.553105 
L 128.012943 17.969357 
L 128.300756 17.614022 
L 128.588568 17.877984 
L 128.876381 18.395762 
L 129.164193 17.837374 
L 129.452006 17.715545 
L 129.739818 17.025177 
L 130.02763 17.877984 
L 130.315443 18.10134 
L 130.603255 18.040423 
L 130.891068 17.583562 
L 131.466692 17.157157 
L 131.754505 18.070883 
L 132.042317 17.512495 
L 132.33013 17.553105 
L 132.617942 17.1267 
L 132.905754 18.202866 
L 133.193567 18.202866 
L 133.769192 17.512495 
L 134.057004 17.451579 
L 134.344817 17.553105 
L 134.632629 18.10134 
L 135.208254 17.553105 
L 135.496066 17.583562 
L 135.783879 17.157157 
L 136.359503 17.806918 
L 136.647316 18.720641 
L 136.935128 17.644478 
L 137.222941 17.776461 
L 137.510753 17.715545 
L 137.798566 17.908444 
L 138.662003 17.837374 
L 138.949815 17.999814 
L 139.237628 18.294236 
L 139.52544 18.131796 
L 139.813252 17.350056 
L 140.101065 17.390666 
L 140.388877 18.040423 
L 141.252314 18.324696 
L 141.540127 17.421122 
L 142.115752 17.776461 
L 142.403564 17.776461 
L 142.691377 17.999814 
L 143.267001 17.512495 
L 143.554814 18.162256 
L 144.130439 17.908444 
L 144.418251 18.10134 
L 144.993876 17.482039 
L 145.569501 17.512495 
L 145.857313 17.877984 
L 146.145126 17.674935 
L 146.432938 17.908444 
L 146.72075 17.908444 
L 147.296375 17.553105 
L 147.584188 17.837374 
L 147.872 17.644478 
L 148.159812 17.715545 
L 148.447625 18.202866 
L 148.735437 17.999814 
L 149.02325 18.294236 
L 149.311062 17.877984 
L 149.886687 18.324696 
L 150.174499 18.395762 
L 150.462312 18.131796 
L 150.750124 18.233323 
L 151.037937 17.228226 
L 151.325749 18.426219 
L 151.901374 17.806918 
L 152.189186 18.070883 
L 152.476999 17.969357 
L 153.052623 18.162256 
L 153.340436 18.426219 
L 153.628248 18.426219 
L 153.916061 17.837374 
L 154.203873 17.837374 
L 154.491686 18.233323 
L 154.779498 17.908444 
L 155.06731 18.781557 
L 155.355123 17.258683 
L 155.642935 17.451579 
L 155.930748 17.806918 
L 156.21856 17.674935 
L 156.506372 17.877984 
L 156.794185 18.294236 
L 157.081997 17.674935 
L 157.36981 18.040423 
L 157.945434 17.583562 
L 158.808872 18.294236 
L 159.096684 18.324696 
L 159.384497 18.233323 
L 159.672309 17.9389 
L 159.960121 18.263779 
L 160.247934 18.070883 
L 160.535746 17.614022 
L 160.823559 18.070883 
L 161.399183 17.877984 
L 161.686996 17.553105 
L 162.262621 18.324696 
L 162.550433 17.908444 
L 162.838246 18.619118 
L 163.126058 18.619118 
L 163.41387 17.512495 
L 163.701683 17.715545 
L 163.989495 17.421122 
L 164.277308 17.969357 
L 164.56512 18.233323 
L 164.852932 17.837374 
L 165.140745 18.294236 
L 165.428557 18.233323 
L 165.71637 17.746001 
L 166.004182 18.395762 
L 166.291994 18.233323 
L 166.579807 19.04552 
L 166.867619 18.263779 
L 167.155432 18.10134 
L 167.443244 17.482039 
L 167.731057 17.674935 
L 168.018869 17.715545 
L 168.306681 18.395762 
L 168.594494 17.776461 
L 168.882306 17.644478 
L 169.170119 17.999814 
L 169.457931 17.187616 
L 169.745743 18.984607 
L 170.033556 18.88308 
L 170.321368 18.202866 
L 170.609181 18.324696 
L 170.896993 17.583562 
L 171.184806 18.233323 
L 171.472618 17.999814 
L 171.76043 17.9389 
L 172.048243 17.482039 
L 172.336055 17.715545 
L 172.623868 18.10134 
L 172.91168 17.9389 
L 173.199492 18.10134 
L 173.487305 18.91354 
L 174.06293 121.250638 
L 174.350742 127.16954 
L 174.638554 128.408144 
L 174.926367 128.509669 
L 175.214179 127.69747 
L 175.501992 127.788842 
L 175.789804 128.377687 
L 176.077617 127.951282 
L 176.365429 128.347229 
L 176.653241 128.438602 
L 176.941054 128.733024 
L 177.228866 128.245704 
L 177.516679 128.184789 
L 177.804491 128.347229 
L 178.092303 128.377687 
L 178.380116 127.727927 
L 178.955741 127.98174 
L 179.243553 127.758385 
L 179.531366 127.758385 
L 180.10699 127.463962 
L 180.394803 127.21015 
L 180.682615 127.920824 
L 180.970428 127.626402 
L 182.121677 127.819299 
L 182.697302 127.21015 
L 182.985114 128.113722 
L 183.272927 127.758385 
L 183.560739 128.276162 
L 183.848552 128.347229 
L 184.136364 127.98174 
L 184.424177 127.890367 
L 184.711989 128.113722 
L 185.287614 127.463962 
L 185.863239 128.113722 
L 186.151051 127.69747 
L 186.438863 128.144179 
L 187.014488 127.37259 
L 187.590113 127.65686 
L 187.877926 126.753288 
L 188.165738 128.215247 
L 189.029175 127.890367 
L 189.316988 127.890367 
L 189.6048 128.144179 
L 189.892612 128.245704 
L 190.180425 127.595945 
L 190.468237 127.33198 
L 190.75605 127.819299 
L 191.043862 127.98174 
L 191.619487 127.85991 
L 191.907299 128.347229 
L 192.195112 127.53503 
L 192.482924 127.565487 
L 193.058549 127.240608 
L 193.346361 127.727927 
L 193.634174 127.65686 
L 193.921986 128.022349 
L 194.497611 127.37259 
L 194.785423 127.49442 
L 195.073236 127.403048 
L 195.648861 127.626402 
L 196.224486 127.727927 
L 196.512298 126.976643 
L 197.087923 127.626402 
L 197.375735 128.245704 
L 197.663548 127.565487 
L 197.95136 127.69747 
L 198.239172 127.595945 
L 198.526985 127.788842 
L 198.814797 127.626402 
L 199.10261 127.788842 
L 199.390422 127.433505 
L 200.253859 128.306619 
L 200.541672 127.33198 
L 200.829484 127.951282 
L 201.117297 127.53503 
L 201.692921 127.98174 
L 201.980734 127.108625 
L 202.268546 127.69747 
L 202.556359 127.626402 
L 203.131983 128.022349 
L 203.419796 127.403048 
L 203.707608 127.65686 
L 203.995421 127.0071 
L 204.571046 128.083264 
L 204.858858 127.49442 
L 205.14667 127.758385 
L 205.434483 127.33198 
L 205.722295 127.758385 
L 206.010108 127.920824 
L 206.29792 127.0071 
L 206.585732 127.890367 
L 206.873545 127.85991 
L 207.161357 127.078168 
L 207.736982 127.078168 
L 208.888232 128.022349 
L 209.176044 127.920824 
L 209.751669 127.078168 
L 210.039481 127.301523 
L 210.327294 128.469059 
L 210.615106 127.565487 
L 210.902919 127.301523 
L 211.190731 127.626402 
L 211.478543 127.53503 
L 211.766356 127.301523 
L 212.054168 127.565487 
L 212.341981 127.16954 
L 212.629793 127.463962 
L 212.917606 128.276162 
L 213.205418 127.727927 
L 213.49323 127.920824 
L 213.781043 127.69747 
L 214.068855 127.727927 
L 214.356668 127.890367 
L 214.64448 127.595945 
L 214.932292 128.052807 
L 215.220105 127.463962 
L 215.79573 127.85991 
L 216.083542 127.788842 
L 216.371354 127.920824 
L 216.946979 127.433505 
L 217.234792 127.271065 
L 217.522604 127.53503 
L 217.810417 127.33198 
L 218.098229 127.271065 
L 218.386041 126.915728 
L 218.961666 127.33198 
L 219.537291 127.16954 
L 219.825103 127.49442 
L 220.112916 127.301523 
L 220.400728 127.85991 
L 221.264166 127.139083 
L 221.551978 127.951282 
L 221.83979 127.463962 
L 222.127603 127.920824 
L 222.415415 127.595945 
L 222.703228 127.565487 
L 222.99104 127.139083 
L 223.278852 127.49442 
L 223.566665 127.139083 
L 223.854477 127.890367 
L 224.14229 127.463962 
L 224.430102 128.052807 
L 224.717914 127.21015 
L 225.005727 128.052807 
L 225.293539 128.083264 
L 225.581352 127.33198 
L 226.156977 127.758385 
L 226.444789 128.469059 
L 226.732601 127.271065 
L 227.020414 127.727927 
L 227.308226 127.139083 
L 227.596039 127.890367 
L 227.883851 127.271065 
L 228.459476 127.595945 
L 228.747288 128.408144 
L 229.035101 127.0071 
L 229.610726 127.49442 
L 229.898538 127.37259 
L 230.18635 127.727927 
L 230.474163 127.433505 
L 230.761975 127.65686 
L 231.049788 128.052807 
L 231.3376 127.37259 
L 231.625412 127.33198 
L 231.913225 127.047711 
L 232.201037 127.21015 
L 232.48885 127.626402 
L 232.776662 127.271065 
L 233.064474 127.139083 
L 233.352287 127.69747 
L 233.640099 127.16954 
L 233.927912 127.16954 
L 234.215724 127.403048 
L 234.503537 127.403048 
L 234.791349 127.108625 
L 235.079161 127.595945 
L 235.366974 127.595945 
L 235.942599 126.915728 
L 236.806036 127.98174 
L 237.093848 127.951282 
L 237.381661 127.463962 
L 237.669473 127.788842 
L 237.957286 127.49442 
L 238.245098 127.69747 
L 238.53291 127.758385 
L 238.820723 127.49442 
L 239.68416 128.144179 
L 239.971972 127.403048 
L 240.547597 127.98174 
L 240.83541 127.463962 
L 241.123222 127.271065 
L 241.411034 127.920824 
L 241.698847 128.144179 
L 241.986659 127.85991 
L 242.274472 128.144179 
L 242.562284 127.49442 
L 242.850097 127.403048 
L 243.137909 127.139083 
L 243.713534 128.306619 
L 244.289159 128.022349 
L 244.864783 127.139083 
L 245.152596 127.758385 
L 245.440408 127.890367 
L 245.728221 127.21015 
L 246.303846 128.052807 
L 246.591658 127.565487 
L 246.87947 128.184789 
L 247.167283 127.301523 
L 247.455095 61.584456 
L 247.742908 23.695363 
L 248.03072 18.88308 
L 248.318532 17.228226 
L 248.606345 17.228226 
L 248.894157 17.421122 
L 249.18197 17.187616 
L 249.469782 17.908444 
L 250.045407 18.131796 
L 250.333219 17.908444 
L 250.621032 17.837374 
L 250.908844 18.202866 
L 251.196657 17.553105 
L 251.484469 18.131796 
L 251.772281 17.644478 
L 252.347906 18.426219 
L 252.635719 18.324696 
L 252.923531 17.877984 
L 253.211343 17.776461 
L 253.499156 18.487135 
L 253.786968 17.877984 
L 254.074781 18.395762 
L 254.362593 17.674935 
L 254.650406 18.365306 
L 254.938218 17.999814 
L 255.513843 17.9389 
L 255.801655 18.720641 
L 256.37728 18.365306 
L 256.952905 18.395762 
L 257.240717 18.040423 
L 257.52853 17.999814 
L 257.816342 18.395762 
L 258.679779 17.9389 
L 259.255404 18.263779 
L 259.543217 17.9389 
L 259.831029 18.527745 
L 260.118841 17.746001 
L 260.406654 18.10134 
L 260.982279 17.999814 
L 261.270091 17.9389 
L 261.557903 17.583562 
L 261.845716 18.263779 
L 262.421341 18.10134 
L 262.709153 18.456675 
L 262.996966 17.908444 
L 263.284778 17.806918 
L 263.57259 17.9389 
L 263.860403 18.395762 
L 264.148215 18.070883 
L 264.436028 18.527745 
L 264.72384 18.294236 
L 265.011652 18.263779 
L 265.299465 19.147046 
L 265.587277 19.106436 
L 265.87509 17.390666 
L 266.738527 18.527745 
L 267.026339 18.233323 
L 267.314152 18.10134 
L 267.601964 18.10134 
L 267.889777 18.233323 
L 268.177589 18.781557 
L 268.465401 18.233323 
L 269.904463 18.10134 
L 270.192276 18.233323 
L 270.480088 18.720641 
L 271.055713 18.131796 
L 271.631338 17.674935 
L 271.91915 17.999814 
L 272.206963 18.527745 
L 272.494775 18.365306 
L 272.782588 17.715545 
L 273.0704 17.908444 
L 273.358212 17.746001 
L 273.646025 18.426219 
L 273.933837 17.746001 
L 274.22165 18.233323 
L 274.509462 17.908444 
L 274.797274 18.162256 
L 275.085087 18.263779 
L 275.372899 18.040423 
L 275.660712 18.487135 
L 275.948524 18.487135 
L 276.236337 17.9389 
L 276.524149 18.131796 
L 277.099774 18.070883 
L 277.387586 18.588658 
L 277.675399 18.720641 
L 277.963211 18.558202 
L 278.251023 18.781557 
L 278.826648 18.558202 
L 279.402273 17.9389 
L 279.690086 18.040423 
L 279.977898 17.644478 
L 280.26571 18.527745 
L 280.553523 18.426219 
L 280.841335 18.202866 
L 281.129148 17.746001 
L 281.41696 18.324696 
L 281.704772 18.487135 
L 281.992585 18.131796 
L 282.56821 18.527745 
L 282.856022 18.324696 
L 283.143834 18.690184 
L 283.719459 17.644478 
L 284.007272 19.106436 
L 284.295084 17.674935 
L 284.582897 17.674935 
L 284.870709 18.233323 
L 285.158521 18.487135 
L 285.446334 18.162256 
L 285.734146 18.233323 
L 286.021959 17.837374 
L 286.597583 18.487135 
L 287.173208 18.131796 
L 287.461021 17.999814 
L 287.748833 18.588658 
L 288.036646 18.162256 
L 288.324458 18.070883 
L 288.61227 18.294236 
L 289.187895 19.04552 
L 289.76352 18.162256 
L 290.051332 18.10134 
L 290.339145 18.751098 
L 291.202582 18.588658 
L 291.490394 18.263779 
L 291.778207 18.233323 
L 292.066019 18.527745 
L 292.641644 17.877984 
L 292.929457 18.690184 
L 293.505081 18.263779 
L 293.792894 19.106436 
L 294.080706 18.263779 
L 294.368519 18.202866 
L 294.656331 17.969357 
L 295.231956 18.294236 
L 295.519768 18.131796 
L 295.807581 18.233323 
L 296.095393 18.943997 
L 296.383206 18.162256 
L 296.671018 18.294236 
L 296.95883 18.131796 
L 297.246643 17.806918 
L 297.534455 18.162256 
L 297.822268 18.10134 
L 298.11008 18.690184 
L 298.397892 17.674935 
L 298.685705 18.588658 
L 298.973517 18.852624 
L 299.549142 18.202866 
L 299.836954 18.822167 
L 300.124767 18.202866 
L 300.412579 18.294236 
L 300.700392 17.776461 
L 300.988204 18.365306 
L 301.563829 18.619118 
L 302.139454 18.426219 
L 302.427266 19.177503 
L 302.715079 18.131796 
L 303.002891 18.527745 
L 303.290703 18.395762 
L 303.578516 18.751098 
L 303.866328 18.365306 
L 304.154141 18.649575 
L 304.441953 18.619118 
L 304.729766 18.070883 
L 305.593203 18.487135 
L 305.881015 18.263779 
L 306.168828 18.233323 
L 306.45664 17.969357 
L 306.744452 18.10134 
L 307.032265 17.674935 
L 307.320077 18.233323 
L 307.60789 18.456675 
L 307.895702 18.527745 
L 308.183514 17.806918 
L 308.471327 18.487135 
L 308.759139 17.969357 
L 309.046952 18.588658 
L 309.622577 17.969357 
L 309.910389 17.9389 
L 310.198201 17.482039 
L 310.486014 18.395762 
L 310.773826 18.588658 
L 311.349451 17.644478 
L 311.925076 18.365306 
L 312.212888 18.202866 
L 312.500701 17.908444 
L 312.788513 18.324696 
L 313.076326 17.837374 
L 313.65195 18.131796 
L 313.939763 18.781557 
L 314.227575 18.690184 
L 314.515388 17.644478 
L 314.8032 18.263779 
L 315.091012 18.294236 
L 315.378825 18.527745 
L 315.666637 17.999814 
L 315.95445 17.908444 
L 316.242262 18.426219 
L 316.530074 18.202866 
L 316.817887 17.553105 
L 317.105699 19.471925 
L 317.681324 18.456675 
L 317.969137 18.822167 
L 318.256949 18.426219 
L 318.544761 18.619118 
L 318.832574 18.10134 
L 319.120386 18.426219 
L 319.408199 18.365306 
L 319.696011 18.558202 
L 319.983823 18.487135 
L 320.271636 18.131796 
L 320.559448 18.88308 
L 320.847261 19.147046 
L 321.422886 121.088199 
L 321.710698 127.49442 
L 321.99851 128.408144 
L 322.286323 128.144179 
L 322.574135 128.184789 
L 322.861948 127.727927 
L 323.14976 128.276162 
L 323.437572 128.245704 
L 324.013197 127.758385 
L 324.588822 127.920824 
L 324.876634 128.184789 
L 325.452259 127.301523 
L 326.027884 128.570584 
L 326.315697 128.113722 
L 326.603509 127.951282 
L 326.891321 127.595945 
L 327.179134 127.85991 
L 327.466946 127.819299 
L 327.754759 128.052807 
L 328.042571 127.890367 
L 328.330383 128.052807 
L 328.618196 128.083264 
L 328.906008 127.920824 
L 329.193821 127.98174 
L 329.481633 127.788842 
L 329.769446 128.306619 
L 330.057258 128.276162 
L 330.632883 127.65686 
L 330.920695 128.144179 
L 331.208508 128.083264 
L 331.49632 127.595945 
L 331.784132 127.758385 
L 332.071945 127.463962 
L 332.359757 127.727927 
L 332.64757 128.469059 
L 333.223194 127.49442 
L 333.511007 128.113722 
L 333.798819 127.49442 
L 334.374444 127.69747 
L 334.662257 127.98174 
L 335.237881 127.565487 
L 335.525694 128.377687 
L 335.813506 128.540126 
L 336.101319 128.438602 
L 336.389131 128.215247 
L 336.676943 128.144179 
L 336.964756 128.215247 
L 337.828193 127.890367 
L 338.116006 128.184789 
L 338.403818 127.65686 
L 338.69163 127.463962 
L 338.979443 128.083264 
L 339.267255 128.215247 
L 339.555068 127.65686 
L 339.84288 127.37259 
L 340.130692 127.595945 
L 340.418505 128.113722 
L 340.706317 127.920824 
L 340.99413 128.601041 
L 341.281942 127.920824 
L 341.569754 128.083264 
L 341.857567 128.408144 
L 342.433192 127.65686 
L 343.008817 128.570584 
L 343.296629 127.85991 
L 343.584441 127.565487 
L 343.872254 128.083264 
L 344.160066 127.69747 
L 344.735691 127.49442 
L 345.023503 127.98174 
L 345.311316 127.727927 
L 345.886941 128.245704 
L 346.174753 128.083264 
L 346.462566 128.113722 
L 347.03819 127.595945 
L 347.326003 127.920824 
L 347.613815 127.595945 
L 348.18944 128.469059 
L 348.477252 127.951282 
L 348.765065 127.758385 
L 349.628502 128.245704 
L 349.916314 127.758385 
L 350.204127 128.276162 
L 350.491939 127.920824 
L 350.779752 127.240608 
L 351.067564 127.951282 
L 351.355377 127.626402 
L 351.643189 128.113722 
L 352.218814 127.595945 
L 352.506626 127.727927 
L 352.794439 127.69747 
L 353.082251 127.33198 
L 353.370063 127.626402 
L 353.657876 127.433505 
L 353.945688 128.509669 
L 354.233501 127.951282 
L 354.521313 127.69747 
L 354.809126 128.083264 
L 355.38475 127.565487 
L 355.672563 127.890367 
L 355.960375 127.69747 
L 356.248188 127.727927 
L 356.536 127.301523 
L 356.823812 127.37259 
L 357.111625 127.271065 
L 357.399437 127.920824 
L 357.68725 128.865006 
L 357.975062 127.65686 
L 358.550687 127.920824 
L 358.838499 127.69747 
L 359.126312 127.951282 
L 359.414124 127.69747 
L 359.701937 128.276162 
L 359.989749 128.347229 
L 360.277561 127.920824 
L 360.565374 128.245704 
L 361.140999 127.433505 
L 361.428811 127.951282 
L 361.716623 127.920824 
L 362.004436 128.113722 
L 362.292248 127.758385 
L 362.580061 127.65686 
L 362.867873 127.788842 
L 363.155686 127.65686 
L 363.443498 128.022349 
L 363.73131 127.21015 
L 364.019123 128.083264 
L 364.306935 128.215247 
L 364.594748 128.113722 
L 364.88256 127.758385 
L 365.745997 128.377687 
L 366.03381 127.463962 
L 366.321622 127.951282 
L 366.897247 127.951282 
L 367.185059 128.276162 
L 367.760684 127.920824 
L 368.048497 127.65686 
L 368.336309 128.144179 
L 368.624121 128.276162 
L 369.199746 128.052807 
L 369.775371 128.276162 
L 370.063183 127.788842 
L 370.350996 128.215247 
L 370.638808 128.215247 
L 370.926621 127.98174 
L 371.214433 128.083264 
L 371.502246 128.377687 
L 371.790058 128.022349 
L 372.07787 127.433505 
L 372.365683 128.631499 
L 372.653495 128.672109 
L 372.941308 127.85991 
L 373.22912 127.595945 
L 373.516932 127.98174 
L 373.804745 127.626402 
L 374.092557 128.052807 
L 374.38037 127.626402 
L 374.955994 127.240608 
L 375.243807 127.37259 
L 375.531619 127.920824 
L 375.819432 127.49442 
L 376.107244 128.672109 
L 376.395057 127.433505 
L 376.682869 127.37259 
L 376.970681 127.788842 
L 377.258494 127.21015 
L 377.546306 127.65686 
L 377.834119 127.49442 
L 378.409743 127.595945 
L 378.697556 127.49442 
L 378.985368 127.85991 
L 379.273181 128.022349 
L 379.848806 128.083264 
L 380.136618 127.565487 
L 380.42443 127.819299 
L 380.712243 128.276162 
L 381.000055 128.184789 
L 381.287868 127.65686 
L 381.57568 127.53503 
L 381.863492 128.052807 
L 382.151305 127.98174 
L 382.439117 128.113722 
L 382.72693 128.022349 
L 383.014742 127.626402 
L 383.302554 127.788842 
L 383.878179 127.626402 
L 384.165992 128.083264 
L 384.453804 127.139083 
L 385.029429 128.022349 
L 385.317241 127.49442 
L 385.605054 127.271065 
L 385.892866 127.727927 
L 386.180679 127.49442 
L 386.468491 127.98174 
L 387.044116 127.595945 
L 387.331928 128.215247 
L 387.619741 128.509669 
L 388.483178 127.85991 
L 388.77099 128.276162 
L 389.058803 128.276162 
L 389.346615 128.113722 
L 389.92224 127.271065 
L 390.210052 127.890367 
L 390.497865 127.108625 
L 390.785677 128.113722 
L 391.07349 127.788842 
L 391.649114 128.022349 
L 391.936927 127.69747 
L 392.224739 127.890367 
L 392.512552 127.85991 
L 392.800364 128.408144 
L 393.088177 128.245704 
L 393.375989 127.890367 
L 393.663801 127.788842 
L 393.951614 127.920824 
L 394.239426 127.788842 
L 394.527239 128.509669 
L 395.102863 24.67 
L 395.390676 19.238419 
L 395.678488 17.258683 
L 395.966301 17.583562 
L 396.254113 17.674935 
L 396.541926 17.614022 
L 396.829738 17.806918 
L 397.11755 17.674935 
L 397.693175 18.263779 
L 397.980988 17.969357 
L 398.844425 17.969357 
L 399.132237 18.487135 
L 399.42005 18.365306 
L 399.707862 18.88308 
L 399.995674 18.233323 
L 400.283487 18.131796 
L 400.571299 18.619118 
L 400.859112 18.10134 
L 401.146924 18.619118 
L 401.434737 18.558202 
L 401.722549 18.10134 
L 402.010361 17.908444 
L 402.298174 18.294236 
L 402.585986 18.233323 
L 402.873799 18.456675 
L 403.161611 18.131796 
L 403.737236 18.487135 
L 404.025048 18.263779 
L 404.312861 18.822167 
L 404.600673 18.162256 
L 404.888486 18.558202 
L 405.176298 18.324696 
L 405.751923 18.365306 
L 406.039735 18.131796 
L 406.327548 18.294236 
L 406.61536 18.263779 
L 407.190985 18.852624 
L 407.478797 18.487135 
L 407.76661 18.822167 
L 408.054422 18.233323 
L 408.342234 17.908444 
L 408.630047 17.999814 
L 408.917859 17.614022 
L 409.205672 19.177503 
L 409.781297 17.969357 
L 410.069109 18.162256 
L 410.356921 17.9389 
L 410.644734 18.395762 
L 411.220359 18.324696 
L 411.508171 17.746001 
L 411.795983 18.233323 
L 412.083796 18.233323 
L 412.371608 17.969357 
L 412.659421 18.324696 
L 412.947233 19.309486 
L 413.235046 17.969357 
L 413.522858 17.999814 
L 413.81067 17.837374 
L 414.098483 18.233323 
L 414.386295 18.395762 
L 414.674108 18.263779 
L 414.96192 18.365306 
L 415.249732 19.015063 
L 415.537545 18.233323 
L 415.825357 18.131796 
L 416.11317 18.426219 
L 416.400982 18.943997 
L 416.688794 18.294236 
L 416.976607 17.969357 
L 417.264419 18.365306 
L 417.552232 18.162256 
L 417.840044 18.619118 
L 418.415669 18.233323 
L 418.991294 18.690184 
L 419.279106 18.781557 
L 419.566919 18.395762 
L 419.854731 18.619118 
L 420.142543 18.10134 
L 420.430356 17.9389 
L 421.005981 18.822167 
L 421.581606 17.746001 
L 422.15723 18.527745 
L 422.732855 18.162256 
L 423.020668 18.588658 
L 423.30848 18.10134 
L 423.596292 18.456675 
L 423.884105 17.999814 
L 424.171917 18.619118 
L 424.45973 18.487135 
L 424.747542 18.527745 
L 425.035354 18.943997 
L 425.610979 18.162256 
L 425.898792 18.558202 
L 426.186604 18.487135 
L 426.474417 18.040423 
L 426.762229 18.070883 
L 427.050041 18.487135 
L 427.337854 18.324696 
L 427.625666 18.943997 
L 428.201291 18.131796 
L 428.489103 18.395762 
L 428.776916 18.040423 
L 429.064728 18.690184 
L 429.352541 18.395762 
L 429.928166 18.822167 
L 430.215978 18.781557 
L 430.50379 18.070883 
L 430.791603 18.395762 
L 431.079415 18.263779 
L 431.367228 19.207963 
L 431.65504 17.969357 
L 431.942852 17.9389 
L 432.230665 18.263779 
L 432.518477 18.233323 
L 432.80629 18.040423 
L 433.094102 18.527745 
L 433.381914 17.969357 
L 433.669727 18.527745 
L 433.957539 17.877984 
L 434.245352 18.294236 
L 434.533164 17.999814 
L 434.820977 18.619118 
L 435.108789 17.674935 
L 435.396601 18.558202 
L 435.684414 18.233323 
L 435.972226 18.751098 
L 436.260039 18.527745 
L 436.547851 18.070883 
L 437.699101 18.487135 
L 437.986913 18.558202 
L 438.274726 18.781557 
L 438.562538 18.781557 
L 439.138163 18.294236 
L 439.713788 19.07598 
L 440.0016 18.943997 
L 440.289412 18.070883 
L 440.865037 18.619118 
L 441.15285 18.588658 
L 441.440662 18.365306 
L 441.728474 19.238419 
L 442.016287 18.365306 
L 442.304099 17.969357 
L 442.591912 17.877984 
L 442.879724 18.070883 
L 443.455349 17.908444 
L 443.743161 18.649575 
L 444.030974 18.426219 
L 444.318786 18.365306 
L 445.182223 18.751098 
L 445.470036 18.131796 
L 445.757848 17.9389 
L 446.045661 18.365306 
L 446.333473 19.04552 
L 446.621286 18.527745 
L 446.909098 18.395762 
L 447.484723 18.649575 
L 447.772535 18.852624 
L 448.060348 18.070883 
L 448.923785 18.487135 
L 449.211597 18.558202 
L 449.49941 18.10134 
L 449.787222 18.91354 
L 450.075034 18.487135 
L 450.650659 18.294236 
L 450.938472 18.588658 
L 451.226284 18.588658 
L 451.514097 18.852624 
L 451.801909 18.365306 
L 452.089721 18.395762 
L 452.377534 17.9389 
L 452.665346 18.263779 
L 452.953159 18.202866 
L 453.240971 18.781557 
L 453.528783 18.070883 
L 454.104408 18.649575 
L 454.392221 18.324696 
L 454.680033 18.649575 
L 454.967846 18.751098 
L 455.255658 17.999814 
L 455.54347 18.395762 
L 455.831283 18.527745 
L 456.119095 18.233323 
L 456.406908 18.558202 
L 456.69472 18.456675 
L 457.270345 18.822167 
L 457.558157 18.690184 
L 457.84597 18.781557 
L 458.133782 18.690184 
L 458.421594 18.294236 
L 459.285032 18.781557 
L 459.572844 18.456675 
L 459.860657 18.690184 
L 460.148469 18.751098 
L 460.724094 18.395762 
L 461.011906 18.426219 
L 461.299719 18.070883 
L 461.587531 17.999814 
L 461.875343 18.88308 
L 462.163156 19.177503 
L 462.738781 18.558202 
L 463.026593 18.294236 
L 463.314406 18.527745 
L 463.89003 17.776461 
L 464.177843 17.806918 
L 464.753468 19.147046 
L 465.04128 18.131796 
L 465.329092 18.984607 
L 465.616905 18.649575 
L 465.904717 18.88308 
L 466.19253 18.720641 
L 466.480342 18.822167 
L 466.768154 18.294236 
L 467.055967 19.177503 
L 467.343779 18.070883 
L 467.631592 18.294236 
L 467.919404 18.690184 
L 468.207217 19.339942 
L 468.782841 120.834387 
L 469.070654 127.819299 
L 469.358466 128.306619 
L 469.646279 128.408144 
L 469.934091 128.631499 
L 470.221903 128.702566 
L 470.509716 128.377687 
L 470.797528 127.788842 
L 471.373153 128.570584 
L 471.660966 128.245704 
L 471.948778 128.509669 
L 472.23659 127.758385 
L 472.524403 127.819299 
L 472.812215 127.626402 
L 473.100028 127.890367 
L 473.38784 127.727927 
L 473.675652 128.276162 
L 473.963465 128.113722 
L 474.251277 129.057903 
L 474.53909 128.245704 
L 474.826902 127.890367 
L 475.402527 128.083264 
L 475.690339 127.33198 
L 475.978152 128.245704 
L 476.265964 128.377687 
L 476.553777 128.144179 
L 476.841589 128.113722 
L 477.417214 128.672109 
L 477.705026 128.347229 
L 478.568463 128.113722 
L 478.856276 127.403048 
L 479.144088 128.144179 
L 479.719713 128.570584 
L 480.007526 128.052807 
L 480.295338 128.347229 
L 480.58315 128.144179 
L 480.870963 128.276162 
L 481.158775 127.920824 
L 481.7344 128.215247 
L 482.022212 128.184789 
L 482.597837 127.0071 
L 482.88565 128.113722 
L 483.173462 128.438602 
L 483.461274 127.890367 
L 483.749087 127.98174 
L 484.036899 127.626402 
L 484.324712 127.819299 
L 484.612524 127.819299 
L 484.900337 127.595945 
L 485.188149 127.98174 
L 485.475961 127.920824 
L 485.763774 127.98174 
L 486.051586 128.184789 
L 486.339399 127.758385 
L 486.627211 128.245704 
L 486.915023 127.65686 
L 487.202836 127.819299 
L 487.490648 128.631499 
L 487.778461 127.595945 
L 488.066273 127.240608 
L 488.354086 128.113722 
L 488.641898 127.951282 
L 488.92971 127.951282 
L 489.217523 128.306619 
L 489.505335 127.98174 
L 489.793148 128.601041 
L 490.08096 127.920824 
L 490.368772 128.570584 
L 490.656585 128.083264 
L 490.944397 128.509669 
L 491.23221 127.626402 
L 491.807834 127.920824 
L 492.095647 128.245704 
L 492.383459 128.215247 
L 492.671272 127.758385 
L 492.959084 128.022349 
L 493.246897 127.819299 
L 493.534709 127.758385 
L 494.110334 127.819299 
L 494.398146 128.306619 
L 494.973771 127.240608 
L 495.261583 128.052807 
L 495.549396 128.022349 
L 495.837208 128.408144 
L 496.125021 128.570584 
L 496.700646 128.113722 
L 496.988458 128.022349 
L 497.564083 127.98174 
L 497.851895 127.727927 
L 498.139708 127.819299 
L 498.42752 127.788842 
L 499.003145 128.184789 
L 499.290957 127.240608 
L 499.57877 127.626402 
L 500.154394 127.65686 
L 500.442207 128.052807 
L 500.730019 127.626402 
L 501.017832 127.463962 
L 501.593457 128.113722 
L 501.881269 128.022349 
L 502.169081 128.113722 
L 502.744706 127.727927 
L 503.032519 127.920824 
L 503.320331 127.433505 
L 503.895956 127.69747 
L 504.183768 127.727927 
L 504.471581 127.463962 
L 504.759393 127.758385 
L 505.047206 128.215247 
L 505.335018 128.276162 
L 505.62283 127.788842 
L 505.910643 128.245704 
L 506.198455 128.276162 
L 506.77408 127.37259 
L 507.061892 127.758385 
L 507.349705 127.788842 
L 507.637517 128.022349 
L 507.92533 128.083264 
L 508.213142 127.890367 
L 508.788767 128.347229 
L 509.364392 127.758385 
L 509.940017 127.463962 
L 510.227829 127.758385 
L 510.515641 127.565487 
L 510.803454 127.53503 
L 511.379079 127.108625 
L 511.666891 127.920824 
L 511.954703 128.083264 
L 512.242516 127.890367 
L 512.530328 127.53503 
L 512.818141 127.819299 
L 513.105953 128.631499 
L 513.393766 127.951282 
L 513.681578 128.408144 
L 513.96939 128.022349 
L 514.257203 127.271065 
L 514.545015 127.65686 
L 514.832828 128.865006 
L 515.12064 127.788842 
L 515.408452 128.113722 
L 516.559702 127.951282 
L 516.847514 128.245704 
L 517.135327 128.347229 
L 517.423139 127.819299 
L 517.710952 128.347229 
L 518.286577 127.890367 
L 518.574389 128.144179 
L 518.862201 127.951282 
L 519.150014 128.276162 
L 519.437826 127.595945 
L 519.725639 128.469059 
L 520.013451 128.956379 
L 520.301263 127.727927 
L 520.589076 128.052807 
L 520.876888 128.113722 
L 521.164701 127.819299 
L 521.452513 128.245704 
L 521.740326 128.083264 
L 522.31595 128.377687 
L 522.891575 127.403048 
L 523.4672 128.793939 
L 523.755012 127.53503 
L 524.042825 127.69747 
L 524.330637 126.976643 
L 524.61845 127.65686 
L 524.906262 127.49442 
L 525.194074 127.85991 
L 525.769699 127.98174 
L 526.057512 128.245704 
L 526.633137 128.113722 
L 526.920949 128.144179 
L 527.784386 127.69747 
L 528.072199 128.601041 
L 528.360011 128.570584 
L 528.647823 128.996988 
L 528.935636 128.215247 
L 529.223448 128.144179 
L 529.511261 127.920824 
L 529.799073 127.85991 
L 530.374698 128.184789 
L 530.66251 128.083264 
L 530.950323 128.113722 
L 531.238135 128.469059 
L 531.81376 128.215247 
L 532.389385 127.890367 
L 532.677197 127.951282 
L 532.96501 128.276162 
L 533.252822 127.626402 
L 533.540634 128.052807 
L 533.828447 127.565487 
L 534.979697 128.347229 
L 535.267509 127.890367 
L 535.555321 127.98174 
L 535.843134 127.65686 
L 536.130946 128.144179 
L 536.418759 128.052807 
L 536.706571 128.306619 
L 536.994383 128.733024 
L 537.857821 127.433505 
L 538.145633 127.727927 
L 538.433446 128.347229 
L 538.721258 127.98174 
L 539.296883 128.631499 
L 539.584695 128.215247 
L 539.872508 128.113722 
L 540.16032 128.377687 
L 540.448132 127.85991 
L 540.735945 128.763481 
L 541.023757 128.438602 
L 541.31157 128.601041 
L 541.599382 128.438602 
L 541.887194 128.540126 
L 542.462819 25.187778 
L 542.750632 18.88308 
L 543.038444 18.131796 
L 543.326257 17.9389 
L 543.614069 18.395762 
L 543.901881 18.558202 
L 544.189694 18.202866 
L 544.477506 18.649575 
L 544.765319 18.10134 
L 545.053131 18.070883 
L 545.340943 18.395762 
L 545.916568 17.999814 
L 546.204381 18.527745 
L 546.492193 18.070883 
L 546.780006 18.365306 
L 547.067818 18.822167 
L 547.35563 18.365306 
L 547.643443 18.395762 
L 547.931255 17.644478 
L 548.219068 18.294236 
L 548.50688 18.10134 
L 549.082505 18.649575 
L 549.370317 18.619118 
L 549.65813 18.720641 
L 549.945942 17.837374 
L 550.521567 18.751098 
L 550.809379 18.588658 
L 551.097192 18.070883 
L 551.385004 18.720641 
L 551.672817 18.822167 
L 551.960629 18.202866 
L 552.248441 18.751098 
L 552.536254 18.588658 
L 552.824066 18.690184 
L 553.111879 19.106436 
L 553.687503 18.751098 
L 553.975316 18.822167 
L 554.263128 18.619118 
L 554.550941 18.751098 
L 554.838753 18.690184 
L 555.126566 18.984607 
L 555.70219 18.263779 
L 555.990003 18.588658 
L 556.277815 18.527745 
L 556.565628 19.015063 
L 556.85344 19.268876 
L 557.141252 18.365306 
L 557.429065 18.588658 
L 557.716877 18.487135 
L 558.00469 18.070883 
L 558.292502 18.720641 
L 558.580314 18.233323 
L 558.868127 18.10134 
L 559.155939 18.263779 
L 559.443752 18.10134 
L 559.731564 18.487135 
L 560.019377 18.395762 
L 560.307189 18.558202 
L 560.595001 17.999814 
L 561.170626 18.131796 
L 561.458439 18.456675 
L 561.746251 18.070883 
L 562.034063 18.10134 
L 562.321876 18.395762 
L 563.185313 18.649575 
L 563.473126 19.04552 
L 564.336563 18.649575 
L 564.624375 18.131796 
L 564.912188 18.619118 
L 565.2 18.456675 
L 565.487812 18.91354 
L 565.487812 18.91354 
" clip-path="url(#p1d8a2c4543)" style="fill: none; stroke: #000000; stroke-width: 2; stroke-linecap: square"/>
   </g>
   <g id="LineCollection_1">
    <path d="M 99.303655 76.475924 
L 248.246579 76.475924 
" clip-path="url(#p1d8a2c4543)" style="fill: none; stroke-dasharray: 11.1,4.8; stroke-dashoffset: 0; stroke: #0000ff; stroke-width: 3"/>
   </g>
   <g id="patch_3">
    <path d="M 43.54 137.032819 
L 43.54 10.8 
" style="fill: none; stroke: #000000; stroke-width: 0.8; stroke-linejoin: miter; stroke-linecap: square"/>
   </g>
   <g id="patch_4">
    <path d="M 565.2 137.032819 
L 565.2 10.8 
" style="fill: none; stroke: #000000; stroke-width: 0.8; stroke-linejoin: miter; stroke-linecap: square"/>
   </g>
   <g id="patch_5">
    <path d="M 43.54 137.032819 
L 565.2 137.032819 
" style="fill: none; stroke: #000000; stroke-width: 0.8; stroke-linejoin: miter; stroke-linecap: square"/>
   </g>
   <g id="patch_6">
    <path d="M 43.54 10.8 
L 565.2 10.8 
" style="fill: none; stroke: #000000; stroke-width: 0.8; stroke-linejoin: miter; stroke-linecap: square"/>
   </g>
   <g id="text_3">
    <g id="patch_7">
     <path d="M 160.463793 71.593215 
L 209.180043 71.593215 
Q 212.780043 71.593215 212.780043 67.993215 
L 212.780043 56.379465 
Q 212.780043 52.779465 209.180043 52.779465 
L 160.463793 52.779465 
Q 156.863793 52.779465 156.863793 56.379465 
L 156.863793 67.993215 
Q 156.863793 71.593215 160.463793 71.593215 
z
" style="fill: #ffffff; stroke: #0000ff; stroke-linejoin: miter"/>
    </g>
    <!-- 8 cycles -->
    <g transform="translate(160.463793 65.49759) scale(0.12 -0.12)">
     <defs>
      <path id="DejaVuSans-38" d="M 2034 2216 
Q 1584 2216 1326 1975 
Q 1069 1734 1069 1313 
Q 1069 891 1326 650 
Q 1584 409 2034 409 
Q 2484 409 2743 651 
Q 3003 894 3003 1313 
Q 3003 1734 2745 1975 
Q 2488 2216 2034 2216 
z
M 1403 2484 
Q 997 2584 770 2862 
Q 544 3141 544 3541 
Q 544 4100 942 4425 
Q 1341 4750 2034 4750 
Q 2731 4750 3128 4425 
Q 3525 4100 3525 3541 
Q 3525 3141 3298 2862 
Q 3072 2584 2669 2484 
Q 3125 2378 3379 2068 
Q 3634 1759 3634 1313 
Q 3634 634 3220 271 
Q 2806 -91 2034 -91 
Q 1263 -91 848 271 
Q 434 634 434 1313 
Q 434 1759 690 2068 
Q 947 2378 1403 2484 
z
M 1172 3481 
Q 1172 3119 1398 2916 
Q 1625 2713 2034 2713 
Q 2441 2713 2670 2916 
Q 2900 3119 2900 3481 
Q 2900 3844 2670 4047 
Q 2441 4250 2034 4250 
Q 1625 4250 1398 4047 
Q 1172 3844 1172 3481 
z
" transform="scale(0.015625)"/>
      <path id="DejaVuSans-63" d="M 3122 3366 
L 3122 2828 
Q 2878 2963 2633 3030 
Q 2388 3097 2138 3097 
Q 1578 3097 1268 2742 
Q 959 2388 959 1747 
Q 959 1106 1268 751 
Q 1578 397 2138 397 
Q 2388 397 2633 464 
Q 2878 531 3122 666 
L 3122 134 
Q 2881 22 2623 -34 
Q 2366 -91 2075 -91 
Q 1284 -91 818 406 
Q 353 903 353 1747 
Q 353 2603 823 3093 
Q 1294 3584 2113 3584 
Q 2378 3584 2631 3529 
Q 2884 3475 3122 3366 
z
" transform="scale(0.015625)"/>
      <path id="DejaVuSans-79" d="M 2059 -325 
Q 1816 -950 1584 -1140 
Q 1353 -1331 966 -1331 
L 506 -1331 
L 506 -850 
L 844 -850 
Q 1081 -850 1212 -737 
Q 1344 -625 1503 -206 
L 1606 56 
L 191 3500 
L 800 3500 
L 1894 763 
L 2988 3500 
L 3597 3500 
L 2059 -325 
z
" transform="scale(0.015625)"/>
      <path id="DejaVuSans-6c" d="M 603 4863 
L 1178 4863 
L 1178 0 
L 603 0 
L 603 4863 
z
" transform="scale(0.015625)"/>
      <path id="DejaVuSans-65" d="M 3597 1894 
L 3597 1613 
L 953 1613 
Q 991 1019 1311 708 
Q 1631 397 2203 397 
Q 2534 397 2845 478 
Q 3156 559 3463 722 
L 3463 178 
Q 3153 47 2828 -22 
Q 2503 -91 2169 -91 
Q 1331 -91 842 396 
Q 353 884 353 1716 
Q 353 2575 817 3079 
Q 1281 3584 2069 3584 
Q 2775 3584 3186 3129 
Q 3597 2675 3597 1894 
z
M 3022 2063 
Q 3016 2534 2758 2815 
Q 2500 3097 2075 3097 
Q 1594 3097 1305 2825 
Q 1016 2553 972 2059 
L 3022 2063 
z
" transform="scale(0.015625)"/>
      <path id="DejaVuSans-73" d="M 2834 3397 
L 2834 2853 
Q 2591 2978 2328 3040 
Q 2066 3103 1784 3103 
Q 1356 3103 1142 2972 
Q 928 2841 928 2578 
Q 928 2378 1081 2264 
Q 1234 2150 1697 2047 
L 1894 2003 
Q 2506 1872 2764 1633 
Q 3022 1394 3022 966 
Q 3022 478 2636 193 
Q 2250 -91 1575 -91 
Q 1294 -91 989 -36 
Q 684 19 347 128 
L 347 722 
Q 666 556 975 473 
Q 1284 391 1588 391 
Q 1994 391 2212 530 
Q 2431 669 2431 922 
Q 2431 1156 2273 1281 
Q 2116 1406 1581 1522 
L 1381 1569 
Q 847 1681 609 1914 
Q 372 2147 372 2553 
Q 372 3047 722 3315 
Q 1072 3584 1716 3584 
Q 2034 3584 2315 3537 
Q 2597 3491 2834 3397 
z
" transform="scale(0.015625)"/>
     </defs>
     <use xlink:href="#DejaVuSans-38"/>
     <use xlink:href="#DejaVuSans-20" transform="translate(63.623047 0)"/>
     <use xlink:href="#DejaVuSans-63" transform="translate(95.410156 0)"/>
     <use xlink:href="#DejaVuSans-79" transform="translate(150.390625 0)"/>
     <use xlink:href="#DejaVuSans-63" transform="translate(209.570312 0)"/>
     <use xlink:href="#DejaVuSans-6c" transform="translate(264.550781 0)"/>
     <use xlink:href="#DejaVuSans-65" transform="translate(292.333984 0)"/>
     <use xlink:href="#DejaVuSans-73" transform="translate(353.857422 0)"/>
    </g>
   </g>
   <g id="text_4">
    <g id="patch_8">
     <path d="M 53.9732 38.648001 
L 76.217888 38.648001 
Q 80.417888 38.648001 80.417888 34.448001 
L 80.417888 20.898626 
Q 80.417888 16.698626 76.217888 16.698626 
L 53.9732 16.698626 
Q 49.7732 16.698626 49.7732 20.898626 
L 49.7732 34.448001 
Q 49.7732 38.648001 53.9732 38.648001 
z
" style="fill: #ffffff; stroke: #000000; stroke-linejoin: miter"/>
    </g>
    <!-- (a) -->
    <g transform="translate(53.9732 31.536438) scale(0.14 -0.14)">
     <defs>
      <path id="DejaVuSans-Bold-28" d="M 2413 -844 
L 1484 -844 
Q 1006 -72 778 623 
Q 550 1319 550 2003 
Q 550 2688 779 3389 
Q 1009 4091 1484 4856 
L 2413 4856 
Q 2013 4116 1813 3408 
Q 1613 2700 1613 2009 
Q 1613 1319 1811 609 
Q 2009 -100 2413 -844 
z
" transform="scale(0.015625)"/>
      <path id="DejaVuSans-Bold-61" d="M 2106 1575 
Q 1756 1575 1579 1456 
Q 1403 1338 1403 1106 
Q 1403 894 1545 773 
Q 1688 653 1941 653 
Q 2256 653 2472 879 
Q 2688 1106 2688 1447 
L 2688 1575 
L 2106 1575 
z
M 3816 1997 
L 3816 0 
L 2688 0 
L 2688 519 
Q 2463 200 2181 54 
Q 1900 -91 1497 -91 
Q 953 -91 614 226 
Q 275 544 275 1050 
Q 275 1666 698 1953 
Q 1122 2241 2028 2241 
L 2688 2241 
L 2688 2328 
Q 2688 2594 2478 2717 
Q 2269 2841 1825 2841 
Q 1466 2841 1156 2769 
Q 847 2697 581 2553 
L 581 3406 
Q 941 3494 1303 3539 
Q 1666 3584 2028 3584 
Q 2975 3584 3395 3211 
Q 3816 2838 3816 1997 
z
" transform="scale(0.015625)"/>
      <path id="DejaVuSans-Bold-29" d="M 513 -844 
Q 913 -100 1113 609 
Q 1313 1319 1313 2009 
Q 1313 2700 1113 3408 
Q 913 4116 513 4856 
L 1441 4856 
Q 1916 4091 2145 3389 
Q 2375 2688 2375 2003 
Q 2375 1319 2147 623 
Q 1919 -72 1441 -844 
L 513 -844 
z
" transform="scale(0.015625)"/>
     </defs>
     <use xlink:href="#DejaVuSans-Bold-28"/>
     <use xlink:href="#DejaVuSans-Bold-61" transform="translate(45.703125 0)"/>
     <use xlink:href="#DejaVuSans-Bold-29" transform="translate(113.183594 0)"/>
    </g>
   </g>
   <g id="legend_1">
    <g id="patch_9">
     <path d="M 497.995312 48.15625 
L 558.2 48.15625 
Q 560.2 48.15625 560.2 46.15625 
L 560.2 17.8 
Q 560.2 15.8 558.2 15.8 
L 497.995312 15.8 
Q 495.995312 15.8 495.995312 17.8 
L 495.995312 46.15625 
Q 495.995312 48.15625 497.995312 48.15625 
z
" style="fill: #ffffff; stroke: #cccccc; stroke-linejoin: miter"/>
    </g>
    <g id="line2d_5">
     <path d="M 499.995312 23.898438 
L 509.995312 23.898438 
L 519.995312 23.898438 
" style="fill: none; stroke: #000000; stroke-opacity: 0.2; stroke-width: 1.5; stroke-linecap: square"/>
    </g>
    <g id="text_5">
     <!-- CLK -->
     <g transform="translate(527.995312 27.398438) scale(0.1 -0.1)">
      <defs>
       <path id="DejaVuSans-43" d="M 4122 4306 
L 4122 3641 
Q 3803 3938 3442 4084 
Q 3081 4231 2675 4231 
Q 1875 4231 1450 3742 
Q 1025 3253 1025 2328 
Q 1025 1406 1450 917 
Q 1875 428 2675 428 
Q 3081 428 3442 575 
Q 3803 722 4122 1019 
L 4122 359 
Q 3791 134 3420 21 
Q 3050 -91 2638 -91 
Q 1578 -91 968 557 
Q 359 1206 359 2328 
Q 359 3453 968 4101 
Q 1578 4750 2638 4750 
Q 3056 4750 3426 4639 
Q 3797 4528 4122 4306 
z
" transform="scale(0.015625)"/>
       <path id="DejaVuSans-4c" d="M 628 4666 
L 1259 4666 
L 1259 531 
L 3531 531 
L 3531 0 
L 628 0 
L 628 4666 
z
" transform="scale(0.015625)"/>
       <path id="DejaVuSans-4b" d="M 628 4666 
L 1259 4666 
L 1259 2694 
L 3353 4666 
L 4166 4666 
L 1850 2491 
L 4331 0 
L 3500 0 
L 1259 2247 
L 1259 0 
L 628 0 
L 628 4666 
z
" transform="scale(0.015625)"/>
      </defs>
      <use xlink:href="#DejaVuSans-43"/>
      <use xlink:href="#DejaVuSans-4c" transform="translate(69.824219 0)"/>
      <use xlink:href="#DejaVuSans-4b" transform="translate(125.537109 0)"/>
     </g>
    </g>
    <g id="line2d_6">
     <path d="M 499.995312 38.576562 
L 509.995312 38.576562 
L 519.995312 38.576562 
" style="fill: none; stroke: #000000; stroke-width: 2; stroke-linecap: square"/>
    </g>
    <g id="text_6">
     <!-- SPIKE -->
     <g transform="translate(527.995312 42.076562) scale(0.1 -0.1)">
      <defs>
       <path id="DejaVuSans-53" d="M 3425 4513 
L 3425 3897 
Q 3066 4069 2747 4153 
Q 2428 4238 2131 4238 
Q 1616 4238 1336 4038 
Q 1056 3838 1056 3469 
Q 1056 3159 1242 3001 
Q 1428 2844 1947 2747 
L 2328 2669 
Q 3034 2534 3370 2195 
Q 3706 1856 3706 1288 
Q 3706 609 3251 259 
Q 2797 -91 1919 -91 
Q 1588 -91 1214 -16 
Q 841 59 441 206 
L 441 856 
Q 825 641 1194 531 
Q 1563 422 1919 422 
Q 2459 422 2753 634 
Q 3047 847 3047 1241 
Q 3047 1584 2836 1778 
Q 2625 1972 2144 2069 
L 1759 2144 
Q 1053 2284 737 2584 
Q 422 2884 422 3419 
Q 422 4038 858 4394 
Q 1294 4750 2059 4750 
Q 2388 4750 2728 4690 
Q 3069 4631 3425 4513 
z
" transform="scale(0.015625)"/>
       <path id="DejaVuSans-50" d="M 1259 4147 
L 1259 2394 
L 2053 2394 
Q 2494 2394 2734 2622 
Q 2975 2850 2975 3272 
Q 2975 3691 2734 3919 
Q 2494 4147 2053 4147 
L 1259 4147 
z
M 628 4666 
L 2053 4666 
Q 2838 4666 3239 4311 
Q 3641 3956 3641 3272 
Q 3641 2581 3239 2228 
Q 2838 1875 2053 1875 
L 1259 1875 
L 1259 0 
L 628 0 
L 628 4666 
z
" transform="scale(0.015625)"/>
       <path id="DejaVuSans-49" d="M 628 4666 
L 1259 4666 
L 1259 0 
L 628 0 
L 628 4666 
z
" transform="scale(0.015625)"/>
       <path id="DejaVuSans-45" d="M 628 4666 
L 3578 4666 
L 3578 4134 
L 1259 4134 
L 1259 2753 
L 3481 2753 
L 3481 2222 
L 1259 2222 
L 1259 531 
L 3634 531 
L 3634 0 
L 628 0 
L 628 4666 
z
" transform="scale(0.015625)"/>
      </defs>
      <use xlink:href="#DejaVuSans-53"/>
      <use xlink:href="#DejaVuSans-50" transform="translate(63.476562 0)"/>
      <use xlink:href="#DejaVuSans-49" transform="translate(123.779297 0)"/>
      <use xlink:href="#DejaVuSans-4b" transform="translate(153.271484 0)"/>
      <use xlink:href="#DejaVuSans-45" transform="translate(218.847656 0)"/>
     </g>
    </g>
   </g>
  </g>
  <g id="axes_2">
   <g id="patch_10">
    <path d="M 43.54 275.661818 
L 565.2 275.661818 
L 565.2 149.428999 
L 43.54 149.428999 
z
" style="fill: #ffffff"/>
   </g>
   <g id="matplotlib.axis_2">
    <g id="ytick_3">
     <g id="line2d_7">
      <g>
       <use xlink:href="#m00edd59bac" x="43.54" y="269.923963" style="stroke: #000000; stroke-width: 0.8"/>
      </g>
     </g>
     <g id="text_7">
      <!-- 0 -->
      <g transform="translate(30.1775 273.723182) scale(0.1 -0.1)">
       <use xlink:href="#DejaVuSans-30"/>
      </g>
     </g>
    </g>
    <g id="ytick_4">
     <g id="line2d_8">
      <g>
       <use xlink:href="#m00edd59bac" x="43.54" y="155.166854" style="stroke: #000000; stroke-width: 0.8"/>
      </g>
     </g>
     <g id="text_8">
      <!-- 1 -->
      <g transform="translate(30.1775 158.966073) scale(0.1 -0.1)">
       <defs>
        <path id="DejaVuSans-31" d="M 794 531 
L 1825 531 
L 1825 4091 
L 703 3866 
L 703 4441 
L 1819 4666 
L 2450 4666 
L 2450 531 
L 3481 531 
L 3481 0 
L 794 0 
L 794 531 
z
" transform="scale(0.015625)"/>
       </defs>
       <use xlink:href="#DejaVuSans-31"/>
      </g>
     </g>
    </g>
   </g>
   <g id="line2d_9">
    <path d="M 34.545862 269.923963 
L 34.545862 155.166854 
L 43.54 155.166854 
L 43.54 269.923963 
L 52.534138 269.923963 
L 52.534138 155.166854 
L 61.528276 155.166854 
L 61.528276 269.923963 
L 70.522414 269.923963 
L 70.522414 155.166854 
L 79.516552 155.166854 
L 79.516552 269.923963 
L 88.51069 269.923963 
L 88.51069 155.166854 
L 97.504828 155.166854 
L 97.504828 269.923963 
L 106.498966 269.923963 
L 106.498966 155.166854 
L 115.493103 155.166854 
L 115.493103 269.923963 
L 124.487241 269.923963 
L 124.487241 155.166854 
L 133.481379 155.166854 
L 133.481379 269.923963 
L 142.475517 269.923963 
L 142.475517 155.166854 
L 151.469655 155.166854 
L 151.469655 269.923963 
L 160.463793 269.923963 
L 160.463793 155.166854 
L 169.457931 155.166854 
L 169.457931 269.923963 
L 178.452069 269.923963 
L 178.452069 155.166854 
L 187.446207 155.166854 
L 187.446207 269.923963 
L 196.440345 269.923963 
L 196.440345 155.166854 
L 205.434483 155.166854 
L 205.434483 269.923963 
L 214.428621 269.923963 
L 214.428621 155.166854 
L 223.422759 155.166854 
L 223.422759 269.923963 
L 232.416897 269.923963 
L 232.416897 155.166854 
L 241.411034 155.166854 
L 241.411034 269.923963 
L 250.405172 269.923963 
L 250.405172 155.166854 
L 259.39931 155.166854 
L 259.39931 269.923963 
L 268.393448 269.923963 
L 268.393448 155.166854 
L 277.387586 155.166854 
L 277.387586 269.923963 
L 286.381724 269.923963 
L 286.381724 155.166854 
L 295.375862 155.166854 
L 295.375862 269.923963 
L 304.37 269.923963 
L 304.37 155.166854 
L 313.364138 155.166854 
L 313.364138 269.923963 
L 322.358276 269.923963 
L 322.358276 155.166854 
L 331.352414 155.166854 
L 331.352414 269.923963 
L 340.346552 269.923963 
L 340.346552 155.166854 
L 349.34069 155.166854 
L 349.34069 269.923963 
L 358.334828 269.923963 
L 358.334828 155.166854 
L 367.328966 155.166854 
L 367.328966 269.923963 
L 376.323103 269.923963 
L 376.323103 155.166854 
L 385.317241 155.166854 
L 385.317241 269.923963 
L 394.311379 269.923963 
L 394.311379 155.166854 
L 403.305517 155.166854 
L 403.305517 269.923963 
L 412.299655 269.923963 
L 412.299655 155.166854 
L 421.293793 155.166854 
L 421.293793 269.923963 
L 430.287931 269.923963 
L 430.287931 155.166854 
L 439.282069 155.166854 
L 439.282069 269.923963 
L 448.276207 269.923963 
L 448.276207 155.166854 
L 457.270345 155.166854 
L 457.270345 269.923963 
L 466.264483 269.923963 
L 466.264483 155.166854 
L 475.258621 155.166854 
L 475.258621 269.923963 
L 484.252759 269.923963 
L 484.252759 155.166854 
L 493.246897 155.166854 
L 493.246897 269.923963 
L 502.241034 269.923963 
L 502.241034 155.166854 
L 511.235172 155.166854 
L 511.235172 269.923963 
L 520.22931 269.923963 
L 520.22931 155.166854 
L 529.223448 155.166854 
L 529.223448 269.923963 
L 538.217586 269.923963 
L 538.217586 155.166854 
L 547.211724 155.166854 
L 547.211724 269.923963 
L 556.205862 269.923963 
L 556.205862 155.166854 
L 565.2 155.166854 
L 565.2 269.923963 
L 574.194138 269.923963 
" clip-path="url(#p6b8d9fb908)" style="fill: none; stroke: #000000; stroke-opacity: 0.2; stroke-width: 2; stroke-linecap: square"/>
   </g>
   <g id="line2d_10">
    <path d="M 34.545862 269.923963 
L 43.54 269.923963 
L 43.54 269.923963 
L 52.534138 269.923963 
L 52.534138 269.923963 
L 61.528276 269.923963 
L 61.528276 269.923963 
L 70.522414 269.923963 
L 70.522414 269.923963 
L 79.516552 269.923963 
L 79.516552 269.923963 
L 88.51069 269.923963 
L 88.51069 269.923963 
L 97.504828 269.923963 
L 97.504828 269.923963 
L 106.498966 269.923963 
L 106.498966 155.166854 
L 115.493103 155.166854 
L 115.493103 155.166854 
L 124.487241 155.166854 
L 124.487241 155.166854 
L 133.481379 155.166854 
L 133.481379 155.166854 
L 142.475517 155.166854 
L 142.475517 155.166854 
L 151.469655 155.166854 
L 151.469655 155.166854 
L 160.463793 155.166854 
L 160.463793 155.166854 
L 169.457931 155.166854 
L 169.457931 155.166854 
L 178.452069 155.166854 
L 178.452069 269.923963 
L 187.446207 269.923963 
L 187.446207 269.923963 
L 196.440345 269.923963 
L 196.440345 269.923963 
L 205.434483 269.923963 
L 205.434483 269.923963 
L 214.428621 269.923963 
L 214.428621 269.923963 
L 223.422759 269.923963 
L 223.422759 269.923963 
L 232.416897 269.923963 
L 232.416897 269.923963 
L 241.411034 269.923963 
L 241.411034 269.923963 
L 250.405172 269.923963 
L 250.405172 155.166854 
L 259.39931 155.166854 
L 259.39931 155.166854 
L 268.393448 155.166854 
L 268.393448 155.166854 
L 277.387586 155.166854 
L 277.387586 155.166854 
L 286.381724 155.166854 
L 286.381724 155.166854 
L 295.375862 155.166854 
L 295.375862 155.166854 
L 304.37 155.166854 
L 304.37 155.166854 
L 313.364138 155.166854 
L 313.364138 155.166854 
L 322.358276 155.166854 
L 322.358276 269.923963 
L 331.352414 269.923963 
L 331.352414 269.923963 
L 340.346552 269.923963 
L 340.346552 269.923963 
L 349.34069 269.923963 
L 349.34069 269.923963 
L 358.334828 269.923963 
L 358.334828 269.923963 
L 367.328966 269.923963 
L 367.328966 269.923963 
L 376.323103 269.923963 
L 376.323103 269.923963 
L 385.317241 269.923963 
L 385.317241 269.923963 
L 394.311379 269.923963 
L 394.311379 155.166854 
L 403.305517 155.166854 
L 403.305517 155.166854 
L 412.299655 155.166854 
L 412.299655 155.166854 
L 421.293793 155.166854 
L 421.293793 155.166854 
L 430.287931 155.166854 
L 430.287931 155.166854 
L 439.282069 155.166854 
L 439.282069 155.166854 
L 448.276207 155.166854 
L 448.276207 155.166854 
L 457.270345 155.166854 
L 457.270345 155.166854 
L 466.264483 155.166854 
L 466.264483 269.923963 
L 475.258621 269.923963 
L 475.258621 269.923963 
L 484.252759 269.923963 
L 484.252759 269.923963 
L 493.246897 269.923963 
L 493.246897 269.923963 
L 502.241034 269.923963 
L 502.241034 269.923963 
L 511.235172 269.923963 
L 511.235172 269.923963 
L 520.22931 269.923963 
L 520.22931 269.923963 
L 529.223448 269.923963 
L 529.223448 269.923963 
L 538.217586 269.923963 
L 538.217586 155.166854 
L 547.211724 155.166854 
L 547.211724 155.166854 
L 556.205862 155.166854 
L 556.205862 155.166854 
L 565.2 155.166854 
L 565.2 155.166854 
L 574.194138 155.166854 
L 574.194138 155.166854 
" clip-path="url(#p6b8d9fb908)" style="fill: none; stroke: #000000; stroke-width: 2; stroke-linecap: square"/>
   </g>
   <g id="LineCollection_2">
    <path d="M 106.498966 212.545408 
L 250.405172 212.545408 
" clip-path="url(#p6b8d9fb908)" style="fill: none; stroke-dasharray: 11.1,4.8; stroke-dashoffset: 0; stroke: #0000ff; stroke-width: 3"/>
   </g>
   <g id="patch_11">
    <path d="M 43.54 275.661818 
L 43.54 149.428999 
" style="fill: none; stroke: #000000; stroke-width: 0.8; stroke-linejoin: miter; stroke-linecap: square"/>
   </g>
   <g id="patch_12">
    <path d="M 565.2 275.661818 
L 565.2 149.428999 
" style="fill: none; stroke: #000000; stroke-width: 0.8; stroke-linejoin: miter; stroke-linecap: square"/>
   </g>
   <g id="patch_13">
    <path d="M 43.54 275.661818 
L 565.2 275.661818 
" style="fill: none; stroke: #000000; stroke-width: 0.8; stroke-linejoin: miter; stroke-linecap: square"/>
   </g>
   <g id="patch_14">
    <path d="M 43.54 149.428999 
L 565.2 149.428999 
" style="fill: none; stroke: #000000; stroke-width: 0.8; stroke-linejoin: miter; stroke-linecap: square"/>
   </g>
   <g id="text_9">
    <g id="patch_15">
     <path d="M 169.457931 207.165323 
L 218.174181 207.165323 
Q 221.774181 207.165323 221.774181 203.565323 
L 221.774181 191.951573 
Q 221.774181 188.351573 218.174181 188.351573 
L 169.457931 188.351573 
Q 165.857931 188.351573 165.857931 191.951573 
L 165.857931 203.565323 
Q 165.857931 207.165323 169.457931 207.165323 
z
" style="fill: #ffffff; stroke: #0000ff; stroke-linejoin: miter"/>
    </g>
    <!-- 8 cycles -->
    <g transform="translate(169.457931 201.069698) scale(0.12 -0.12)">
     <use xlink:href="#DejaVuSans-38"/>
     <use xlink:href="#DejaVuSans-20" transform="translate(63.623047 0)"/>
     <use xlink:href="#DejaVuSans-63" transform="translate(95.410156 0)"/>
     <use xlink:href="#DejaVuSans-79" transform="translate(150.390625 0)"/>
     <use xlink:href="#DejaVuSans-63" transform="translate(209.570312 0)"/>
     <use xlink:href="#DejaVuSans-6c" transform="translate(264.550781 0)"/>
     <use xlink:href="#DejaVuSans-65" transform="translate(292.333984 0)"/>
     <use xlink:href="#DejaVuSans-73" transform="translate(353.857422 0)"/>
    </g>
   </g>
   <g id="text_10">
    <g id="patch_16">
     <path d="M 53.9732 177.276999 
L 76.791013 177.276999 
Q 80.991013 177.276999 80.991013 173.076999 
L 80.991013 159.527624 
Q 80.991013 155.327624 76.791013 155.327624 
L 53.9732 155.327624 
Q 49.7732 155.327624 49.7732 159.527624 
L 49.7732 173.076999 
Q 49.7732 177.276999 53.9732 177.276999 
z
" style="fill: #ffffff; stroke: #000000; stroke-linejoin: miter"/>
    </g>
    <!-- (b) -->
    <g transform="translate(53.9732 170.165437) scale(0.14 -0.14)">
     <defs>
      <path id="DejaVuSans-Bold-62" d="M 2400 722 
Q 2759 722 2948 984 
Q 3138 1247 3138 1747 
Q 3138 2247 2948 2509 
Q 2759 2772 2400 2772 
Q 2041 2772 1848 2508 
Q 1656 2244 1656 1747 
Q 1656 1250 1848 986 
Q 2041 722 2400 722 
z
M 1656 2988 
Q 1888 3294 2169 3439 
Q 2450 3584 2816 3584 
Q 3463 3584 3878 3070 
Q 4294 2556 4294 1747 
Q 4294 938 3878 423 
Q 3463 -91 2816 -91 
Q 2450 -91 2169 54 
Q 1888 200 1656 506 
L 1656 0 
L 538 0 
L 538 4863 
L 1656 4863 
L 1656 2988 
z
" transform="scale(0.015625)"/>
     </defs>
     <use xlink:href="#DejaVuSans-Bold-28"/>
     <use xlink:href="#DejaVuSans-Bold-62" transform="translate(45.703125 0)"/>
     <use xlink:href="#DejaVuSans-Bold-29" transform="translate(117.285156 0)"/>
    </g>
   </g>
   <g id="legend_2">
    <g id="patch_17">
     <path d="M 497.995312 186.785249 
L 558.2 186.785249 
Q 560.2 186.785249 560.2 184.785249 
L 560.2 156.428999 
Q 560.2 154.428999 558.2 154.428999 
L 497.995312 154.428999 
Q 495.995312 154.428999 495.995312 156.428999 
L 495.995312 184.785249 
Q 495.995312 186.785249 497.995312 186.785249 
z
" style="fill: #ffffff; stroke: #cccccc; stroke-linejoin: miter"/>
    </g>
    <g id="line2d_11">
     <path d="M 499.995312 162.527436 
L 499.995312 162.527436 
L 509.995312 162.527436 
L 509.995312 162.527436 
L 519.995312 162.527436 
" style="fill: none; stroke: #000000; stroke-opacity: 0.2; stroke-width: 2; stroke-linecap: square"/>
    </g>
    <g id="text_11">
     <!-- CLK -->
     <g transform="translate(527.995312 166.027436) scale(0.1 -0.1)">
      <use xlink:href="#DejaVuSans-43"/>
      <use xlink:href="#DejaVuSans-4c" transform="translate(69.824219 0)"/>
      <use xlink:href="#DejaVuSans-4b" transform="translate(125.537109 0)"/>
     </g>
    </g>
    <g id="line2d_12">
     <path d="M 499.995312 177.205561 
L 509.995312 177.205561 
L 509.995312 177.205561 
L 519.995312 177.205561 
L 519.995312 177.205561 
" style="fill: none; stroke: #000000; stroke-width: 2; stroke-linecap: square"/>
    </g>
    <g id="text_12">
     <!-- SPIKE -->
     <g transform="translate(527.995312 180.705561) scale(0.1 -0.1)">
      <use xlink:href="#DejaVuSans-53"/>
      <use xlink:href="#DejaVuSans-50" transform="translate(63.476562 0)"/>
      <use xlink:href="#DejaVuSans-49" transform="translate(123.779297 0)"/>
      <use xlink:href="#DejaVuSans-4b" transform="translate(153.271484 0)"/>
      <use xlink:href="#DejaVuSans-45" transform="translate(218.847656 0)"/>
     </g>
    </g>
   </g>
  </g>
 </g>
 <defs>
  <clipPath id="p1d8a2c4543">
   <rect x="43.54" y="10.8" width="521.66" height="126.232819"/>
  </clipPath>
  <clipPath id="p6b8d9fb908">
   <rect x="43.54" y="149.428999" width="521.66" height="126.232819"/>
  </clipPath>
 </defs>
</svg>
